<?xml version="1.0" encoding="utf-8" standalone="no"?>
<!DOCTYPE svg PUBLIC "-//W3C//DTD SVG 1.1//EN"
  "http://www.w3.org/Graphics/SVG/1.1/DTD/svg11.dtd">
<svg xmlns:xlink="http://www.w3.org/1999/xlink" width="864pt" height="576pt" viewBox="0 0 864 576" xmlns="http://www.w3.org/2000/svg" version="1.1">
 <metadata>
  <rdf:RDF xmlns:dc="http://purl.org/dc/elements/1.1/" xmlns:cc="http://creativecommons.org/ns#" xmlns:rdf="http://www.w3.org/1999/02/22-rdf-syntax-ns#">
   <cc:Work>
    <dc:type rdf:resource="http://purl.org/dc/dcmitype/StillImage"/>
    <dc:date>1980-01-01T00:00:00+00:00</dc:date>
    <dc:format>image/svg+xml</dc:format>
    <dc:creator>
     <cc:Agent>
      <dc:title>Matplotlib v3.10.1, https://matplotlib.org/</dc:title>
     </cc:Agent>
    </dc:creator>
   </cc:Work>
  </rdf:RDF>
 </metadata>
 <defs>
  <style type="text/css">*{stroke-linejoin: round; stroke-linecap: butt}</style>
 </defs>
 <g id="figure_1">
  <g id="patch_1">
   <path d="M 0 576 
L 864 576 
L 864 0 
L 0 0 
z
" style="fill: #ffffff"/>
  </g>
  <g id="axes_1">
   <g id="patch_2">
    <path d="M 79.551875 259.304062 
L 853.2 259.304062 
L 853.2 43.08 
L 79.551875 43.08 
z
" style="fill: #ffffff"/>
   </g>
   <g id="matplotlib.axis_1">
    <g id="xtick_1">
     <g id="line2d_1">
      <defs>
       <path id="m423167ff0c" d="M 0 0 
L 0 3.5 
" style="stroke: #000000; stroke-width: 0.8"/>
      </defs>
      <g>
       <use xlink:href="#m423167ff0c" x="114.717699" y="259.304062" style="stroke: #000000; stroke-width: 0.8"/>
      </g>
     </g>
     <g id="text_1">
      <!-- 0 -->
      <g transform="translate(111.717699 273.604062) scale(0.1 -0.1)">
       <defs>
        <path id="JetBrainsMono-Regular-30" d="M 1920 -64 
Q 1274 -64 893 310 
Q 512 685 512 1312 
L 512 3360 
Q 512 3987 893 4361 
Q 1274 4736 1920 4736 
Q 2566 4736 2947 4361 
Q 3328 3987 3328 3360 
L 3328 1312 
Q 3328 896 3155 585 
Q 2982 275 2665 105 
Q 2349 -64 1920 -64 
z
M 1920 429 
Q 2304 429 2537 675 
Q 2771 922 2771 1312 
L 2771 3360 
Q 2771 3750 2537 3996 
Q 2304 4243 1920 4243 
Q 1536 4243 1302 3996 
Q 1069 3750 1069 3360 
L 1069 1312 
Q 1069 922 1302 675 
Q 1536 429 1920 429 
z
M 1920 1984 
Q 1747 1984 1641 2080 
Q 1536 2176 1536 2355 
Q 1536 2528 1641 2621 
Q 1747 2714 1920 2714 
Q 2093 2714 2198 2621 
Q 2304 2528 2304 2355 
Q 2304 2176 2198 2080 
Q 2093 1984 1920 1984 
z
" transform="scale(0.015625)"/>
       </defs>
       <use xlink:href="#JetBrainsMono-Regular-30"/>
      </g>
     </g>
    </g>
    <g id="xtick_2">
     <g id="line2d_2">
      <g>
       <use xlink:href="#m423167ff0c" x="255.380994" y="259.304062" style="stroke: #000000; stroke-width: 0.8"/>
      </g>
     </g>
     <g id="text_2">
      <!-- 2 -->
      <g transform="translate(252.380994 273.604062) scale(0.1 -0.1)">
       <defs>
        <path id="JetBrainsMono-Regular-32" d="M 550 0 
L 550 531 
L 2106 2195 
Q 2445 2554 2585 2835 
Q 2726 3117 2726 3386 
Q 2726 3770 2505 3997 
Q 2285 4224 1907 4224 
Q 1517 4224 1289 3990 
Q 1062 3757 1062 3360 
L 486 3360 
Q 506 3994 890 4365 
Q 1274 4736 1907 4736 
Q 2554 4736 2934 4371 
Q 3315 4006 3315 3379 
Q 3315 3046 3132 2675 
Q 2950 2304 2509 1843 
L 1248 525 
L 3373 525 
L 3373 0 
L 550 0 
z
" transform="scale(0.015625)"/>
       </defs>
       <use xlink:href="#JetBrainsMono-Regular-32"/>
      </g>
     </g>
    </g>
    <g id="xtick_3">
     <g id="line2d_3">
      <g>
       <use xlink:href="#m423167ff0c" x="396.04429" y="259.304062" style="stroke: #000000; stroke-width: 0.8"/>
      </g>
     </g>
     <g id="text_3">
      <!-- 4 -->
      <g transform="translate(393.04429 273.604062) scale(0.1 -0.1)">
       <defs>
        <path id="JetBrainsMono-Regular-34" d="M 2560 0 
L 2560 1024 
L 448 1024 
L 448 1926 
L 2150 4672 
L 2803 4672 
L 1024 1798 
L 1024 1549 
L 2560 1549 
L 2560 2688 
L 3136 2688 
L 3136 0 
L 2560 0 
z
" transform="scale(0.015625)"/>
       </defs>
       <use xlink:href="#JetBrainsMono-Regular-34"/>
      </g>
     </g>
    </g>
    <g id="xtick_4">
     <g id="line2d_4">
      <g>
       <use xlink:href="#m423167ff0c" x="536.707585" y="259.304062" style="stroke: #000000; stroke-width: 0.8"/>
      </g>
     </g>
     <g id="text_4">
      <!-- 6 -->
      <g transform="translate(533.707585 273.604062) scale(0.1 -0.1)">
       <defs>
        <path id="JetBrainsMono-Regular-36" d="M 1926 -64 
Q 1478 -64 1136 125 
Q 794 314 602 650 
Q 410 986 410 1427 
Q 410 1734 525 2057 
Q 640 2381 838 2733 
L 1920 4672 
L 2560 4672 
L 1408 2669 
L 1427 2656 
Q 1510 2765 1676 2822 
Q 1843 2880 2042 2880 
Q 2458 2880 2768 2697 
Q 3078 2515 3254 2195 
Q 3430 1875 3430 1453 
Q 3430 1005 3238 662 
Q 3046 320 2710 128 
Q 2374 -64 1926 -64 
z
M 1920 448 
Q 2336 448 2595 723 
Q 2854 998 2854 1440 
Q 2854 1882 2595 2157 
Q 2336 2432 1920 2432 
Q 1504 2432 1245 2157 
Q 986 1882 986 1440 
Q 986 998 1245 723 
Q 1504 448 1920 448 
z
" transform="scale(0.015625)"/>
       </defs>
       <use xlink:href="#JetBrainsMono-Regular-36"/>
      </g>
     </g>
    </g>
    <g id="xtick_5">
     <g id="line2d_5">
      <g>
       <use xlink:href="#m423167ff0c" x="677.370881" y="259.304062" style="stroke: #000000; stroke-width: 0.8"/>
      </g>
     </g>
     <g id="text_5">
      <!-- 8 -->
      <g transform="translate(674.370881 273.604062) scale(0.1 -0.1)">
       <defs>
        <path id="JetBrainsMono-Regular-38" d="M 1920 -64 
Q 1478 -64 1139 109 
Q 800 282 611 592 
Q 422 902 422 1306 
Q 422 1747 675 2067 
Q 928 2387 1350 2458 
L 1350 2477 
Q 986 2560 768 2845 
Q 550 3130 550 3501 
Q 550 3866 723 4144 
Q 896 4422 1206 4579 
Q 1517 4736 1920 4736 
Q 2330 4736 2637 4579 
Q 2944 4422 3117 4144 
Q 3290 3866 3290 3501 
Q 3290 3130 3072 2845 
Q 2854 2560 2490 2477 
L 2490 2458 
Q 2912 2387 3165 2067 
Q 3418 1747 3418 1306 
Q 3418 902 3229 592 
Q 3040 282 2704 109 
Q 2368 -64 1920 -64 
z
M 1920 2701 
Q 2278 2701 2496 2912 
Q 2714 3123 2714 3462 
Q 2714 3802 2496 4013 
Q 2278 4224 1920 4224 
Q 1568 4224 1347 4013 
Q 1126 3802 1126 3462 
Q 1126 3123 1347 2912 
Q 1568 2701 1920 2701 
z
M 1920 454 
Q 2330 454 2586 694 
Q 2842 934 2842 1318 
Q 2842 1709 2586 1949 
Q 2330 2189 1920 2189 
Q 1510 2189 1254 1949 
Q 998 1709 998 1318 
Q 998 934 1254 694 
Q 1510 454 1920 454 
z
" transform="scale(0.015625)"/>
       </defs>
       <use xlink:href="#JetBrainsMono-Regular-38"/>
      </g>
     </g>
    </g>
    <g id="xtick_6">
     <g id="line2d_6">
      <g>
       <use xlink:href="#m423167ff0c" x="818.034176" y="259.304062" style="stroke: #000000; stroke-width: 0.8"/>
      </g>
     </g>
     <g id="text_6">
      <!-- 10 -->
      <g transform="translate(812.034176 273.604062) scale(0.1 -0.1)">
       <defs>
        <path id="JetBrainsMono-Regular-31" d="M 576 0 
L 576 525 
L 1843 525 
L 1843 4173 
L 576 3226 
L 576 3885 
L 1632 4672 
L 2419 4672 
L 2419 525 
L 3456 525 
L 3456 0 
L 576 0 
z
" transform="scale(0.015625)"/>
       </defs>
       <use xlink:href="#JetBrainsMono-Regular-31"/>
       <use xlink:href="#JetBrainsMono-Regular-30" transform="translate(59.999985 0)"/>
      </g>
     </g>
    </g>
   </g>
   <g id="matplotlib.axis_2">
    <g id="ytick_1">
     <g id="line2d_7">
      <defs>
       <path id="m6ffa20ebc6" d="M 0 0 
L -3.5 0 
" style="stroke: #000000; stroke-width: 0.8"/>
      </defs>
      <g>
       <use xlink:href="#m6ffa20ebc6" x="79.551875" y="254.505325" style="stroke: #000000; stroke-width: 0.8"/>
      </g>
     </g>
     <g id="text_7">
      <!-- −66 -->
      <g transform="translate(54.551875 258.155325) scale(0.1 -0.1)">
       <defs>
        <path id="JetBrainsMono-Regular-2212" d="M 896 1856 
L 896 2368 
L 2944 2368 
L 2944 1856 
L 896 1856 
z
" transform="scale(0.015625)"/>
       </defs>
       <use xlink:href="#JetBrainsMono-Regular-2212"/>
       <use xlink:href="#JetBrainsMono-Regular-36" transform="translate(59.999985 0)"/>
       <use xlink:href="#JetBrainsMono-Regular-36" transform="translate(119.999969 0)"/>
      </g>
     </g>
    </g>
    <g id="ytick_2">
     <g id="line2d_8">
      <g>
       <use xlink:href="#m6ffa20ebc6" x="79.551875" y="217.851332" style="stroke: #000000; stroke-width: 0.8"/>
      </g>
     </g>
     <g id="text_8">
      <!-- −64 -->
      <g transform="translate(54.551875 221.501332) scale(0.1 -0.1)">
       <use xlink:href="#JetBrainsMono-Regular-2212"/>
       <use xlink:href="#JetBrainsMono-Regular-36" transform="translate(59.999985 0)"/>
       <use xlink:href="#JetBrainsMono-Regular-34" transform="translate(119.999969 0)"/>
      </g>
     </g>
    </g>
    <g id="ytick_3">
     <g id="line2d_9">
      <g>
       <use xlink:href="#m6ffa20ebc6" x="79.551875" y="181.19734" style="stroke: #000000; stroke-width: 0.8"/>
      </g>
     </g>
     <g id="text_9">
      <!-- −62 -->
      <g transform="translate(54.551875 184.84734) scale(0.1 -0.1)">
       <use xlink:href="#JetBrainsMono-Regular-2212"/>
       <use xlink:href="#JetBrainsMono-Regular-36" transform="translate(59.999985 0)"/>
       <use xlink:href="#JetBrainsMono-Regular-32" transform="translate(119.999969 0)"/>
      </g>
     </g>
    </g>
    <g id="ytick_4">
     <g id="line2d_10">
      <g>
       <use xlink:href="#m6ffa20ebc6" x="79.551875" y="144.543348" style="stroke: #000000; stroke-width: 0.8"/>
      </g>
     </g>
     <g id="text_10">
      <!-- −60 -->
      <g transform="translate(54.551875 148.193348) scale(0.1 -0.1)">
       <use xlink:href="#JetBrainsMono-Regular-2212"/>
       <use xlink:href="#JetBrainsMono-Regular-36" transform="translate(59.999985 0)"/>
       <use xlink:href="#JetBrainsMono-Regular-30" transform="translate(119.999969 0)"/>
      </g>
     </g>
    </g>
    <g id="ytick_5">
     <g id="line2d_11">
      <g>
       <use xlink:href="#m6ffa20ebc6" x="79.551875" y="107.889355" style="stroke: #000000; stroke-width: 0.8"/>
      </g>
     </g>
     <g id="text_11">
      <!-- −58 -->
      <g transform="translate(54.551875 111.539355) scale(0.1 -0.1)">
       <defs>
        <path id="JetBrainsMono-Regular-35" d="M 1882 -64 
Q 1235 -64 857 297 
Q 480 659 480 1280 
L 1056 1280 
Q 1056 896 1280 672 
Q 1504 448 1888 448 
Q 2272 448 2496 672 
Q 2720 896 2720 1280 
L 2720 1568 
Q 2720 1952 2502 2176 
Q 2285 2400 1914 2400 
L 640 2400 
L 640 4672 
L 3130 4672 
L 3130 4147 
L 1178 4147 
L 1190 2925 
L 1946 2925 
Q 2592 2925 2944 2569 
Q 3296 2214 3296 1568 
L 3296 1280 
Q 3296 659 2915 297 
Q 2534 -64 1882 -64 
z
" transform="scale(0.015625)"/>
       </defs>
       <use xlink:href="#JetBrainsMono-Regular-2212"/>
       <use xlink:href="#JetBrainsMono-Regular-35" transform="translate(59.999985 0)"/>
       <use xlink:href="#JetBrainsMono-Regular-38" transform="translate(119.999969 0)"/>
      </g>
     </g>
    </g>
    <g id="ytick_6">
     <g id="line2d_12">
      <g>
       <use xlink:href="#m6ffa20ebc6" x="79.551875" y="71.235363" style="stroke: #000000; stroke-width: 0.8"/>
      </g>
     </g>
     <g id="text_12">
      <!-- −56 -->
      <g transform="translate(54.551875 74.885363) scale(0.1 -0.1)">
       <use xlink:href="#JetBrainsMono-Regular-2212"/>
       <use xlink:href="#JetBrainsMono-Regular-35" transform="translate(59.999985 0)"/>
       <use xlink:href="#JetBrainsMono-Regular-36" transform="translate(119.999969 0)"/>
      </g>
     </g>
    </g>
    <g id="text_13">
     <!-- Membrane Potential (mV) -->
     <g transform="translate(48.751875 220.192031) rotate(-90) scale(0.1 -0.1)">
      <defs>
       <path id="JetBrainsMono-Regular-4d" d="M 461 0 
L 461 4672 
L 1312 4672 
L 1907 2650 
L 2528 4672 
L 3379 4672 
L 3379 0 
L 2822 0 
L 2822 2208 
Q 2822 2522 2832 2928 
Q 2842 3334 2861 3750 
Q 2880 4166 2906 4499 
L 2150 2086 
L 1651 2086 
L 928 4442 
Q 979 3968 998 3405 
Q 1018 2842 1018 2208 
L 1018 0 
L 461 0 
z
" transform="scale(0.015625)"/>
       <path id="JetBrainsMono-Regular-65" d="M 1920 -64 
Q 1299 -64 918 310 
Q 538 685 538 1344 
L 538 2176 
Q 538 2835 918 3209 
Q 1299 3584 1920 3584 
Q 2336 3584 2646 3417 
Q 2957 3251 3129 2950 
Q 3302 2650 3302 2240 
L 3302 1613 
L 1101 1613 
L 1101 1280 
Q 1101 890 1325 662 
Q 1549 435 1920 435 
Q 2240 435 2448 560 
Q 2656 685 2701 896 
L 3277 896 
Q 3219 454 2848 195 
Q 2477 -64 1920 -64 
z
M 1101 2061 
L 2739 2061 
L 2739 2240 
Q 2739 2656 2524 2883 
Q 2310 3110 1920 3110 
Q 1530 3110 1315 2883 
Q 1101 2656 1101 2240 
L 1101 2061 
z
" transform="scale(0.015625)"/>
       <path id="JetBrainsMono-Regular-6d" d="M 384 0 
L 384 3520 
L 883 3520 
L 883 3053 
L 896 3053 
Q 928 3290 1085 3437 
Q 1242 3584 1485 3584 
Q 1715 3584 1875 3449 
Q 2035 3315 2106 3085 
L 2112 3085 
Q 2157 3315 2313 3449 
Q 2470 3584 2714 3584 
Q 3053 3584 3254 3331 
Q 3456 3078 3456 2675 
L 3456 0 
L 2918 0 
L 2918 2682 
Q 2918 2893 2816 3017 
Q 2714 3142 2534 3142 
Q 2362 3142 2259 3020 
Q 2157 2899 2157 2688 
L 2157 0 
L 1683 0 
L 1683 2682 
Q 1683 2893 1580 3017 
Q 1478 3142 1306 3142 
Q 1126 3142 1024 3020 
Q 922 2899 922 2688 
L 922 0 
L 384 0 
z
" transform="scale(0.015625)"/>
       <path id="JetBrainsMono-Regular-62" d="M 2125 -64 
Q 1728 -64 1472 131 
Q 1216 326 1171 672 
L 1165 672 
L 1165 0 
L 589 0 
L 589 4672 
L 1165 4672 
L 1165 3648 
L 1152 2848 
L 1158 2848 
Q 1210 3187 1469 3385 
Q 1728 3584 2125 3584 
Q 2656 3584 2969 3232 
Q 3283 2880 3283 2272 
L 3283 1242 
Q 3283 640 2969 288 
Q 2656 -64 2125 -64 
z
M 1933 435 
Q 2298 435 2502 627 
Q 2707 819 2707 1248 
L 2707 2272 
Q 2707 2707 2502 2896 
Q 2298 3085 1933 3085 
Q 1581 3085 1373 2861 
Q 1165 2637 1165 2240 
L 1165 1280 
Q 1165 883 1373 659 
Q 1581 435 1933 435 
z
" transform="scale(0.015625)"/>
       <path id="JetBrainsMono-Regular-72" d="M 717 0 
L 717 3520 
L 1293 3520 
L 1293 2848 
L 1306 2848 
Q 1350 3187 1593 3385 
Q 1837 3584 2246 3584 
Q 2797 3584 3094 3254 
Q 3392 2925 3392 2317 
L 3392 2016 
L 2816 2016 
L 2816 2317 
Q 2816 3085 2067 3085 
Q 1690 3085 1491 2867 
Q 1293 2650 1293 2240 
L 1293 0 
L 717 0 
z
" transform="scale(0.015625)"/>
       <path id="JetBrainsMono-Regular-61" d="M 1613 -64 
Q 1069 -64 749 240 
Q 429 544 429 1037 
Q 429 1363 576 1606 
Q 723 1850 985 1987 
Q 1248 2125 1587 2125 
L 2675 2125 
L 2675 2400 
Q 2675 3085 1926 3085 
Q 1594 3085 1389 2963 
Q 1184 2842 1171 2624 
L 595 2624 
Q 627 3040 982 3312 
Q 1338 3584 1926 3584 
Q 2566 3584 2908 3277 
Q 3251 2970 3251 2419 
L 3251 0 
L 2682 0 
L 2682 640 
L 2669 640 
Q 2618 314 2342 125 
Q 2067 -64 1613 -64 
z
M 1754 422 
Q 2176 422 2425 627 
Q 2675 832 2675 1184 
L 2675 1677 
L 1651 1677 
Q 1370 1677 1194 1507 
Q 1018 1338 1018 1056 
Q 1018 762 1213 592 
Q 1408 422 1754 422 
z
" transform="scale(0.015625)"/>
       <path id="JetBrainsMono-Regular-6e" d="M 589 0 
L 589 3520 
L 1165 3520 
L 1165 2848 
L 1171 2848 
Q 1216 3200 1459 3392 
Q 1702 3584 2106 3584 
Q 2637 3584 2950 3257 
Q 3264 2931 3264 2368 
L 3264 0 
L 2688 0 
L 2688 2266 
Q 2688 2669 2486 2883 
Q 2285 3098 1939 3098 
Q 1581 3098 1373 2874 
Q 1165 2650 1165 2240 
L 1165 0 
L 589 0 
z
" transform="scale(0.015625)"/>
       <path id="JetBrainsMono-Regular-20" transform="scale(0.015625)"/>
       <path id="JetBrainsMono-Regular-50" d="M 589 0 
L 589 4672 
L 2093 4672 
Q 2746 4672 3133 4297 
Q 3520 3923 3520 3296 
Q 3520 2669 3133 2294 
Q 2746 1920 2093 1920 
L 1165 1920 
L 1165 0 
L 589 0 
z
M 1165 2438 
L 2093 2438 
Q 2470 2438 2697 2672 
Q 2925 2906 2925 3296 
Q 2925 3693 2697 3923 
Q 2470 4154 2093 4154 
L 1165 4154 
L 1165 2438 
z
" transform="scale(0.015625)"/>
       <path id="JetBrainsMono-Regular-6f" d="M 1920 -51 
Q 1286 -51 912 320 
Q 538 691 538 1357 
L 538 2163 
Q 538 2835 909 3203 
Q 1280 3571 1920 3571 
Q 2560 3571 2931 3203 
Q 3302 2835 3302 2163 
L 3302 1357 
Q 3302 691 2928 320 
Q 2554 -51 1920 -51 
z
M 1920 461 
Q 2298 461 2512 672 
Q 2726 883 2726 1293 
L 2726 2227 
Q 2726 2637 2512 2848 
Q 2298 3059 1920 3059 
Q 1549 3059 1331 2848 
Q 1114 2637 1114 2227 
L 1114 1293 
Q 1114 883 1331 672 
Q 1549 461 1920 461 
z
" transform="scale(0.015625)"/>
       <path id="JetBrainsMono-Regular-74" d="M 2272 0 
Q 1837 0 1574 253 
Q 1312 506 1312 928 
L 1312 2995 
L 301 2995 
L 301 3520 
L 1312 3520 
L 1312 4512 
L 1888 4512 
L 1888 3520 
L 3328 3520 
L 3328 2995 
L 1888 2995 
L 1888 928 
Q 1888 749 1993 637 
Q 2099 525 2272 525 
L 3296 525 
L 3296 0 
L 2272 0 
z
" transform="scale(0.015625)"/>
       <path id="JetBrainsMono-Regular-69" d="M 544 0 
L 544 525 
L 1792 525 
L 1792 2995 
L 672 2995 
L 672 3520 
L 2368 3520 
L 2368 525 
L 3552 525 
L 3552 0 
L 544 0 
z
M 2016 4154 
Q 1805 4154 1683 4262 
Q 1562 4371 1562 4557 
Q 1562 4749 1683 4861 
Q 1805 4973 2016 4973 
Q 2227 4973 2348 4861 
Q 2470 4749 2470 4557 
Q 2470 4371 2348 4262 
Q 2227 4154 2016 4154 
z
" transform="scale(0.015625)"/>
       <path id="JetBrainsMono-Regular-6c" d="M 2432 0 
Q 1965 0 1686 272 
Q 1408 544 1408 992 
L 1408 4147 
L 192 4147 
L 192 4672 
L 1984 4672 
L 1984 992 
Q 1984 774 2105 649 
Q 2227 525 2432 525 
L 3520 525 
L 3520 0 
L 2432 0 
z
" transform="scale(0.015625)"/>
       <path id="JetBrainsMono-Regular-28" d="M 3104 -768 
Q 2189 -563 1686 89 
Q 1184 742 1184 1728 
L 1184 2880 
Q 1184 3866 1686 4518 
Q 2189 5171 3104 5376 
L 3104 4819 
Q 2694 4723 2390 4454 
Q 2086 4186 1923 3786 
Q 1760 3386 1760 2880 
L 1760 1728 
Q 1760 1229 1923 825 
Q 2086 422 2390 153 
Q 2694 -115 3104 -211 
L 3104 -768 
z
" transform="scale(0.015625)"/>
       <path id="JetBrainsMono-Regular-56" d="M 1523 0 
L 320 4672 
L 909 4672 
L 1709 1491 
Q 1792 1158 1846 876 
Q 1901 595 1926 448 
Q 1952 595 2013 880 
Q 2074 1165 2157 1498 
L 2925 4672 
L 3520 4672 
L 2310 0 
L 1523 0 
z
" transform="scale(0.015625)"/>
       <path id="JetBrainsMono-Regular-29" d="M 736 -768 
L 736 -211 
Q 1152 -115 1453 153 
Q 1754 422 1917 825 
Q 2080 1229 2080 1728 
L 2080 2880 
Q 2080 3386 1917 3786 
Q 1754 4186 1453 4454 
Q 1152 4723 736 4819 
L 736 5376 
Q 1651 5171 2153 4518 
Q 2656 3866 2656 2880 
L 2656 1728 
Q 2656 742 2153 89 
Q 1651 -563 736 -768 
z
" transform="scale(0.015625)"/>
      </defs>
      <use xlink:href="#JetBrainsMono-Regular-4d"/>
      <use xlink:href="#JetBrainsMono-Regular-65" transform="translate(59.999985 0)"/>
      <use xlink:href="#JetBrainsMono-Regular-6d" transform="translate(119.999969 0)"/>
      <use xlink:href="#JetBrainsMono-Regular-62" transform="translate(179.999954 0)"/>
      <use xlink:href="#JetBrainsMono-Regular-72" transform="translate(239.999939 0)"/>
      <use xlink:href="#JetBrainsMono-Regular-61" transform="translate(299.999924 0)"/>
      <use xlink:href="#JetBrainsMono-Regular-6e" transform="translate(359.999908 0)"/>
      <use xlink:href="#JetBrainsMono-Regular-65" transform="translate(419.999893 0)"/>
      <use xlink:href="#JetBrainsMono-Regular-20" transform="translate(479.999878 0)"/>
      <use xlink:href="#JetBrainsMono-Regular-50" transform="translate(539.999863 0)"/>
      <use xlink:href="#JetBrainsMono-Regular-6f" transform="translate(599.999847 0)"/>
      <use xlink:href="#JetBrainsMono-Regular-74" transform="translate(659.999832 0)"/>
      <use xlink:href="#JetBrainsMono-Regular-65" transform="translate(719.999817 0)"/>
      <use xlink:href="#JetBrainsMono-Regular-6e" transform="translate(779.999802 0)"/>
      <use xlink:href="#JetBrainsMono-Regular-74" transform="translate(839.999786 0)"/>
      <use xlink:href="#JetBrainsMono-Regular-69" transform="translate(899.999771 0)"/>
      <use xlink:href="#JetBrainsMono-Regular-61" transform="translate(959.999756 0)"/>
      <use xlink:href="#JetBrainsMono-Regular-6c" transform="translate(1019.999741 0)"/>
      <use xlink:href="#JetBrainsMono-Regular-20" transform="translate(1079.999725 0)"/>
      <use xlink:href="#JetBrainsMono-Regular-28" transform="translate(1139.99971 0)"/>
      <use xlink:href="#JetBrainsMono-Regular-6d" transform="translate(1199.999695 0)"/>
      <use xlink:href="#JetBrainsMono-Regular-56" transform="translate(1259.99968 0)"/>
      <use xlink:href="#JetBrainsMono-Regular-29" transform="translate(1319.999664 0)"/>
     </g>
    </g>
   </g>
   <g id="line2d_13">
    <path d="M 114.717699 236.178329 
L 187.651618 235.713449 
L 255.380994 235.422156 
L 260.374541 194.928014 
L 262.414159 178.870224 
L 262.484491 178.903943 
L 265.86041 180.39878 
L 269.447324 181.745297 
L 273.385896 182.981173 
L 277.746458 184.109127 
L 282.740005 185.162698 
L 288.718195 186.186708 
L 296.525008 187.28322 
L 309.888021 188.896344 
L 329.229224 191.275434 
L 342.381243 193.127348 
L 355.040939 195.135721 
L 367.841299 197.393013 
L 381.204312 199.97734 
L 396.04429 203.080362 
L 413.838197 207.03699 
L 438.383942 212.743479 
L 482.411553 222.998832 
L 500.62745 226.979236 
L 516.944392 230.319779 
L 532.347023 233.247951 
L 547.257332 235.856613 
L 561.745652 238.166973 
L 575.882313 240.196061 
L 589.948643 241.99091 
L 604.225967 243.587632 
L 618.714286 244.98387 
L 633.624596 246.195936 
L 648.956895 247.218016 
L 664.851847 248.053726 
L 681.450116 248.702194 
L 698.892365 249.158983 
L 717.319257 249.417196 
L 737.012118 249.468386 
L 758.322607 249.29785 
L 781.672714 248.884554 
L 807.836087 248.194401 
L 818.034176 247.872403 
L 818.034176 247.872403 
" clip-path="url(#pd7f3e85fd6)" style="fill: none; stroke: #0000ff; stroke-width: 1.5; stroke-linecap: square"/>
   </g>
   <g id="line2d_14">
    <path d="M 255.380994 259.304062 
L 255.380994 43.08 
" clip-path="url(#pd7f3e85fd6)" style="fill: none; stroke-dasharray: 5.55,2.4; stroke-dashoffset: 0; stroke: #ff0000; stroke-width: 1.5"/>
   </g>
   <g id="line2d_15">
    <path d="M 262.414159 259.304062 
L 262.414159 43.08 
" clip-path="url(#pd7f3e85fd6)" style="fill: none; stroke-dasharray: 5.55,2.4; stroke-dashoffset: 0; stroke: #008000; stroke-width: 1.5"/>
   </g>
   <g id="line2d_16">
    <path d="M 79.551875 52.908366 
L 853.2 52.908366 
" clip-path="url(#pd7f3e85fd6)" style="fill: none; stroke-dasharray: 5.55,2.4; stroke-dashoffset: 0; stroke: #ffa500; stroke-width: 1.5"/>
   </g>
   <g id="patch_3">
    <path d="M 79.551875 259.304063 
L 79.551875 43.08 
" style="fill: none; stroke: #000000; stroke-width: 0.8; stroke-linejoin: miter; stroke-linecap: square"/>
   </g>
   <g id="patch_4">
    <path d="M 853.2 259.304063 
L 853.2 43.08 
" style="fill: none; stroke: #000000; stroke-width: 0.8; stroke-linejoin: miter; stroke-linecap: square"/>
   </g>
   <g id="patch_5">
    <path d="M 79.551875 259.304062 
L 853.2 259.304062 
" style="fill: none; stroke: #000000; stroke-width: 0.8; stroke-linejoin: miter; stroke-linecap: square"/>
   </g>
   <g id="patch_6">
    <path d="M 79.551875 43.08 
L 853.2 43.08 
" style="fill: none; stroke: #000000; stroke-width: 0.8; stroke-linejoin: miter; stroke-linecap: square"/>
   </g>
   <g id="text_14">
    <!-- Action Potential -->
    <g transform="translate(408.775938 37.08) scale(0.12 -0.12)">
     <defs>
      <path id="JetBrainsMono-Regular-41" d="M 320 0 
L 1536 4672 
L 2310 4672 
L 3520 0 
L 2938 0 
L 2630 1242 
L 1216 1242 
L 909 0 
L 320 0 
z
M 1331 1728 
L 2509 1728 
L 2150 3168 
Q 2048 3578 1990 3853 
Q 1933 4128 1920 4211 
Q 1907 4128 1849 3853 
Q 1792 3578 1690 3174 
L 1331 1728 
z
" transform="scale(0.015625)"/>
      <path id="JetBrainsMono-Regular-63" d="M 1971 -64 
Q 1331 -64 947 294 
Q 563 653 563 1280 
L 563 2240 
Q 563 2867 947 3225 
Q 1331 3584 1971 3584 
Q 2579 3584 2953 3257 
Q 3328 2931 3347 2368 
L 2771 2368 
Q 2752 2707 2541 2889 
Q 2330 3072 1971 3072 
Q 1594 3072 1366 2857 
Q 1139 2643 1139 2246 
L 1139 1280 
Q 1139 883 1366 665 
Q 1594 448 1971 448 
Q 2330 448 2541 633 
Q 2752 819 2771 1152 
L 3347 1152 
Q 3328 589 2953 262 
Q 2579 -64 1971 -64 
z
" transform="scale(0.015625)"/>
     </defs>
     <use xlink:href="#JetBrainsMono-Regular-41"/>
     <use xlink:href="#JetBrainsMono-Regular-63" transform="translate(59.999985 0)"/>
     <use xlink:href="#JetBrainsMono-Regular-74" transform="translate(119.999969 0)"/>
     <use xlink:href="#JetBrainsMono-Regular-69" transform="translate(179.999954 0)"/>
     <use xlink:href="#JetBrainsMono-Regular-6f" transform="translate(239.999939 0)"/>
     <use xlink:href="#JetBrainsMono-Regular-6e" transform="translate(299.999924 0)"/>
     <use xlink:href="#JetBrainsMono-Regular-20" transform="translate(359.999908 0)"/>
     <use xlink:href="#JetBrainsMono-Regular-50" transform="translate(419.999893 0)"/>
     <use xlink:href="#JetBrainsMono-Regular-6f" transform="translate(479.999878 0)"/>
     <use xlink:href="#JetBrainsMono-Regular-74" transform="translate(539.999863 0)"/>
     <use xlink:href="#JetBrainsMono-Regular-65" transform="translate(599.999847 0)"/>
     <use xlink:href="#JetBrainsMono-Regular-6e" transform="translate(659.999832 0)"/>
     <use xlink:href="#JetBrainsMono-Regular-74" transform="translate(719.999817 0)"/>
     <use xlink:href="#JetBrainsMono-Regular-69" transform="translate(779.999802 0)"/>
     <use xlink:href="#JetBrainsMono-Regular-61" transform="translate(839.999786 0)"/>
     <use xlink:href="#JetBrainsMono-Regular-6c" transform="translate(899.999771 0)"/>
    </g>
   </g>
   <g id="legend_1">
    <g id="patch_7">
     <path d="M 700.2 180.892031 
L 846.2 180.892031 
Q 848.2 180.892031 848.2 178.892031 
L 848.2 123.492031 
Q 848.2 121.492031 846.2 121.492031 
L 700.2 121.492031 
Q 698.2 121.492031 698.2 123.492031 
L 698.2 178.892031 
Q 698.2 180.892031 700.2 180.892031 
z
" style="fill: #ffffff; opacity: 0.8; stroke: #cccccc; stroke-linejoin: miter"/>
    </g>
    <g id="line2d_17">
     <path d="M 702.2 129.292031 
L 712.2 129.292031 
L 722.2 129.292031 
" style="fill: none; stroke: #0000ff; stroke-width: 1.5; stroke-linecap: square"/>
    </g>
    <g id="text_15">
     <!-- Membrane Potential -->
     <g transform="translate(730.2 132.792031) scale(0.1 -0.1)">
      <use xlink:href="#JetBrainsMono-Regular-4d"/>
      <use xlink:href="#JetBrainsMono-Regular-65" transform="translate(59.999985 0)"/>
      <use xlink:href="#JetBrainsMono-Regular-6d" transform="translate(119.999969 0)"/>
      <use xlink:href="#JetBrainsMono-Regular-62" transform="translate(179.999954 0)"/>
      <use xlink:href="#JetBrainsMono-Regular-72" transform="translate(239.999939 0)"/>
      <use xlink:href="#JetBrainsMono-Regular-61" transform="translate(299.999924 0)"/>
      <use xlink:href="#JetBrainsMono-Regular-6e" transform="translate(359.999908 0)"/>
      <use xlink:href="#JetBrainsMono-Regular-65" transform="translate(419.999893 0)"/>
      <use xlink:href="#JetBrainsMono-Regular-20" transform="translate(479.999878 0)"/>
      <use xlink:href="#JetBrainsMono-Regular-50" transform="translate(539.999863 0)"/>
      <use xlink:href="#JetBrainsMono-Regular-6f" transform="translate(599.999847 0)"/>
      <use xlink:href="#JetBrainsMono-Regular-74" transform="translate(659.999832 0)"/>
      <use xlink:href="#JetBrainsMono-Regular-65" transform="translate(719.999817 0)"/>
      <use xlink:href="#JetBrainsMono-Regular-6e" transform="translate(779.999802 0)"/>
      <use xlink:href="#JetBrainsMono-Regular-74" transform="translate(839.999786 0)"/>
      <use xlink:href="#JetBrainsMono-Regular-69" transform="translate(899.999771 0)"/>
      <use xlink:href="#JetBrainsMono-Regular-61" transform="translate(959.999756 0)"/>
      <use xlink:href="#JetBrainsMono-Regular-6c" transform="translate(1019.999741 0)"/>
     </g>
    </g>
    <g id="line2d_18">
     <path d="M 702.2 143.392031 
L 712.2 143.392031 
L 722.2 143.392031 
" style="fill: none; stroke-dasharray: 5.55,2.4; stroke-dashoffset: 0; stroke: #ff0000; stroke-width: 1.5"/>
    </g>
    <g id="text_16">
     <!-- Stimulus Start -->
     <g transform="translate(730.2 146.892031) scale(0.1 -0.1)">
      <defs>
       <path id="JetBrainsMono-Regular-53" d="M 1946 -64 
Q 1267 -64 864 294 
Q 461 653 461 1280 
L 1037 1280 
Q 1037 890 1286 669 
Q 1536 448 1946 448 
Q 2342 448 2579 678 
Q 2816 909 2816 1280 
Q 2816 1562 2665 1770 
Q 2515 1978 2234 2054 
L 1523 2253 
Q 1082 2381 829 2710 
Q 576 3040 576 3488 
Q 576 3859 742 4140 
Q 909 4422 1209 4579 
Q 1510 4736 1901 4736 
Q 2298 4736 2602 4579 
Q 2906 4422 3078 4144 
Q 3251 3866 3251 3501 
L 2675 3501 
Q 2675 3821 2457 4022 
Q 2240 4224 1901 4224 
Q 1562 4224 1350 4022 
Q 1139 3821 1139 3501 
Q 1139 3245 1276 3062 
Q 1414 2880 1664 2810 
L 2394 2605 
Q 2861 2477 3120 2121 
Q 3379 1766 3379 1280 
Q 3379 666 2988 301 
Q 2598 -64 1946 -64 
z
" transform="scale(0.015625)"/>
       <path id="JetBrainsMono-Regular-75" d="M 1914 -64 
Q 1306 -64 941 297 
Q 576 659 576 1280 
L 576 3520 
L 1152 3520 
L 1152 1280 
Q 1152 896 1357 669 
Q 1562 442 1914 442 
Q 2272 442 2480 669 
Q 2688 896 2688 1280 
L 2688 3520 
L 3264 3520 
L 3264 1280 
Q 3264 659 2893 297 
Q 2522 -64 1914 -64 
z
" transform="scale(0.015625)"/>
       <path id="JetBrainsMono-Regular-73" d="M 1779 -51 
Q 1190 -51 867 214 
Q 544 480 544 966 
L 1120 966 
Q 1120 723 1293 585 
Q 1466 448 1779 448 
L 2061 448 
Q 2381 448 2557 589 
Q 2733 730 2733 986 
Q 2733 1440 2317 1498 
L 1344 1638 
Q 986 1690 787 1936 
Q 589 2182 589 2586 
Q 589 3046 905 3308 
Q 1222 3571 1779 3571 
L 2061 3571 
Q 2573 3571 2896 3318 
Q 3219 3066 3245 2656 
L 2662 2656 
Q 2650 2842 2486 2963 
Q 2323 3085 2061 3085 
L 1779 3085 
Q 1485 3085 1318 2950 
Q 1152 2816 1152 2586 
Q 1152 2214 1491 2163 
L 2400 2035 
Q 3296 1907 3296 986 
Q 3296 493 2973 221 
Q 2650 -51 2061 -51 
L 1779 -51 
z
" transform="scale(0.015625)"/>
      </defs>
      <use xlink:href="#JetBrainsMono-Regular-53"/>
      <use xlink:href="#JetBrainsMono-Regular-74" transform="translate(59.999985 0)"/>
      <use xlink:href="#JetBrainsMono-Regular-69" transform="translate(119.999969 0)"/>
      <use xlink:href="#JetBrainsMono-Regular-6d" transform="translate(179.999954 0)"/>
      <use xlink:href="#JetBrainsMono-Regular-75" transform="translate(239.999939 0)"/>
      <use xlink:href="#JetBrainsMono-Regular-6c" transform="translate(299.999924 0)"/>
      <use xlink:href="#JetBrainsMono-Regular-75" transform="translate(359.999908 0)"/>
      <use xlink:href="#JetBrainsMono-Regular-73" transform="translate(419.999893 0)"/>
      <use xlink:href="#JetBrainsMono-Regular-20" transform="translate(479.999878 0)"/>
      <use xlink:href="#JetBrainsMono-Regular-53" transform="translate(539.999863 0)"/>
      <use xlink:href="#JetBrainsMono-Regular-74" transform="translate(599.999847 0)"/>
      <use xlink:href="#JetBrainsMono-Regular-61" transform="translate(659.999832 0)"/>
      <use xlink:href="#JetBrainsMono-Regular-72" transform="translate(719.999817 0)"/>
      <use xlink:href="#JetBrainsMono-Regular-74" transform="translate(779.999802 0)"/>
     </g>
    </g>
    <g id="line2d_19">
     <path d="M 702.2 157.492031 
L 712.2 157.492031 
L 722.2 157.492031 
" style="fill: none; stroke-dasharray: 5.55,2.4; stroke-dashoffset: 0; stroke: #008000; stroke-width: 1.5"/>
    </g>
    <g id="text_17">
     <!-- Stimulus End -->
     <g transform="translate(730.2 160.992031) scale(0.1 -0.1)">
      <defs>
       <path id="JetBrainsMono-Regular-45" d="M 640 0 
L 640 4672 
L 3328 4672 
L 3328 4147 
L 1210 4147 
L 1210 2701 
L 3104 2701 
L 3104 2189 
L 1210 2189 
L 1210 525 
L 3328 525 
L 3328 0 
L 640 0 
z
" transform="scale(0.015625)"/>
       <path id="JetBrainsMono-Regular-64" d="M 1715 -64 
Q 1190 -64 873 288 
Q 557 640 557 1242 
L 557 2272 
Q 557 2880 870 3232 
Q 1184 3584 1715 3584 
Q 2112 3584 2371 3385 
Q 2630 3187 2682 2848 
L 2688 2848 
L 2675 3648 
L 2675 4672 
L 3251 4672 
L 3251 0 
L 2675 0 
L 2675 672 
L 2669 672 
Q 2624 326 2368 131 
Q 2112 -64 1715 -64 
z
M 1907 435 
Q 2266 435 2470 659 
Q 2675 883 2675 1280 
L 2675 2240 
Q 2675 2637 2470 2861 
Q 2266 3085 1907 3085 
Q 1542 3085 1337 2896 
Q 1133 2707 1133 2272 
L 1133 1248 
Q 1133 819 1337 627 
Q 1542 435 1907 435 
z
" transform="scale(0.015625)"/>
      </defs>
      <use xlink:href="#JetBrainsMono-Regular-53"/>
      <use xlink:href="#JetBrainsMono-Regular-74" transform="translate(59.999985 0)"/>
      <use xlink:href="#JetBrainsMono-Regular-69" transform="translate(119.999969 0)"/>
      <use xlink:href="#JetBrainsMono-Regular-6d" transform="translate(179.999954 0)"/>
      <use xlink:href="#JetBrainsMono-Regular-75" transform="translate(239.999939 0)"/>
      <use xlink:href="#JetBrainsMono-Regular-6c" transform="translate(299.999924 0)"/>
      <use xlink:href="#JetBrainsMono-Regular-75" transform="translate(359.999908 0)"/>
      <use xlink:href="#JetBrainsMono-Regular-73" transform="translate(419.999893 0)"/>
      <use xlink:href="#JetBrainsMono-Regular-20" transform="translate(479.999878 0)"/>
      <use xlink:href="#JetBrainsMono-Regular-45" transform="translate(539.999863 0)"/>
      <use xlink:href="#JetBrainsMono-Regular-6e" transform="translate(599.999847 0)"/>
      <use xlink:href="#JetBrainsMono-Regular-64" transform="translate(659.999832 0)"/>
     </g>
    </g>
    <g id="line2d_20">
     <path d="M 702.2 171.592031 
L 712.2 171.592031 
L 722.2 171.592031 
" style="fill: none; stroke-dasharray: 5.55,2.4; stroke-dashoffset: 0; stroke: #ffa500; stroke-width: 1.5"/>
    </g>
    <g id="text_18">
     <!-- Threshold Potential -->
     <g transform="translate(730.2 175.092031) scale(0.1 -0.1)">
      <defs>
       <path id="JetBrainsMono-Regular-54" d="M 1632 0 
L 1632 4147 
L 352 4147 
L 352 4672 
L 3488 4672 
L 3488 4147 
L 2208 4147 
L 2208 0 
L 1632 0 
z
" transform="scale(0.015625)"/>
       <path id="JetBrainsMono-Regular-68" d="M 589 0 
L 589 4672 
L 1165 4672 
L 1165 2848 
L 1171 2848 
Q 1216 3200 1459 3392 
Q 1702 3584 2106 3584 
Q 2637 3584 2950 3257 
Q 3264 2931 3264 2368 
L 3264 0 
L 2688 0 
L 2688 2272 
Q 2688 2669 2486 2883 
Q 2285 3098 1939 3098 
Q 1581 3098 1373 2874 
Q 1165 2650 1165 2240 
L 1165 0 
L 589 0 
z
" transform="scale(0.015625)"/>
      </defs>
      <use xlink:href="#JetBrainsMono-Regular-54"/>
      <use xlink:href="#JetBrainsMono-Regular-68" transform="translate(59.999985 0)"/>
      <use xlink:href="#JetBrainsMono-Regular-72" transform="translate(119.999969 0)"/>
      <use xlink:href="#JetBrainsMono-Regular-65" transform="translate(179.999954 0)"/>
      <use xlink:href="#JetBrainsMono-Regular-73" transform="translate(239.999939 0)"/>
      <use xlink:href="#JetBrainsMono-Regular-68" transform="translate(299.999924 0)"/>
      <use xlink:href="#JetBrainsMono-Regular-6f" transform="translate(359.999908 0)"/>
      <use xlink:href="#JetBrainsMono-Regular-6c" transform="translate(419.999893 0)"/>
      <use xlink:href="#JetBrainsMono-Regular-64" transform="translate(479.999878 0)"/>
      <use xlink:href="#JetBrainsMono-Regular-20" transform="translate(539.999863 0)"/>
      <use xlink:href="#JetBrainsMono-Regular-50" transform="translate(599.999847 0)"/>
      <use xlink:href="#JetBrainsMono-Regular-6f" transform="translate(659.999832 0)"/>
      <use xlink:href="#JetBrainsMono-Regular-74" transform="translate(719.999817 0)"/>
      <use xlink:href="#JetBrainsMono-Regular-65" transform="translate(779.999802 0)"/>
      <use xlink:href="#JetBrainsMono-Regular-6e" transform="translate(839.999786 0)"/>
      <use xlink:href="#JetBrainsMono-Regular-74" transform="translate(899.999771 0)"/>
      <use xlink:href="#JetBrainsMono-Regular-69" transform="translate(959.999756 0)"/>
      <use xlink:href="#JetBrainsMono-Regular-61" transform="translate(1019.999741 0)"/>
      <use xlink:href="#JetBrainsMono-Regular-6c" transform="translate(1079.999725 0)"/>
     </g>
    </g>
   </g>
  </g>
  <g id="axes_2">
   <g id="patch_8">
    <path d="M 79.551875 517.688125 
L 853.2 517.688125 
L 853.2 301.464062 
L 79.551875 301.464062 
z
" style="fill: #ffffff"/>
   </g>
   <g id="matplotlib.axis_3">
    <g id="xtick_7">
     <g id="line2d_21">
      <g>
       <use xlink:href="#m423167ff0c" x="114.717699" y="517.688125" style="stroke: #000000; stroke-width: 0.8"/>
      </g>
     </g>
     <g id="text_19">
      <!-- 0 -->
      <g transform="translate(111.717699 531.988125) scale(0.1 -0.1)">
       <use xlink:href="#JetBrainsMono-Regular-30"/>
      </g>
     </g>
    </g>
    <g id="xtick_8">
     <g id="line2d_22">
      <g>
       <use xlink:href="#m423167ff0c" x="255.380994" y="517.688125" style="stroke: #000000; stroke-width: 0.8"/>
      </g>
     </g>
     <g id="text_20">
      <!-- 2 -->
      <g transform="translate(252.380994 531.988125) scale(0.1 -0.1)">
       <use xlink:href="#JetBrainsMono-Regular-32"/>
      </g>
     </g>
    </g>
    <g id="xtick_9">
     <g id="line2d_23">
      <g>
       <use xlink:href="#m423167ff0c" x="396.04429" y="517.688125" style="stroke: #000000; stroke-width: 0.8"/>
      </g>
     </g>
     <g id="text_21">
      <!-- 4 -->
      <g transform="translate(393.04429 531.988125) scale(0.1 -0.1)">
       <use xlink:href="#JetBrainsMono-Regular-34"/>
      </g>
     </g>
    </g>
    <g id="xtick_10">
     <g id="line2d_24">
      <g>
       <use xlink:href="#m423167ff0c" x="536.707585" y="517.688125" style="stroke: #000000; stroke-width: 0.8"/>
      </g>
     </g>
     <g id="text_22">
      <!-- 6 -->
      <g transform="translate(533.707585 531.988125) scale(0.1 -0.1)">
       <use xlink:href="#JetBrainsMono-Regular-36"/>
      </g>
     </g>
    </g>
    <g id="xtick_11">
     <g id="line2d_25">
      <g>
       <use xlink:href="#m423167ff0c" x="677.370881" y="517.688125" style="stroke: #000000; stroke-width: 0.8"/>
      </g>
     </g>
     <g id="text_23">
      <!-- 8 -->
      <g transform="translate(674.370881 531.988125) scale(0.1 -0.1)">
       <use xlink:href="#JetBrainsMono-Regular-38"/>
      </g>
     </g>
    </g>
    <g id="xtick_12">
     <g id="line2d_26">
      <g>
       <use xlink:href="#m423167ff0c" x="818.034176" y="517.688125" style="stroke: #000000; stroke-width: 0.8"/>
      </g>
     </g>
     <g id="text_24">
      <!-- 10 -->
      <g transform="translate(812.034176 531.988125) scale(0.1 -0.1)">
       <use xlink:href="#JetBrainsMono-Regular-31"/>
       <use xlink:href="#JetBrainsMono-Regular-30" transform="translate(59.999985 0)"/>
      </g>
     </g>
    </g>
    <g id="text_25">
     <!-- Time (ms) -->
     <g transform="translate(439.375938 545.588125) scale(0.1 -0.1)">
      <use xlink:href="#JetBrainsMono-Regular-54"/>
      <use xlink:href="#JetBrainsMono-Regular-69" transform="translate(59.999985 0)"/>
      <use xlink:href="#JetBrainsMono-Regular-6d" transform="translate(119.999969 0)"/>
      <use xlink:href="#JetBrainsMono-Regular-65" transform="translate(179.999954 0)"/>
      <use xlink:href="#JetBrainsMono-Regular-20" transform="translate(239.999939 0)"/>
      <use xlink:href="#JetBrainsMono-Regular-28" transform="translate(299.999924 0)"/>
      <use xlink:href="#JetBrainsMono-Regular-6d" transform="translate(359.999908 0)"/>
      <use xlink:href="#JetBrainsMono-Regular-73" transform="translate(419.999893 0)"/>
      <use xlink:href="#JetBrainsMono-Regular-29" transform="translate(479.999878 0)"/>
     </g>
    </g>
   </g>
   <g id="matplotlib.axis_4">
    <g id="ytick_7">
     <g id="line2d_27">
      <g>
       <use xlink:href="#m6ffa20ebc6" x="79.551875" y="496.910749" style="stroke: #000000; stroke-width: 0.8"/>
      </g>
     </g>
     <g id="text_26">
      <!-- −0.00275 -->
      <g transform="translate(24.551875 500.560749) scale(0.1 -0.1)">
       <defs>
        <path id="JetBrainsMono-Regular-2e" d="M 1920 -64 
Q 1683 -64 1539 77 
Q 1395 218 1395 442 
Q 1395 678 1539 825 
Q 1683 973 1920 973 
Q 2157 973 2301 825 
Q 2445 678 2445 442 
Q 2445 218 2301 77 
Q 2157 -64 1920 -64 
z
" transform="scale(0.015625)"/>
        <path id="JetBrainsMono-Regular-37" d="M 1216 0 
L 2880 4147 
L 1101 4147 
L 1101 3392 
L 525 3392 
L 525 4672 
L 3494 4672 
L 3494 4134 
L 1843 0 
L 1216 0 
z
" transform="scale(0.015625)"/>
       </defs>
       <use xlink:href="#JetBrainsMono-Regular-2212"/>
       <use xlink:href="#JetBrainsMono-Regular-30" transform="translate(59.999985 0)"/>
       <use xlink:href="#JetBrainsMono-Regular-2e" transform="translate(119.999969 0)"/>
       <use xlink:href="#JetBrainsMono-Regular-30" transform="translate(179.999954 0)"/>
       <use xlink:href="#JetBrainsMono-Regular-30" transform="translate(239.999939 0)"/>
       <use xlink:href="#JetBrainsMono-Regular-32" transform="translate(299.999924 0)"/>
       <use xlink:href="#JetBrainsMono-Regular-37" transform="translate(359.999908 0)"/>
       <use xlink:href="#JetBrainsMono-Regular-35" transform="translate(419.999893 0)"/>
      </g>
     </g>
    </g>
    <g id="ytick_8">
     <g id="line2d_28">
      <g>
       <use xlink:href="#m6ffa20ebc6" x="79.551875" y="471.30199" style="stroke: #000000; stroke-width: 0.8"/>
      </g>
     </g>
     <g id="text_27">
      <!-- −0.00250 -->
      <g transform="translate(24.551875 474.95199) scale(0.1 -0.1)">
       <use xlink:href="#JetBrainsMono-Regular-2212"/>
       <use xlink:href="#JetBrainsMono-Regular-30" transform="translate(59.999985 0)"/>
       <use xlink:href="#JetBrainsMono-Regular-2e" transform="translate(119.999969 0)"/>
       <use xlink:href="#JetBrainsMono-Regular-30" transform="translate(179.999954 0)"/>
       <use xlink:href="#JetBrainsMono-Regular-30" transform="translate(239.999939 0)"/>
       <use xlink:href="#JetBrainsMono-Regular-32" transform="translate(299.999924 0)"/>
       <use xlink:href="#JetBrainsMono-Regular-35" transform="translate(359.999908 0)"/>
       <use xlink:href="#JetBrainsMono-Regular-30" transform="translate(419.999893 0)"/>
      </g>
     </g>
    </g>
    <g id="ytick_9">
     <g id="line2d_29">
      <g>
       <use xlink:href="#m6ffa20ebc6" x="79.551875" y="445.69323" style="stroke: #000000; stroke-width: 0.8"/>
      </g>
     </g>
     <g id="text_28">
      <!-- −0.00225 -->
      <g transform="translate(24.551875 449.34323) scale(0.1 -0.1)">
       <use xlink:href="#JetBrainsMono-Regular-2212"/>
       <use xlink:href="#JetBrainsMono-Regular-30" transform="translate(59.999985 0)"/>
       <use xlink:href="#JetBrainsMono-Regular-2e" transform="translate(119.999969 0)"/>
       <use xlink:href="#JetBrainsMono-Regular-30" transform="translate(179.999954 0)"/>
       <use xlink:href="#JetBrainsMono-Regular-30" transform="translate(239.999939 0)"/>
       <use xlink:href="#JetBrainsMono-Regular-32" transform="translate(299.999924 0)"/>
       <use xlink:href="#JetBrainsMono-Regular-32" transform="translate(359.999908 0)"/>
       <use xlink:href="#JetBrainsMono-Regular-35" transform="translate(419.999893 0)"/>
      </g>
     </g>
    </g>
    <g id="ytick_10">
     <g id="line2d_30">
      <g>
       <use xlink:href="#m6ffa20ebc6" x="79.551875" y="420.08447" style="stroke: #000000; stroke-width: 0.8"/>
      </g>
     </g>
     <g id="text_29">
      <!-- −0.00200 -->
      <g transform="translate(24.551875 423.73447) scale(0.1 -0.1)">
       <use xlink:href="#JetBrainsMono-Regular-2212"/>
       <use xlink:href="#JetBrainsMono-Regular-30" transform="translate(59.999985 0)"/>
       <use xlink:href="#JetBrainsMono-Regular-2e" transform="translate(119.999969 0)"/>
       <use xlink:href="#JetBrainsMono-Regular-30" transform="translate(179.999954 0)"/>
       <use xlink:href="#JetBrainsMono-Regular-30" transform="translate(239.999939 0)"/>
       <use xlink:href="#JetBrainsMono-Regular-32" transform="translate(299.999924 0)"/>
       <use xlink:href="#JetBrainsMono-Regular-30" transform="translate(359.999908 0)"/>
       <use xlink:href="#JetBrainsMono-Regular-30" transform="translate(419.999893 0)"/>
      </g>
     </g>
    </g>
    <g id="ytick_11">
     <g id="line2d_31">
      <g>
       <use xlink:href="#m6ffa20ebc6" x="79.551875" y="394.47571" style="stroke: #000000; stroke-width: 0.8"/>
      </g>
     </g>
     <g id="text_30">
      <!-- −0.00175 -->
      <g transform="translate(24.551875 398.12571) scale(0.1 -0.1)">
       <use xlink:href="#JetBrainsMono-Regular-2212"/>
       <use xlink:href="#JetBrainsMono-Regular-30" transform="translate(59.999985 0)"/>
       <use xlink:href="#JetBrainsMono-Regular-2e" transform="translate(119.999969 0)"/>
       <use xlink:href="#JetBrainsMono-Regular-30" transform="translate(179.999954 0)"/>
       <use xlink:href="#JetBrainsMono-Regular-30" transform="translate(239.999939 0)"/>
       <use xlink:href="#JetBrainsMono-Regular-31" transform="translate(299.999924 0)"/>
       <use xlink:href="#JetBrainsMono-Regular-37" transform="translate(359.999908 0)"/>
       <use xlink:href="#JetBrainsMono-Regular-35" transform="translate(419.999893 0)"/>
      </g>
     </g>
    </g>
    <g id="ytick_12">
     <g id="line2d_32">
      <g>
       <use xlink:href="#m6ffa20ebc6" x="79.551875" y="368.866951" style="stroke: #000000; stroke-width: 0.8"/>
      </g>
     </g>
     <g id="text_31">
      <!-- −0.00150 -->
      <g transform="translate(24.551875 372.516951) scale(0.1 -0.1)">
       <use xlink:href="#JetBrainsMono-Regular-2212"/>
       <use xlink:href="#JetBrainsMono-Regular-30" transform="translate(59.999985 0)"/>
       <use xlink:href="#JetBrainsMono-Regular-2e" transform="translate(119.999969 0)"/>
       <use xlink:href="#JetBrainsMono-Regular-30" transform="translate(179.999954 0)"/>
       <use xlink:href="#JetBrainsMono-Regular-30" transform="translate(239.999939 0)"/>
       <use xlink:href="#JetBrainsMono-Regular-31" transform="translate(299.999924 0)"/>
       <use xlink:href="#JetBrainsMono-Regular-35" transform="translate(359.999908 0)"/>
       <use xlink:href="#JetBrainsMono-Regular-30" transform="translate(419.999893 0)"/>
      </g>
     </g>
    </g>
    <g id="ytick_13">
     <g id="line2d_33">
      <g>
       <use xlink:href="#m6ffa20ebc6" x="79.551875" y="343.258191" style="stroke: #000000; stroke-width: 0.8"/>
      </g>
     </g>
     <g id="text_32">
      <!-- −0.00125 -->
      <g transform="translate(24.551875 346.908191) scale(0.1 -0.1)">
       <use xlink:href="#JetBrainsMono-Regular-2212"/>
       <use xlink:href="#JetBrainsMono-Regular-30" transform="translate(59.999985 0)"/>
       <use xlink:href="#JetBrainsMono-Regular-2e" transform="translate(119.999969 0)"/>
       <use xlink:href="#JetBrainsMono-Regular-30" transform="translate(179.999954 0)"/>
       <use xlink:href="#JetBrainsMono-Regular-30" transform="translate(239.999939 0)"/>
       <use xlink:href="#JetBrainsMono-Regular-31" transform="translate(299.999924 0)"/>
       <use xlink:href="#JetBrainsMono-Regular-32" transform="translate(359.999908 0)"/>
       <use xlink:href="#JetBrainsMono-Regular-35" transform="translate(419.999893 0)"/>
      </g>
     </g>
    </g>
    <g id="ytick_14">
     <g id="line2d_34">
      <g>
       <use xlink:href="#m6ffa20ebc6" x="79.551875" y="317.649431" style="stroke: #000000; stroke-width: 0.8"/>
      </g>
     </g>
     <g id="text_33">
      <!-- −0.00100 -->
      <g transform="translate(24.551875 321.299431) scale(0.1 -0.1)">
       <use xlink:href="#JetBrainsMono-Regular-2212"/>
       <use xlink:href="#JetBrainsMono-Regular-30" transform="translate(59.999985 0)"/>
       <use xlink:href="#JetBrainsMono-Regular-2e" transform="translate(119.999969 0)"/>
       <use xlink:href="#JetBrainsMono-Regular-30" transform="translate(179.999954 0)"/>
       <use xlink:href="#JetBrainsMono-Regular-30" transform="translate(239.999939 0)"/>
       <use xlink:href="#JetBrainsMono-Regular-31" transform="translate(299.999924 0)"/>
       <use xlink:href="#JetBrainsMono-Regular-30" transform="translate(359.999908 0)"/>
       <use xlink:href="#JetBrainsMono-Regular-30" transform="translate(419.999893 0)"/>
      </g>
     </g>
    </g>
    <g id="text_34">
     <!-- Current (nA) -->
     <g transform="translate(18.751875 445.576094) rotate(-90) scale(0.1 -0.1)">
      <defs>
       <path id="JetBrainsMono-Regular-43" d="M 1971 -64 
Q 1331 -64 960 294 
Q 589 653 589 1280 
L 589 3392 
Q 589 4019 960 4377 
Q 1331 4736 1971 4736 
Q 2598 4736 2969 4374 
Q 3341 4013 3341 3392 
L 2765 3392 
Q 2765 3789 2557 4003 
Q 2349 4218 1971 4218 
Q 1594 4218 1379 4003 
Q 1165 3789 1165 3392 
L 1165 1280 
Q 1165 883 1379 668 
Q 1594 454 1971 454 
Q 2349 454 2557 668 
Q 2765 883 2765 1280 
L 3341 1280 
Q 3341 659 2969 297 
Q 2598 -64 1971 -64 
z
" transform="scale(0.015625)"/>
      </defs>
      <use xlink:href="#JetBrainsMono-Regular-43"/>
      <use xlink:href="#JetBrainsMono-Regular-75" transform="translate(59.999985 0)"/>
      <use xlink:href="#JetBrainsMono-Regular-72" transform="translate(119.999969 0)"/>
      <use xlink:href="#JetBrainsMono-Regular-72" transform="translate(179.999954 0)"/>
      <use xlink:href="#JetBrainsMono-Regular-65" transform="translate(239.999939 0)"/>
      <use xlink:href="#JetBrainsMono-Regular-6e" transform="translate(299.999924 0)"/>
      <use xlink:href="#JetBrainsMono-Regular-74" transform="translate(359.999908 0)"/>
      <use xlink:href="#JetBrainsMono-Regular-20" transform="translate(419.999893 0)"/>
      <use xlink:href="#JetBrainsMono-Regular-28" transform="translate(479.999878 0)"/>
      <use xlink:href="#JetBrainsMono-Regular-6e" transform="translate(539.999863 0)"/>
      <use xlink:href="#JetBrainsMono-Regular-41" transform="translate(599.999847 0)"/>
      <use xlink:href="#JetBrainsMono-Regular-29" transform="translate(659.999832 0)"/>
     </g>
    </g>
   </g>
   <g id="line2d_35">
    <path d="M 114.717699 340.190997 
L 131.526963 340.301566 
L 171.12368 340.861264 
L 233.085862 341.656241 
L 256.365637 341.982731 
L 256.857959 342.440682 
L 257.420612 343.285701 
L 258.053597 344.642006 
L 258.827245 346.898179 
L 259.671225 350.075929 
L 260.585536 354.363975 
L 261.640511 360.453237 
L 262.695486 367.846177 
L 265.368088 387.84076 
L 267.829696 404.622814 
L 270.15064 418.953468 
L 272.401253 431.484849 
L 274.581534 442.376239 
L 276.691484 451.799323 
L 278.731101 459.924481 
L 280.770719 467.147579 
L 282.740005 473.328924 
L 284.709291 478.793346 
L 286.678578 483.600752 
L 288.577532 487.668138 
L 290.476487 491.227098 
L 292.375441 494.323544 
L 294.274396 497.000156 
L 296.17335 499.29632 
L 298.072304 501.248158 
L 299.971259 502.88863 
L 301.940545 504.292968 
L 303.909831 505.424798 
L 305.949449 506.338671 
L 308.059398 507.035698 
L 310.23968 507.51843 
L 312.490292 507.790569 
L 314.881568 507.855537 
L 317.413508 507.700912 
L 320.156442 507.30439 
L 323.040039 506.6616 
L 326.204964 505.72263 
L 329.580883 504.485872 
L 333.238128 502.907485 
L 337.247032 500.92949 
L 341.607594 498.522304 
L 346.319815 495.660608 
L 351.383693 492.322596 
L 356.869562 488.438023 
L 362.847752 483.926893 
L 369.318264 478.759283 
L 376.351428 472.851448 
L 388.307809 462.427435 
L 407.860007 445.161185 
L 445.346775 411.948531 
L 457.584482 401.475577 
L 465.602289 394.86637 
L 472.635454 389.383691 
L 480.16094 383.799312 
L 488.038085 378.231159 
L 496.055893 372.833986 
L 504.144032 367.654696 
L 512.302503 362.694245 
L 520.460975 357.995141 
L 528.549114 353.591509 
L 536.637254 349.438448 
L 544.795725 345.499078 
L 552.532206 342.00368 
L 559.284044 339.208546 
L 566.598536 336.424464 
L 574.335017 333.718743 
L 582.493488 331.101827 
L 591.003617 328.606767 
L 599.795073 326.261079 
L 608.867856 324.070182 
L 618.221965 322.039944 
L 627.857401 320.176002 
L 637.844495 318.472116 
L 648.112915 316.94662 
L 658.732994 315.594149 
L 669.775063 314.413872 
L 681.239121 313.414389 
L 693.12517 312.602491 
L 705.573871 311.977331 
L 718.585226 311.549216 
L 732.229566 311.325334 
L 746.577222 311.31459 
L 761.768858 311.528405 
L 777.874805 311.979818 
L 795.106059 312.68748 
L 813.743946 313.67857 
L 818.034176 313.936111 
L 818.034176 313.936111 
" clip-path="url(#p24f0eb622c)" style="fill: none; stroke: #800080; stroke-width: 1.5; stroke-linecap: square"/>
   </g>
   <g id="line2d_36">
    <path d="M 255.380994 517.688125 
L 255.380994 301.464062 
" clip-path="url(#p24f0eb622c)" style="fill: none; stroke-dasharray: 5.55,2.4; stroke-dashoffset: 0; stroke: #ff0000; stroke-width: 1.5"/>
   </g>
   <g id="line2d_37">
    <path d="M 262.414159 517.688125 
L 262.414159 301.464062 
" clip-path="url(#p24f0eb622c)" style="fill: none; stroke-dasharray: 5.55,2.4; stroke-dashoffset: 0; stroke: #008000; stroke-width: 1.5"/>
   </g>
   <g id="patch_9">
    <path d="M 79.551875 517.688125 
L 79.551875 301.464062 
" style="fill: none; stroke: #000000; stroke-width: 0.8; stroke-linejoin: miter; stroke-linecap: square"/>
   </g>
   <g id="patch_10">
    <path d="M 853.2 517.688125 
L 853.2 301.464062 
" style="fill: none; stroke: #000000; stroke-width: 0.8; stroke-linejoin: miter; stroke-linecap: square"/>
   </g>
   <g id="patch_11">
    <path d="M 79.551875 517.688125 
L 853.2 517.688125 
" style="fill: none; stroke: #000000; stroke-width: 0.8; stroke-linejoin: miter; stroke-linecap: square"/>
   </g>
   <g id="patch_12">
    <path d="M 79.551875 301.464062 
L 853.2 301.464062 
" style="fill: none; stroke: #000000; stroke-width: 0.8; stroke-linejoin: miter; stroke-linecap: square"/>
   </g>
   <g id="text_35">
    <!-- Sodium Current -->
    <g transform="translate(415.975938 295.464062) scale(0.12 -0.12)">
     <use xlink:href="#JetBrainsMono-Regular-53"/>
     <use xlink:href="#JetBrainsMono-Regular-6f" transform="translate(59.999985 0)"/>
     <use xlink:href="#JetBrainsMono-Regular-64" transform="translate(119.999969 0)"/>
     <use xlink:href="#JetBrainsMono-Regular-69" transform="translate(179.999954 0)"/>
     <use xlink:href="#JetBrainsMono-Regular-75" transform="translate(239.999939 0)"/>
     <use xlink:href="#JetBrainsMono-Regular-6d" transform="translate(299.999924 0)"/>
     <use xlink:href="#JetBrainsMono-Regular-20" transform="translate(359.999908 0)"/>
     <use xlink:href="#JetBrainsMono-Regular-43" transform="translate(419.999893 0)"/>
     <use xlink:href="#JetBrainsMono-Regular-75" transform="translate(479.999878 0)"/>
     <use xlink:href="#JetBrainsMono-Regular-72" transform="translate(539.999863 0)"/>
     <use xlink:href="#JetBrainsMono-Regular-72" transform="translate(599.999847 0)"/>
     <use xlink:href="#JetBrainsMono-Regular-65" transform="translate(659.999832 0)"/>
     <use xlink:href="#JetBrainsMono-Regular-6e" transform="translate(719.999817 0)"/>
     <use xlink:href="#JetBrainsMono-Regular-74" transform="translate(779.999802 0)"/>
    </g>
   </g>
   <g id="legend_2">
    <g id="patch_13">
     <path d="M 86.551875 512.688125 
L 202.551875 512.688125 
Q 204.551875 512.688125 204.551875 510.688125 
L 204.551875 469.388125 
Q 204.551875 467.388125 202.551875 467.388125 
L 86.551875 467.388125 
Q 84.551875 467.388125 84.551875 469.388125 
L 84.551875 510.688125 
Q 84.551875 512.688125 86.551875 512.688125 
z
" style="fill: #ffffff; opacity: 0.8; stroke: #cccccc; stroke-linejoin: miter"/>
    </g>
    <g id="line2d_38">
     <path d="M 88.551875 475.188125 
L 98.551875 475.188125 
L 108.551875 475.188125 
" style="fill: none; stroke: #800080; stroke-width: 1.5; stroke-linecap: square"/>
    </g>
    <g id="text_36">
     <!-- Sodium Current -->
     <g transform="translate(116.551875 478.688125) scale(0.1 -0.1)">
      <use xlink:href="#JetBrainsMono-Regular-53"/>
      <use xlink:href="#JetBrainsMono-Regular-6f" transform="translate(59.999985 0)"/>
      <use xlink:href="#JetBrainsMono-Regular-64" transform="translate(119.999969 0)"/>
      <use xlink:href="#JetBrainsMono-Regular-69" transform="translate(179.999954 0)"/>
      <use xlink:href="#JetBrainsMono-Regular-75" transform="translate(239.999939 0)"/>
      <use xlink:href="#JetBrainsMono-Regular-6d" transform="translate(299.999924 0)"/>
      <use xlink:href="#JetBrainsMono-Regular-20" transform="translate(359.999908 0)"/>
      <use xlink:href="#JetBrainsMono-Regular-43" transform="translate(419.999893 0)"/>
      <use xlink:href="#JetBrainsMono-Regular-75" transform="translate(479.999878 0)"/>
      <use xlink:href="#JetBrainsMono-Regular-72" transform="translate(539.999863 0)"/>
      <use xlink:href="#JetBrainsMono-Regular-72" transform="translate(599.999847 0)"/>
      <use xlink:href="#JetBrainsMono-Regular-65" transform="translate(659.999832 0)"/>
      <use xlink:href="#JetBrainsMono-Regular-6e" transform="translate(719.999817 0)"/>
      <use xlink:href="#JetBrainsMono-Regular-74" transform="translate(779.999802 0)"/>
     </g>
    </g>
    <g id="line2d_39">
     <path d="M 88.551875 489.288125 
L 98.551875 489.288125 
L 108.551875 489.288125 
" style="fill: none; stroke-dasharray: 5.55,2.4; stroke-dashoffset: 0; stroke: #ff0000; stroke-width: 1.5"/>
    </g>
    <g id="text_37">
     <!-- Stimulus Start -->
     <g transform="translate(116.551875 492.788125) scale(0.1 -0.1)">
      <use xlink:href="#JetBrainsMono-Regular-53"/>
      <use xlink:href="#JetBrainsMono-Regular-74" transform="translate(59.999985 0)"/>
      <use xlink:href="#JetBrainsMono-Regular-69" transform="translate(119.999969 0)"/>
      <use xlink:href="#JetBrainsMono-Regular-6d" transform="translate(179.999954 0)"/>
      <use xlink:href="#JetBrainsMono-Regular-75" transform="translate(239.999939 0)"/>
      <use xlink:href="#JetBrainsMono-Regular-6c" transform="translate(299.999924 0)"/>
      <use xlink:href="#JetBrainsMono-Regular-75" transform="translate(359.999908 0)"/>
      <use xlink:href="#JetBrainsMono-Regular-73" transform="translate(419.999893 0)"/>
      <use xlink:href="#JetBrainsMono-Regular-20" transform="translate(479.999878 0)"/>
      <use xlink:href="#JetBrainsMono-Regular-53" transform="translate(539.999863 0)"/>
      <use xlink:href="#JetBrainsMono-Regular-74" transform="translate(599.999847 0)"/>
      <use xlink:href="#JetBrainsMono-Regular-61" transform="translate(659.999832 0)"/>
      <use xlink:href="#JetBrainsMono-Regular-72" transform="translate(719.999817 0)"/>
      <use xlink:href="#JetBrainsMono-Regular-74" transform="translate(779.999802 0)"/>
     </g>
    </g>
    <g id="line2d_40">
     <path d="M 88.551875 503.388125 
L 98.551875 503.388125 
L 108.551875 503.388125 
" style="fill: none; stroke-dasharray: 5.55,2.4; stroke-dashoffset: 0; stroke: #008000; stroke-width: 1.5"/>
    </g>
    <g id="text_38">
     <!-- Stimulus End -->
     <g transform="translate(116.551875 506.888125) scale(0.1 -0.1)">
      <use xlink:href="#JetBrainsMono-Regular-53"/>
      <use xlink:href="#JetBrainsMono-Regular-74" transform="translate(59.999985 0)"/>
      <use xlink:href="#JetBrainsMono-Regular-69" transform="translate(119.999969 0)"/>
      <use xlink:href="#JetBrainsMono-Regular-6d" transform="translate(179.999954 0)"/>
      <use xlink:href="#JetBrainsMono-Regular-75" transform="translate(239.999939 0)"/>
      <use xlink:href="#JetBrainsMono-Regular-6c" transform="translate(299.999924 0)"/>
      <use xlink:href="#JetBrainsMono-Regular-75" transform="translate(359.999908 0)"/>
      <use xlink:href="#JetBrainsMono-Regular-73" transform="translate(419.999893 0)"/>
      <use xlink:href="#JetBrainsMono-Regular-20" transform="translate(479.999878 0)"/>
      <use xlink:href="#JetBrainsMono-Regular-45" transform="translate(539.999863 0)"/>
      <use xlink:href="#JetBrainsMono-Regular-6e" transform="translate(599.999847 0)"/>
      <use xlink:href="#JetBrainsMono-Regular-64" transform="translate(659.999832 0)"/>
     </g>
    </g>
   </g>
  </g>
 </g>
 <defs>
  <clipPath id="pd7f3e85fd6">
   <rect x="79.551875" y="43.08" width="773.648125" height="216.224062"/>
  </clipPath>
  <clipPath id="p24f0eb622c">
   <rect x="79.551875" y="301.464062" width="773.648125" height="216.224062"/>
  </clipPath>
 </defs>
</svg>
