<?xml version="1.0" encoding="utf-8" standalone="no"?>
<!DOCTYPE svg PUBLIC "-//W3C//DTD SVG 1.1//EN"
  "http://www.w3.org/Graphics/SVG/1.1/DTD/svg11.dtd">
<svg xmlns:xlink="http://www.w3.org/1999/xlink" width="720pt" height="432pt" viewBox="0 0 720 432" xmlns="http://www.w3.org/2000/svg" version="1.1">
 <metadata>
  <rdf:RDF xmlns:dc="http://purl.org/dc/elements/1.1/" xmlns:cc="http://creativecommons.org/ns#" xmlns:rdf="http://www.w3.org/1999/02/22-rdf-syntax-ns#">
   <cc:Work>
    <dc:type rdf:resource="http://purl.org/dc/dcmitype/StillImage"/>
    <dc:date>1980-01-01T00:00:00+00:00</dc:date>
    <dc:format>image/svg+xml</dc:format>
    <dc:creator>
     <cc:Agent>
      <dc:title>Matplotlib v3.10.1, https://matplotlib.org/</dc:title>
     </cc:Agent>
    </dc:creator>
   </cc:Work>
  </rdf:RDF>
 </metadata>
 <defs>
  <style type="text/css">*{stroke-linejoin: round; stroke-linecap: butt}</style>
 </defs>
 <g id="figure_1">
  <g id="patch_1">
   <path d="M 0 432 
L 720 432 
L 720 0 
L 0 0 
z
" style="fill: #ffffff"/>
  </g>
  <g id="axes_1">
   <g id="patch_2">
    <path d="M 62.48 352.512 
L 709.2 352.512 
L 709.2 26.16 
L 62.48 26.16 
z
" style="fill: #ffffff"/>
   </g>
   <g id="matplotlib.axis_1">
    <g id="xtick_1">
     <g id="line2d_1">
      <path d="M 91.876364 352.512 
L 91.876364 26.16 
" clip-path="url(#pe551882b14)" style="fill: none; stroke-dasharray: 2.96,1.28; stroke-dashoffset: 0; stroke: #b0b0b0; stroke-opacity: 0.7; stroke-width: 0.8"/>
     </g>
     <g id="line2d_2">
      <defs>
       <path id="ma149e930d0" d="M 0 0 
L 0 3.5 
" style="stroke: #000000; stroke-width: 0.8"/>
      </defs>
      <g>
       <use xlink:href="#ma149e930d0" x="91.876364" y="352.512" style="stroke: #000000; stroke-width: 0.8"/>
      </g>
     </g>
     <g id="text_1">
      <!-- 0.0 -->
      <g transform="translate(83.924801 367.110437) scale(0.1 -0.1)">
       <defs>
        <path id="DejaVuSans-30" d="M 2034 4250 
Q 1547 4250 1301 3770 
Q 1056 3291 1056 2328 
Q 1056 1369 1301 889 
Q 1547 409 2034 409 
Q 2525 409 2770 889 
Q 3016 1369 3016 2328 
Q 3016 3291 2770 3770 
Q 2525 4250 2034 4250 
z
M 2034 4750 
Q 2819 4750 3233 4129 
Q 3647 3509 3647 2328 
Q 3647 1150 3233 529 
Q 2819 -91 2034 -91 
Q 1250 -91 836 529 
Q 422 1150 422 2328 
Q 422 3509 836 4129 
Q 1250 4750 2034 4750 
z
" transform="scale(0.015625)"/>
        <path id="DejaVuSans-2e" d="M 684 794 
L 1344 794 
L 1344 0 
L 684 0 
L 684 794 
z
" transform="scale(0.015625)"/>
       </defs>
       <use xlink:href="#DejaVuSans-30"/>
       <use xlink:href="#DejaVuSans-2e" transform="translate(63.623047 0)"/>
       <use xlink:href="#DejaVuSans-30" transform="translate(95.410156 0)"/>
      </g>
     </g>
    </g>
    <g id="xtick_2">
     <g id="line2d_3">
      <path d="M 165.367273 352.512 
L 165.367273 26.16 
" clip-path="url(#pe551882b14)" style="fill: none; stroke-dasharray: 2.96,1.28; stroke-dashoffset: 0; stroke: #b0b0b0; stroke-opacity: 0.7; stroke-width: 0.8"/>
     </g>
     <g id="line2d_4">
      <g>
       <use xlink:href="#ma149e930d0" x="165.367273" y="352.512" style="stroke: #000000; stroke-width: 0.8"/>
      </g>
     </g>
     <g id="text_2">
      <!-- 2.5 -->
      <g transform="translate(157.41571 367.110437) scale(0.1 -0.1)">
       <defs>
        <path id="DejaVuSans-32" d="M 1228 531 
L 3431 531 
L 3431 0 
L 469 0 
L 469 531 
Q 828 903 1448 1529 
Q 2069 2156 2228 2338 
Q 2531 2678 2651 2914 
Q 2772 3150 2772 3378 
Q 2772 3750 2511 3984 
Q 2250 4219 1831 4219 
Q 1534 4219 1204 4116 
Q 875 4013 500 3803 
L 500 4441 
Q 881 4594 1212 4672 
Q 1544 4750 1819 4750 
Q 2544 4750 2975 4387 
Q 3406 4025 3406 3419 
Q 3406 3131 3298 2873 
Q 3191 2616 2906 2266 
Q 2828 2175 2409 1742 
Q 1991 1309 1228 531 
z
" transform="scale(0.015625)"/>
        <path id="DejaVuSans-35" d="M 691 4666 
L 3169 4666 
L 3169 4134 
L 1269 4134 
L 1269 2991 
Q 1406 3038 1543 3061 
Q 1681 3084 1819 3084 
Q 2600 3084 3056 2656 
Q 3513 2228 3513 1497 
Q 3513 744 3044 326 
Q 2575 -91 1722 -91 
Q 1428 -91 1123 -41 
Q 819 9 494 109 
L 494 744 
Q 775 591 1075 516 
Q 1375 441 1709 441 
Q 2250 441 2565 725 
Q 2881 1009 2881 1497 
Q 2881 1984 2565 2268 
Q 2250 2553 1709 2553 
Q 1456 2553 1204 2497 
Q 953 2441 691 2322 
L 691 4666 
z
" transform="scale(0.015625)"/>
       </defs>
       <use xlink:href="#DejaVuSans-32"/>
       <use xlink:href="#DejaVuSans-2e" transform="translate(63.623047 0)"/>
       <use xlink:href="#DejaVuSans-35" transform="translate(95.410156 0)"/>
      </g>
     </g>
    </g>
    <g id="xtick_3">
     <g id="line2d_5">
      <path d="M 238.858182 352.512 
L 238.858182 26.16 
" clip-path="url(#pe551882b14)" style="fill: none; stroke-dasharray: 2.96,1.28; stroke-dashoffset: 0; stroke: #b0b0b0; stroke-opacity: 0.7; stroke-width: 0.8"/>
     </g>
     <g id="line2d_6">
      <g>
       <use xlink:href="#ma149e930d0" x="238.858182" y="352.512" style="stroke: #000000; stroke-width: 0.8"/>
      </g>
     </g>
     <g id="text_3">
      <!-- 5.0 -->
      <g transform="translate(230.906619 367.110437) scale(0.1 -0.1)">
       <use xlink:href="#DejaVuSans-35"/>
       <use xlink:href="#DejaVuSans-2e" transform="translate(63.623047 0)"/>
       <use xlink:href="#DejaVuSans-30" transform="translate(95.410156 0)"/>
      </g>
     </g>
    </g>
    <g id="xtick_4">
     <g id="line2d_7">
      <path d="M 312.349091 352.512 
L 312.349091 26.16 
" clip-path="url(#pe551882b14)" style="fill: none; stroke-dasharray: 2.96,1.28; stroke-dashoffset: 0; stroke: #b0b0b0; stroke-opacity: 0.7; stroke-width: 0.8"/>
     </g>
     <g id="line2d_8">
      <g>
       <use xlink:href="#ma149e930d0" x="312.349091" y="352.512" style="stroke: #000000; stroke-width: 0.8"/>
      </g>
     </g>
     <g id="text_4">
      <!-- 7.5 -->
      <g transform="translate(304.397528 367.110437) scale(0.1 -0.1)">
       <defs>
        <path id="DejaVuSans-37" d="M 525 4666 
L 3525 4666 
L 3525 4397 
L 1831 0 
L 1172 0 
L 2766 4134 
L 525 4134 
L 525 4666 
z
" transform="scale(0.015625)"/>
       </defs>
       <use xlink:href="#DejaVuSans-37"/>
       <use xlink:href="#DejaVuSans-2e" transform="translate(63.623047 0)"/>
       <use xlink:href="#DejaVuSans-35" transform="translate(95.410156 0)"/>
      </g>
     </g>
    </g>
    <g id="xtick_5">
     <g id="line2d_9">
      <path d="M 385.84 352.512 
L 385.84 26.16 
" clip-path="url(#pe551882b14)" style="fill: none; stroke-dasharray: 2.96,1.28; stroke-dashoffset: 0; stroke: #b0b0b0; stroke-opacity: 0.7; stroke-width: 0.8"/>
     </g>
     <g id="line2d_10">
      <g>
       <use xlink:href="#ma149e930d0" x="385.84" y="352.512" style="stroke: #000000; stroke-width: 0.8"/>
      </g>
     </g>
     <g id="text_5">
      <!-- 10.0 -->
      <g transform="translate(374.707188 367.110437) scale(0.1 -0.1)">
       <defs>
        <path id="DejaVuSans-31" d="M 794 531 
L 1825 531 
L 1825 4091 
L 703 3866 
L 703 4441 
L 1819 4666 
L 2450 4666 
L 2450 531 
L 3481 531 
L 3481 0 
L 794 0 
L 794 531 
z
" transform="scale(0.015625)"/>
       </defs>
       <use xlink:href="#DejaVuSans-31"/>
       <use xlink:href="#DejaVuSans-30" transform="translate(63.623047 0)"/>
       <use xlink:href="#DejaVuSans-2e" transform="translate(127.246094 0)"/>
       <use xlink:href="#DejaVuSans-30" transform="translate(159.033203 0)"/>
      </g>
     </g>
    </g>
    <g id="xtick_6">
     <g id="line2d_11">
      <path d="M 459.330909 352.512 
L 459.330909 26.16 
" clip-path="url(#pe551882b14)" style="fill: none; stroke-dasharray: 2.96,1.28; stroke-dashoffset: 0; stroke: #b0b0b0; stroke-opacity: 0.7; stroke-width: 0.8"/>
     </g>
     <g id="line2d_12">
      <g>
       <use xlink:href="#ma149e930d0" x="459.330909" y="352.512" style="stroke: #000000; stroke-width: 0.8"/>
      </g>
     </g>
     <g id="text_6">
      <!-- 12.5 -->
      <g transform="translate(448.198097 367.110437) scale(0.1 -0.1)">
       <use xlink:href="#DejaVuSans-31"/>
       <use xlink:href="#DejaVuSans-32" transform="translate(63.623047 0)"/>
       <use xlink:href="#DejaVuSans-2e" transform="translate(127.246094 0)"/>
       <use xlink:href="#DejaVuSans-35" transform="translate(159.033203 0)"/>
      </g>
     </g>
    </g>
    <g id="xtick_7">
     <g id="line2d_13">
      <path d="M 532.821818 352.512 
L 532.821818 26.16 
" clip-path="url(#pe551882b14)" style="fill: none; stroke-dasharray: 2.96,1.28; stroke-dashoffset: 0; stroke: #b0b0b0; stroke-opacity: 0.7; stroke-width: 0.8"/>
     </g>
     <g id="line2d_14">
      <g>
       <use xlink:href="#ma149e930d0" x="532.821818" y="352.512" style="stroke: #000000; stroke-width: 0.8"/>
      </g>
     </g>
     <g id="text_7">
      <!-- 15.0 -->
      <g transform="translate(521.689006 367.110437) scale(0.1 -0.1)">
       <use xlink:href="#DejaVuSans-31"/>
       <use xlink:href="#DejaVuSans-35" transform="translate(63.623047 0)"/>
       <use xlink:href="#DejaVuSans-2e" transform="translate(127.246094 0)"/>
       <use xlink:href="#DejaVuSans-30" transform="translate(159.033203 0)"/>
      </g>
     </g>
    </g>
    <g id="xtick_8">
     <g id="line2d_15">
      <path d="M 606.312727 352.512 
L 606.312727 26.16 
" clip-path="url(#pe551882b14)" style="fill: none; stroke-dasharray: 2.96,1.28; stroke-dashoffset: 0; stroke: #b0b0b0; stroke-opacity: 0.7; stroke-width: 0.8"/>
     </g>
     <g id="line2d_16">
      <g>
       <use xlink:href="#ma149e930d0" x="606.312727" y="352.512" style="stroke: #000000; stroke-width: 0.8"/>
      </g>
     </g>
     <g id="text_8">
      <!-- 17.5 -->
      <g transform="translate(595.179915 367.110437) scale(0.1 -0.1)">
       <use xlink:href="#DejaVuSans-31"/>
       <use xlink:href="#DejaVuSans-37" transform="translate(63.623047 0)"/>
       <use xlink:href="#DejaVuSans-2e" transform="translate(127.246094 0)"/>
       <use xlink:href="#DejaVuSans-35" transform="translate(159.033203 0)"/>
      </g>
     </g>
    </g>
    <g id="xtick_9">
     <g id="line2d_17">
      <path d="M 679.803636 352.512 
L 679.803636 26.16 
" clip-path="url(#pe551882b14)" style="fill: none; stroke-dasharray: 2.96,1.28; stroke-dashoffset: 0; stroke: #b0b0b0; stroke-opacity: 0.7; stroke-width: 0.8"/>
     </g>
     <g id="line2d_18">
      <g>
       <use xlink:href="#ma149e930d0" x="679.803636" y="352.512" style="stroke: #000000; stroke-width: 0.8"/>
      </g>
     </g>
     <g id="text_9">
      <!-- 20.0 -->
      <g transform="translate(668.670824 367.110437) scale(0.1 -0.1)">
       <use xlink:href="#DejaVuSans-32"/>
       <use xlink:href="#DejaVuSans-30" transform="translate(63.623047 0)"/>
       <use xlink:href="#DejaVuSans-2e" transform="translate(127.246094 0)"/>
       <use xlink:href="#DejaVuSans-30" transform="translate(159.033203 0)"/>
      </g>
     </g>
    </g>
    <g id="text_10">
     <!-- Time (ms) -->
     <g transform="translate(360.640781 380.788562) scale(0.1 -0.1)">
      <defs>
       <path id="DejaVuSans-54" d="M -19 4666 
L 3928 4666 
L 3928 4134 
L 2272 4134 
L 2272 0 
L 1638 0 
L 1638 4134 
L -19 4134 
L -19 4666 
z
" transform="scale(0.015625)"/>
       <path id="DejaVuSans-69" d="M 603 3500 
L 1178 3500 
L 1178 0 
L 603 0 
L 603 3500 
z
M 603 4863 
L 1178 4863 
L 1178 4134 
L 603 4134 
L 603 4863 
z
" transform="scale(0.015625)"/>
       <path id="DejaVuSans-6d" d="M 3328 2828 
Q 3544 3216 3844 3400 
Q 4144 3584 4550 3584 
Q 5097 3584 5394 3201 
Q 5691 2819 5691 2113 
L 5691 0 
L 5113 0 
L 5113 2094 
Q 5113 2597 4934 2840 
Q 4756 3084 4391 3084 
Q 3944 3084 3684 2787 
Q 3425 2491 3425 1978 
L 3425 0 
L 2847 0 
L 2847 2094 
Q 2847 2600 2669 2842 
Q 2491 3084 2119 3084 
Q 1678 3084 1418 2786 
Q 1159 2488 1159 1978 
L 1159 0 
L 581 0 
L 581 3500 
L 1159 3500 
L 1159 2956 
Q 1356 3278 1631 3431 
Q 1906 3584 2284 3584 
Q 2666 3584 2933 3390 
Q 3200 3197 3328 2828 
z
" transform="scale(0.015625)"/>
       <path id="DejaVuSans-65" d="M 3597 1894 
L 3597 1613 
L 953 1613 
Q 991 1019 1311 708 
Q 1631 397 2203 397 
Q 2534 397 2845 478 
Q 3156 559 3463 722 
L 3463 178 
Q 3153 47 2828 -22 
Q 2503 -91 2169 -91 
Q 1331 -91 842 396 
Q 353 884 353 1716 
Q 353 2575 817 3079 
Q 1281 3584 2069 3584 
Q 2775 3584 3186 3129 
Q 3597 2675 3597 1894 
z
M 3022 2063 
Q 3016 2534 2758 2815 
Q 2500 3097 2075 3097 
Q 1594 3097 1305 2825 
Q 1016 2553 972 2059 
L 3022 2063 
z
" transform="scale(0.015625)"/>
       <path id="DejaVuSans-20" transform="scale(0.015625)"/>
       <path id="DejaVuSans-28" d="M 1984 4856 
Q 1566 4138 1362 3434 
Q 1159 2731 1159 2009 
Q 1159 1288 1364 580 
Q 1569 -128 1984 -844 
L 1484 -844 
Q 1016 -109 783 600 
Q 550 1309 550 2009 
Q 550 2706 781 3412 
Q 1013 4119 1484 4856 
L 1984 4856 
z
" transform="scale(0.015625)"/>
       <path id="DejaVuSans-73" d="M 2834 3397 
L 2834 2853 
Q 2591 2978 2328 3040 
Q 2066 3103 1784 3103 
Q 1356 3103 1142 2972 
Q 928 2841 928 2578 
Q 928 2378 1081 2264 
Q 1234 2150 1697 2047 
L 1894 2003 
Q 2506 1872 2764 1633 
Q 3022 1394 3022 966 
Q 3022 478 2636 193 
Q 2250 -91 1575 -91 
Q 1294 -91 989 -36 
Q 684 19 347 128 
L 347 722 
Q 666 556 975 473 
Q 1284 391 1588 391 
Q 1994 391 2212 530 
Q 2431 669 2431 922 
Q 2431 1156 2273 1281 
Q 2116 1406 1581 1522 
L 1381 1569 
Q 847 1681 609 1914 
Q 372 2147 372 2553 
Q 372 3047 722 3315 
Q 1072 3584 1716 3584 
Q 2034 3584 2315 3537 
Q 2597 3491 2834 3397 
z
" transform="scale(0.015625)"/>
       <path id="DejaVuSans-29" d="M 513 4856 
L 1013 4856 
Q 1481 4119 1714 3412 
Q 1947 2706 1947 2009 
Q 1947 1309 1714 600 
Q 1481 -109 1013 -844 
L 513 -844 
Q 928 -128 1133 580 
Q 1338 1288 1338 2009 
Q 1338 2731 1133 3434 
Q 928 4138 513 4856 
z
" transform="scale(0.015625)"/>
      </defs>
      <use xlink:href="#DejaVuSans-54"/>
      <use xlink:href="#DejaVuSans-69" transform="translate(57.958984 0)"/>
      <use xlink:href="#DejaVuSans-6d" transform="translate(85.742188 0)"/>
      <use xlink:href="#DejaVuSans-65" transform="translate(183.154297 0)"/>
      <use xlink:href="#DejaVuSans-20" transform="translate(244.677734 0)"/>
      <use xlink:href="#DejaVuSans-28" transform="translate(276.464844 0)"/>
      <use xlink:href="#DejaVuSans-6d" transform="translate(315.478516 0)"/>
      <use xlink:href="#DejaVuSans-73" transform="translate(412.890625 0)"/>
      <use xlink:href="#DejaVuSans-29" transform="translate(464.990234 0)"/>
     </g>
    </g>
   </g>
   <g id="matplotlib.axis_2">
    <g id="ytick_1">
     <g id="line2d_19">
      <path d="M 62.48 321.420188 
L 709.2 321.420188 
" clip-path="url(#pe551882b14)" style="fill: none; stroke-dasharray: 2.96,1.28; stroke-dashoffset: 0; stroke: #b0b0b0; stroke-opacity: 0.7; stroke-width: 0.8"/>
     </g>
     <g id="line2d_20">
      <defs>
       <path id="mdd302c9a31" d="M 0 0 
L -3.5 0 
" style="stroke: #000000; stroke-width: 0.8"/>
      </defs>
      <g>
       <use xlink:href="#mdd302c9a31" x="62.48" y="321.420188" style="stroke: #000000; stroke-width: 0.8"/>
      </g>
     </g>
     <g id="text_11">
      <!-- −65.5 -->
      <g transform="translate(24.834688 325.219406) scale(0.1 -0.1)">
       <defs>
        <path id="DejaVuSans-2212" d="M 678 2272 
L 4684 2272 
L 4684 1741 
L 678 1741 
L 678 2272 
z
" transform="scale(0.015625)"/>
        <path id="DejaVuSans-36" d="M 2113 2584 
Q 1688 2584 1439 2293 
Q 1191 2003 1191 1497 
Q 1191 994 1439 701 
Q 1688 409 2113 409 
Q 2538 409 2786 701 
Q 3034 994 3034 1497 
Q 3034 2003 2786 2293 
Q 2538 2584 2113 2584 
z
M 3366 4563 
L 3366 3988 
Q 3128 4100 2886 4159 
Q 2644 4219 2406 4219 
Q 1781 4219 1451 3797 
Q 1122 3375 1075 2522 
Q 1259 2794 1537 2939 
Q 1816 3084 2150 3084 
Q 2853 3084 3261 2657 
Q 3669 2231 3669 1497 
Q 3669 778 3244 343 
Q 2819 -91 2113 -91 
Q 1303 -91 875 529 
Q 447 1150 447 2328 
Q 447 3434 972 4092 
Q 1497 4750 2381 4750 
Q 2619 4750 2861 4703 
Q 3103 4656 3366 4563 
z
" transform="scale(0.015625)"/>
       </defs>
       <use xlink:href="#DejaVuSans-2212"/>
       <use xlink:href="#DejaVuSans-36" transform="translate(83.789062 0)"/>
       <use xlink:href="#DejaVuSans-35" transform="translate(147.412109 0)"/>
       <use xlink:href="#DejaVuSans-2e" transform="translate(211.035156 0)"/>
       <use xlink:href="#DejaVuSans-35" transform="translate(242.822266 0)"/>
      </g>
     </g>
    </g>
    <g id="ytick_2">
     <g id="line2d_21">
      <path d="M 62.48 282.701025 
L 709.2 282.701025 
" clip-path="url(#pe551882b14)" style="fill: none; stroke-dasharray: 2.96,1.28; stroke-dashoffset: 0; stroke: #b0b0b0; stroke-opacity: 0.7; stroke-width: 0.8"/>
     </g>
     <g id="line2d_22">
      <g>
       <use xlink:href="#mdd302c9a31" x="62.48" y="282.701025" style="stroke: #000000; stroke-width: 0.8"/>
      </g>
     </g>
     <g id="text_12">
      <!-- −65.0 -->
      <g transform="translate(24.834688 286.500244) scale(0.1 -0.1)">
       <use xlink:href="#DejaVuSans-2212"/>
       <use xlink:href="#DejaVuSans-36" transform="translate(83.789062 0)"/>
       <use xlink:href="#DejaVuSans-35" transform="translate(147.412109 0)"/>
       <use xlink:href="#DejaVuSans-2e" transform="translate(211.035156 0)"/>
       <use xlink:href="#DejaVuSans-30" transform="translate(242.822266 0)"/>
      </g>
     </g>
    </g>
    <g id="ytick_3">
     <g id="line2d_23">
      <path d="M 62.48 243.981862 
L 709.2 243.981862 
" clip-path="url(#pe551882b14)" style="fill: none; stroke-dasharray: 2.96,1.28; stroke-dashoffset: 0; stroke: #b0b0b0; stroke-opacity: 0.7; stroke-width: 0.8"/>
     </g>
     <g id="line2d_24">
      <g>
       <use xlink:href="#mdd302c9a31" x="62.48" y="243.981862" style="stroke: #000000; stroke-width: 0.8"/>
      </g>
     </g>
     <g id="text_13">
      <!-- −64.5 -->
      <g transform="translate(24.834688 247.781081) scale(0.1 -0.1)">
       <defs>
        <path id="DejaVuSans-34" d="M 2419 4116 
L 825 1625 
L 2419 1625 
L 2419 4116 
z
M 2253 4666 
L 3047 4666 
L 3047 1625 
L 3713 1625 
L 3713 1100 
L 3047 1100 
L 3047 0 
L 2419 0 
L 2419 1100 
L 313 1100 
L 313 1709 
L 2253 4666 
z
" transform="scale(0.015625)"/>
       </defs>
       <use xlink:href="#DejaVuSans-2212"/>
       <use xlink:href="#DejaVuSans-36" transform="translate(83.789062 0)"/>
       <use xlink:href="#DejaVuSans-34" transform="translate(147.412109 0)"/>
       <use xlink:href="#DejaVuSans-2e" transform="translate(211.035156 0)"/>
       <use xlink:href="#DejaVuSans-35" transform="translate(242.822266 0)"/>
      </g>
     </g>
    </g>
    <g id="ytick_4">
     <g id="line2d_25">
      <path d="M 62.48 205.2627 
L 709.2 205.2627 
" clip-path="url(#pe551882b14)" style="fill: none; stroke-dasharray: 2.96,1.28; stroke-dashoffset: 0; stroke: #b0b0b0; stroke-opacity: 0.7; stroke-width: 0.8"/>
     </g>
     <g id="line2d_26">
      <g>
       <use xlink:href="#mdd302c9a31" x="62.48" y="205.2627" style="stroke: #000000; stroke-width: 0.8"/>
      </g>
     </g>
     <g id="text_14">
      <!-- −64.0 -->
      <g transform="translate(24.834688 209.061918) scale(0.1 -0.1)">
       <use xlink:href="#DejaVuSans-2212"/>
       <use xlink:href="#DejaVuSans-36" transform="translate(83.789062 0)"/>
       <use xlink:href="#DejaVuSans-34" transform="translate(147.412109 0)"/>
       <use xlink:href="#DejaVuSans-2e" transform="translate(211.035156 0)"/>
       <use xlink:href="#DejaVuSans-30" transform="translate(242.822266 0)"/>
      </g>
     </g>
    </g>
    <g id="ytick_5">
     <g id="line2d_27">
      <path d="M 62.48 166.543537 
L 709.2 166.543537 
" clip-path="url(#pe551882b14)" style="fill: none; stroke-dasharray: 2.96,1.28; stroke-dashoffset: 0; stroke: #b0b0b0; stroke-opacity: 0.7; stroke-width: 0.8"/>
     </g>
     <g id="line2d_28">
      <g>
       <use xlink:href="#mdd302c9a31" x="62.48" y="166.543537" style="stroke: #000000; stroke-width: 0.8"/>
      </g>
     </g>
     <g id="text_15">
      <!-- −63.5 -->
      <g transform="translate(24.834688 170.342756) scale(0.1 -0.1)">
       <defs>
        <path id="DejaVuSans-33" d="M 2597 2516 
Q 3050 2419 3304 2112 
Q 3559 1806 3559 1356 
Q 3559 666 3084 287 
Q 2609 -91 1734 -91 
Q 1441 -91 1130 -33 
Q 819 25 488 141 
L 488 750 
Q 750 597 1062 519 
Q 1375 441 1716 441 
Q 2309 441 2620 675 
Q 2931 909 2931 1356 
Q 2931 1769 2642 2001 
Q 2353 2234 1838 2234 
L 1294 2234 
L 1294 2753 
L 1863 2753 
Q 2328 2753 2575 2939 
Q 2822 3125 2822 3475 
Q 2822 3834 2567 4026 
Q 2313 4219 1838 4219 
Q 1578 4219 1281 4162 
Q 984 4106 628 3988 
L 628 4550 
Q 988 4650 1302 4700 
Q 1616 4750 1894 4750 
Q 2613 4750 3031 4423 
Q 3450 4097 3450 3541 
Q 3450 3153 3228 2886 
Q 3006 2619 2597 2516 
z
" transform="scale(0.015625)"/>
       </defs>
       <use xlink:href="#DejaVuSans-2212"/>
       <use xlink:href="#DejaVuSans-36" transform="translate(83.789062 0)"/>
       <use xlink:href="#DejaVuSans-33" transform="translate(147.412109 0)"/>
       <use xlink:href="#DejaVuSans-2e" transform="translate(211.035156 0)"/>
       <use xlink:href="#DejaVuSans-35" transform="translate(242.822266 0)"/>
      </g>
     </g>
    </g>
    <g id="ytick_6">
     <g id="line2d_29">
      <path d="M 62.48 127.824374 
L 709.2 127.824374 
" clip-path="url(#pe551882b14)" style="fill: none; stroke-dasharray: 2.96,1.28; stroke-dashoffset: 0; stroke: #b0b0b0; stroke-opacity: 0.7; stroke-width: 0.8"/>
     </g>
     <g id="line2d_30">
      <g>
       <use xlink:href="#mdd302c9a31" x="62.48" y="127.824374" style="stroke: #000000; stroke-width: 0.8"/>
      </g>
     </g>
     <g id="text_16">
      <!-- −63.0 -->
      <g transform="translate(24.834688 131.623593) scale(0.1 -0.1)">
       <use xlink:href="#DejaVuSans-2212"/>
       <use xlink:href="#DejaVuSans-36" transform="translate(83.789062 0)"/>
       <use xlink:href="#DejaVuSans-33" transform="translate(147.412109 0)"/>
       <use xlink:href="#DejaVuSans-2e" transform="translate(211.035156 0)"/>
       <use xlink:href="#DejaVuSans-30" transform="translate(242.822266 0)"/>
      </g>
     </g>
    </g>
    <g id="ytick_7">
     <g id="line2d_31">
      <path d="M 62.48 89.105211 
L 709.2 89.105211 
" clip-path="url(#pe551882b14)" style="fill: none; stroke-dasharray: 2.96,1.28; stroke-dashoffset: 0; stroke: #b0b0b0; stroke-opacity: 0.7; stroke-width: 0.8"/>
     </g>
     <g id="line2d_32">
      <g>
       <use xlink:href="#mdd302c9a31" x="62.48" y="89.105211" style="stroke: #000000; stroke-width: 0.8"/>
      </g>
     </g>
     <g id="text_17">
      <!-- −62.5 -->
      <g transform="translate(24.834688 92.90443) scale(0.1 -0.1)">
       <use xlink:href="#DejaVuSans-2212"/>
       <use xlink:href="#DejaVuSans-36" transform="translate(83.789062 0)"/>
       <use xlink:href="#DejaVuSans-32" transform="translate(147.412109 0)"/>
       <use xlink:href="#DejaVuSans-2e" transform="translate(211.035156 0)"/>
       <use xlink:href="#DejaVuSans-35" transform="translate(242.822266 0)"/>
      </g>
     </g>
    </g>
    <g id="ytick_8">
     <g id="line2d_33">
      <path d="M 62.48 50.386049 
L 709.2 50.386049 
" clip-path="url(#pe551882b14)" style="fill: none; stroke-dasharray: 2.96,1.28; stroke-dashoffset: 0; stroke: #b0b0b0; stroke-opacity: 0.7; stroke-width: 0.8"/>
     </g>
     <g id="line2d_34">
      <g>
       <use xlink:href="#mdd302c9a31" x="62.48" y="50.386049" style="stroke: #000000; stroke-width: 0.8"/>
      </g>
     </g>
     <g id="text_18">
      <!-- −62.0 -->
      <g transform="translate(24.834688 54.185267) scale(0.1 -0.1)">
       <use xlink:href="#DejaVuSans-2212"/>
       <use xlink:href="#DejaVuSans-36" transform="translate(83.789062 0)"/>
       <use xlink:href="#DejaVuSans-32" transform="translate(147.412109 0)"/>
       <use xlink:href="#DejaVuSans-2e" transform="translate(211.035156 0)"/>
       <use xlink:href="#DejaVuSans-30" transform="translate(242.822266 0)"/>
      </g>
     </g>
    </g>
    <g id="text_19">
     <!-- Membrane Potential (mV) -->
     <g transform="translate(18.755 253.407094) rotate(-90) scale(0.1 -0.1)">
      <defs>
       <path id="DejaVuSans-4d" d="M 628 4666 
L 1569 4666 
L 2759 1491 
L 3956 4666 
L 4897 4666 
L 4897 0 
L 4281 0 
L 4281 4097 
L 3078 897 
L 2444 897 
L 1241 4097 
L 1241 0 
L 628 0 
L 628 4666 
z
" transform="scale(0.015625)"/>
       <path id="DejaVuSans-62" d="M 3116 1747 
Q 3116 2381 2855 2742 
Q 2594 3103 2138 3103 
Q 1681 3103 1420 2742 
Q 1159 2381 1159 1747 
Q 1159 1113 1420 752 
Q 1681 391 2138 391 
Q 2594 391 2855 752 
Q 3116 1113 3116 1747 
z
M 1159 2969 
Q 1341 3281 1617 3432 
Q 1894 3584 2278 3584 
Q 2916 3584 3314 3078 
Q 3713 2572 3713 1747 
Q 3713 922 3314 415 
Q 2916 -91 2278 -91 
Q 1894 -91 1617 61 
Q 1341 213 1159 525 
L 1159 0 
L 581 0 
L 581 4863 
L 1159 4863 
L 1159 2969 
z
" transform="scale(0.015625)"/>
       <path id="DejaVuSans-72" d="M 2631 2963 
Q 2534 3019 2420 3045 
Q 2306 3072 2169 3072 
Q 1681 3072 1420 2755 
Q 1159 2438 1159 1844 
L 1159 0 
L 581 0 
L 581 3500 
L 1159 3500 
L 1159 2956 
Q 1341 3275 1631 3429 
Q 1922 3584 2338 3584 
Q 2397 3584 2469 3576 
Q 2541 3569 2628 3553 
L 2631 2963 
z
" transform="scale(0.015625)"/>
       <path id="DejaVuSans-61" d="M 2194 1759 
Q 1497 1759 1228 1600 
Q 959 1441 959 1056 
Q 959 750 1161 570 
Q 1363 391 1709 391 
Q 2188 391 2477 730 
Q 2766 1069 2766 1631 
L 2766 1759 
L 2194 1759 
z
M 3341 1997 
L 3341 0 
L 2766 0 
L 2766 531 
Q 2569 213 2275 61 
Q 1981 -91 1556 -91 
Q 1019 -91 701 211 
Q 384 513 384 1019 
Q 384 1609 779 1909 
Q 1175 2209 1959 2209 
L 2766 2209 
L 2766 2266 
Q 2766 2663 2505 2880 
Q 2244 3097 1772 3097 
Q 1472 3097 1187 3025 
Q 903 2953 641 2809 
L 641 3341 
Q 956 3463 1253 3523 
Q 1550 3584 1831 3584 
Q 2591 3584 2966 3190 
Q 3341 2797 3341 1997 
z
" transform="scale(0.015625)"/>
       <path id="DejaVuSans-6e" d="M 3513 2113 
L 3513 0 
L 2938 0 
L 2938 2094 
Q 2938 2591 2744 2837 
Q 2550 3084 2163 3084 
Q 1697 3084 1428 2787 
Q 1159 2491 1159 1978 
L 1159 0 
L 581 0 
L 581 3500 
L 1159 3500 
L 1159 2956 
Q 1366 3272 1645 3428 
Q 1925 3584 2291 3584 
Q 2894 3584 3203 3211 
Q 3513 2838 3513 2113 
z
" transform="scale(0.015625)"/>
       <path id="DejaVuSans-50" d="M 1259 4147 
L 1259 2394 
L 2053 2394 
Q 2494 2394 2734 2622 
Q 2975 2850 2975 3272 
Q 2975 3691 2734 3919 
Q 2494 4147 2053 4147 
L 1259 4147 
z
M 628 4666 
L 2053 4666 
Q 2838 4666 3239 4311 
Q 3641 3956 3641 3272 
Q 3641 2581 3239 2228 
Q 2838 1875 2053 1875 
L 1259 1875 
L 1259 0 
L 628 0 
L 628 4666 
z
" transform="scale(0.015625)"/>
       <path id="DejaVuSans-6f" d="M 1959 3097 
Q 1497 3097 1228 2736 
Q 959 2375 959 1747 
Q 959 1119 1226 758 
Q 1494 397 1959 397 
Q 2419 397 2687 759 
Q 2956 1122 2956 1747 
Q 2956 2369 2687 2733 
Q 2419 3097 1959 3097 
z
M 1959 3584 
Q 2709 3584 3137 3096 
Q 3566 2609 3566 1747 
Q 3566 888 3137 398 
Q 2709 -91 1959 -91 
Q 1206 -91 779 398 
Q 353 888 353 1747 
Q 353 2609 779 3096 
Q 1206 3584 1959 3584 
z
" transform="scale(0.015625)"/>
       <path id="DejaVuSans-74" d="M 1172 4494 
L 1172 3500 
L 2356 3500 
L 2356 3053 
L 1172 3053 
L 1172 1153 
Q 1172 725 1289 603 
Q 1406 481 1766 481 
L 2356 481 
L 2356 0 
L 1766 0 
Q 1100 0 847 248 
Q 594 497 594 1153 
L 594 3053 
L 172 3053 
L 172 3500 
L 594 3500 
L 594 4494 
L 1172 4494 
z
" transform="scale(0.015625)"/>
       <path id="DejaVuSans-6c" d="M 603 4863 
L 1178 4863 
L 1178 0 
L 603 0 
L 603 4863 
z
" transform="scale(0.015625)"/>
       <path id="DejaVuSans-56" d="M 1831 0 
L 50 4666 
L 709 4666 
L 2188 738 
L 3669 4666 
L 4325 4666 
L 2547 0 
L 1831 0 
z
" transform="scale(0.015625)"/>
      </defs>
      <use xlink:href="#DejaVuSans-4d"/>
      <use xlink:href="#DejaVuSans-65" transform="translate(86.279297 0)"/>
      <use xlink:href="#DejaVuSans-6d" transform="translate(147.802734 0)"/>
      <use xlink:href="#DejaVuSans-62" transform="translate(245.214844 0)"/>
      <use xlink:href="#DejaVuSans-72" transform="translate(308.691406 0)"/>
      <use xlink:href="#DejaVuSans-61" transform="translate(349.804688 0)"/>
      <use xlink:href="#DejaVuSans-6e" transform="translate(411.083984 0)"/>
      <use xlink:href="#DejaVuSans-65" transform="translate(474.462891 0)"/>
      <use xlink:href="#DejaVuSans-20" transform="translate(535.986328 0)"/>
      <use xlink:href="#DejaVuSans-50" transform="translate(567.773438 0)"/>
      <use xlink:href="#DejaVuSans-6f" transform="translate(624.451172 0)"/>
      <use xlink:href="#DejaVuSans-74" transform="translate(685.632812 0)"/>
      <use xlink:href="#DejaVuSans-65" transform="translate(724.841797 0)"/>
      <use xlink:href="#DejaVuSans-6e" transform="translate(786.365234 0)"/>
      <use xlink:href="#DejaVuSans-74" transform="translate(849.744141 0)"/>
      <use xlink:href="#DejaVuSans-69" transform="translate(888.953125 0)"/>
      <use xlink:href="#DejaVuSans-61" transform="translate(916.736328 0)"/>
      <use xlink:href="#DejaVuSans-6c" transform="translate(978.015625 0)"/>
      <use xlink:href="#DejaVuSans-20" transform="translate(1005.798828 0)"/>
      <use xlink:href="#DejaVuSans-28" transform="translate(1037.585938 0)"/>
      <use xlink:href="#DejaVuSans-6d" transform="translate(1076.599609 0)"/>
      <use xlink:href="#DejaVuSans-56" transform="translate(1174.011719 0)"/>
      <use xlink:href="#DejaVuSans-29" transform="translate(1242.419922 0)"/>
     </g>
    </g>
   </g>
   <g id="line2d_35">
    <path d="M 91.876364 282.701025 
L 105.839636 281.70732 
L 122.742545 280.715414 
L 138.910545 279.983932 
L 150.669091 279.58934 
L 153.608727 42.307357 
L 155.078545 48.21771 
L 156.548364 52.889154 
L 158.018182 56.605056 
L 159.488 59.615288 
L 160.957818 62.126993 
L 163.162545 65.308693 
L 166.102182 69.041224 
L 170.511636 74.613068 
L 173.451273 78.704251 
L 176.390909 83.240058 
L 179.330545 88.267061 
L 182.270182 93.796838 
L 185.209818 99.820886 
L 188.149455 106.318547 
L 191.824 115.062612 
L 195.498545 124.434251 
L 199.908 136.393679 
L 205.052364 151.075795 
L 212.401455 172.849541 
L 226.364727 214.435244 
L 231.509091 229.086198 
L 236.653455 243.034938 
L 241.062909 254.330094 
L 245.472364 264.951841 
L 249.146909 273.257944 
L 252.821455 281.050003 
L 256.496 288.315368 
L 260.170545 295.03507 
L 263.845091 301.200741 
L 266.784727 305.736608 
L 269.724364 309.925263 
L 272.664 313.773669 
L 275.603636 317.290106 
L 278.543273 320.483849 
L 281.482909 323.364933 
L 284.422545 325.943981 
L 287.362182 328.232058 
L 290.301818 330.240553 
L 293.241455 331.981079 
L 296.181091 333.465383 
L 299.120727 334.705268 
L 302.060364 335.71253 
L 305 336.498899 
L 307.939636 337.075987 
L 310.879273 337.455253 
L 313.818909 337.647962 
L 317.493455 337.643304 
L 321.168 337.385416 
L 324.842545 336.89467 
L 328.517091 336.190741 
L 332.926545 335.091253 
L 337.336 333.743352 
L 341.745455 332.17679 
L 346.889818 330.110279 
L 352.769091 327.484835 
L 359.383273 324.264251 
L 367.467273 320.050089 
L 378.490909 314.019124 
L 399.803273 302.311595 
L 409.357091 297.353552 
L 417.441091 293.405074 
L 424.790182 290.051931 
L 432.139273 286.950786 
L 438.753455 284.391321 
L 445.367636 282.061474 
L 451.981818 279.960572 
L 458.596 278.082854 
L 465.210182 276.427997 
L 471.824364 274.995231 
L 478.438545 273.781635 
L 485.052727 272.781944 
L 491.666909 271.988708 
L 499.016 271.337974 
L 506.365091 270.915134 
L 513.714182 270.702727 
L 521.798182 270.689268 
L 530.617091 270.906678 
L 540.170909 271.374195 
L 551.194545 272.153543 
L 564.422909 273.333004 
L 583.530545 275.290166 
L 613.661818 278.368662 
L 629.829818 279.78185 
L 644.528 280.842934 
L 658.491273 281.632087 
L 672.454545 282.205701 
L 679.803636 282.424328 
L 679.803636 282.424328 
" clip-path="url(#pe551882b14)" style="fill: none; stroke: #0000ff; stroke-width: 2; stroke-linecap: square"/>
   </g>
   <g id="line2d_36">
    <path d="M 91.876364 282.701025 
L 106.574545 281.65021 
L 119.802909 280.916718 
L 133.031273 280.415357 
L 146.994545 280.122474 
L 150.669091 280.080345 
L 153.608727 41.699632 
L 154.343636 43.786809 
L 155.078545 45.348679 
L 156.548364 47.656607 
L 159.488 51.820843 
L 160.957818 54.352162 
L 162.427636 57.319534 
L 163.897455 60.741066 
L 165.367273 64.611371 
L 167.572 71.220866 
L 169.776727 78.725471 
L 171.981455 87.03449 
L 174.921091 99.192966 
L 177.860727 112.358387 
L 181.535273 129.845813 
L 196.968364 204.784475 
L 200.642909 220.959116 
L 203.582545 233.041085 
L 206.522182 244.288309 
L 209.461818 254.666251 
L 212.401455 264.159621 
L 215.341091 272.768556 
L 218.280727 280.505773 
L 220.485455 285.749484 
L 222.690182 290.520268 
L 224.894909 294.828483 
L 227.099636 298.691077 
L 229.304364 302.127272 
L 231.509091 305.157277 
L 233.713818 307.801805 
L 235.918545 310.081788 
L 238.123273 312.018177 
L 240.328 313.631778 
L 242.532727 314.943122 
L 244.737455 315.972354 
L 246.942182 316.739153 
L 249.146909 317.262655 
L 251.351636 317.56141 
L 253.556364 317.653336 
L 255.761091 317.555694 
L 258.700727 317.159184 
L 261.640364 316.492464 
L 264.58 315.59074 
L 268.254545 314.183201 
L 271.929091 312.519641 
L 276.338545 310.261951 
L 281.482909 307.373813 
L 289.566909 302.547571 
L 301.325455 295.550863 
L 307.939636 291.895825 
L 313.818909 288.919554 
L 318.963273 286.563199 
L 324.107636 284.458354 
L 329.252 282.614971 
L 334.396364 281.031218 
L 339.540727 279.696474 
L 344.685091 278.602629 
L 349.829455 277.737864 
L 354.973818 277.08672 
L 360.853091 276.580652 
L 366.732364 276.299526 
L 373.346545 276.212282 
L 380.695636 276.345672 
L 389.514545 276.742501 
L 401.273091 277.51669 
L 435.813818 279.937642 
L 449.042182 280.572539 
L 462.270545 280.986439 
L 476.968727 281.215154 
L 494.606545 281.250186 
L 521.063273 281.047804 
L 572.506909 280.643173 
L 613.661818 280.587445 
L 679.803636 280.659873 
L 679.803636 280.659873 
" clip-path="url(#pe551882b14)" style="fill: none; stroke: #008000; stroke-width: 2; stroke-linecap: square"/>
   </g>
   <g id="line2d_37">
    <path d="M 91.876364 282.701025 
L 105.104727 281.767361 
L 116.128364 281.220677 
L 127.886909 280.866999 
L 142.585091 280.663185 
L 150.669091 280.620496 
L 153.608727 40.994182 
L 155.078545 43.585046 
L 155.813455 45.142805 
L 156.548364 47.046183 
L 158.018182 51.90035 
L 159.488 58.033208 
L 160.957818 65.263998 
L 163.162545 77.780303 
L 165.367273 91.781166 
L 169.041818 116.956343 
L 174.921091 157.498822 
L 177.860727 176.257232 
L 180.800364 193.467245 
L 183.005091 205.248879 
L 185.209818 216.021342 
L 187.414545 225.762992 
L 189.619273 234.505932 
L 191.824 242.299011 
L 194.028727 249.200361 
L 196.233455 255.273375 
L 198.438182 260.583714 
L 200.642909 265.197122 
L 202.847636 269.177866 
L 205.052364 272.587681 
L 207.257091 275.485071 
L 209.461818 277.9249 
L 211.666545 279.958184 
L 213.871273 281.63203 
L 216.076 282.989675 
L 218.280727 284.068796 
L 220.485455 284.904113 
L 222.690182 285.528988 
L 225.629818 286.08634 
L 228.569455 286.385436 
L 231.509091 286.480076 
L 235.183636 286.379922 
L 239.593091 286.034894 
L 246.207273 285.256317 
L 266.049818 282.739557 
L 274.868727 281.930851 
L 283.687636 281.354708 
L 293.241455 280.954546 
L 305 280.695154 
L 321.168 280.582042 
L 357.913455 280.62669 
L 443.897818 280.663522 
L 679.803636 280.662719 
L 679.803636 280.662719 
" clip-path="url(#pe551882b14)" style="fill: none; stroke: #ffa500; stroke-width: 2; stroke-linecap: square"/>
   </g>
   <g id="line2d_38">
    <path d="M 91.876364 282.701025 
L 102.9 281.937776 
L 113.188727 281.462095 
L 125.682182 281.112886 
L 143.32 280.862306 
L 150.669091 280.8049 
L 153.608727 42.020864 
L 154.343636 44.53423 
L 155.078545 47.970437 
L 155.813455 52.215547 
L 157.283273 62.546914 
L 159.488 80.79706 
L 164.632364 125.2407 
L 166.837091 142.479588 
L 169.041818 158.027471 
L 171.246545 171.877926 
L 173.451273 184.136797 
L 175.656 194.954658 
L 177.860727 204.492964 
L 180.065455 212.897783 
L 182.270182 220.291789 
L 184.474909 226.807336 
L 186.679636 232.56002 
L 188.884364 237.64921 
L 191.089091 242.160073 
L 193.293818 246.165585 
L 195.498545 249.728356 
L 197.703273 252.902225 
L 199.908 255.733623 
L 202.112727 258.26272 
L 204.317455 260.524384 
L 207.257091 263.175844 
L 210.196727 265.46702 
L 213.136364 267.449629 
L 216.076 269.167292 
L 219.015636 270.656957 
L 222.690182 272.245831 
L 226.364727 273.578651 
L 230.039273 274.697787 
L 234.448727 275.807577 
L 239.593091 276.842126 
L 244.737455 277.654856 
L 250.616727 278.373253 
L 257.965818 279.034207 
L 266.784727 279.580091 
L 277.808364 280.012497 
L 291.771636 280.321674 
L 312.349091 280.530884 
L 348.359636 280.637722 
L 468.149818 280.66262 
L 679.803636 280.662719 
L 679.803636 280.662719 
" clip-path="url(#pe551882b14)" style="fill: none; stroke: #ff0000; stroke-width: 2; stroke-linecap: square"/>
   </g>
   <g id="patch_3">
    <path d="M 62.48 352.512 
L 62.48 26.16 
" style="fill: none; stroke: #000000; stroke-width: 0.8; stroke-linejoin: miter; stroke-linecap: square"/>
   </g>
   <g id="patch_4">
    <path d="M 709.2 352.512 
L 709.2 26.16 
" style="fill: none; stroke: #000000; stroke-width: 0.8; stroke-linejoin: miter; stroke-linecap: square"/>
   </g>
   <g id="patch_5">
    <path d="M 62.48 352.512 
L 709.2 352.512 
" style="fill: none; stroke: #000000; stroke-width: 0.8; stroke-linejoin: miter; stroke-linecap: square"/>
   </g>
   <g id="patch_6">
    <path d="M 62.48 26.16 
L 709.2 26.16 
" style="fill: none; stroke: #000000; stroke-width: 0.8; stroke-linejoin: miter; stroke-linecap: square"/>
   </g>
   <g id="text_20">
    <g id="patch_7">
     <path d="M 191.541562 422.862087 
L 580.138438 422.862087 
Q 583.138438 422.862087 583.138438 419.862087 
L 583.138438 398.98615 
Q 583.138438 395.98615 580.138438 395.98615 
L 191.541562 395.98615 
Q 188.541562 395.98615 188.541562 398.98615 
L 188.541562 419.862087 
Q 188.541562 422.862087 191.541562 422.862087 
z
" style="fill: #ffffff; opacity: 0.8; stroke: #000000; stroke-linejoin: miter"/>
    </g>
    <!-- Higher temperatures → faster ion channel kinetics → shorter action potentials -->
    <g transform="translate(191.541562 406.584587) scale(0.1 -0.1)">
     <defs>
      <path id="DejaVuSans-48" d="M 628 4666 
L 1259 4666 
L 1259 2753 
L 3553 2753 
L 3553 4666 
L 4184 4666 
L 4184 0 
L 3553 0 
L 3553 2222 
L 1259 2222 
L 1259 0 
L 628 0 
L 628 4666 
z
" transform="scale(0.015625)"/>
      <path id="DejaVuSans-67" d="M 2906 1791 
Q 2906 2416 2648 2759 
Q 2391 3103 1925 3103 
Q 1463 3103 1205 2759 
Q 947 2416 947 1791 
Q 947 1169 1205 825 
Q 1463 481 1925 481 
Q 2391 481 2648 825 
Q 2906 1169 2906 1791 
z
M 3481 434 
Q 3481 -459 3084 -895 
Q 2688 -1331 1869 -1331 
Q 1566 -1331 1297 -1286 
Q 1028 -1241 775 -1147 
L 775 -588 
Q 1028 -725 1275 -790 
Q 1522 -856 1778 -856 
Q 2344 -856 2625 -561 
Q 2906 -266 2906 331 
L 2906 616 
Q 2728 306 2450 153 
Q 2172 0 1784 0 
Q 1141 0 747 490 
Q 353 981 353 1791 
Q 353 2603 747 3093 
Q 1141 3584 1784 3584 
Q 2172 3584 2450 3431 
Q 2728 3278 2906 2969 
L 2906 3500 
L 3481 3500 
L 3481 434 
z
" transform="scale(0.015625)"/>
      <path id="DejaVuSans-68" d="M 3513 2113 
L 3513 0 
L 2938 0 
L 2938 2094 
Q 2938 2591 2744 2837 
Q 2550 3084 2163 3084 
Q 1697 3084 1428 2787 
Q 1159 2491 1159 1978 
L 1159 0 
L 581 0 
L 581 4863 
L 1159 4863 
L 1159 2956 
Q 1366 3272 1645 3428 
Q 1925 3584 2291 3584 
Q 2894 3584 3203 3211 
Q 3513 2838 3513 2113 
z
" transform="scale(0.015625)"/>
      <path id="DejaVuSans-70" d="M 1159 525 
L 1159 -1331 
L 581 -1331 
L 581 3500 
L 1159 3500 
L 1159 2969 
Q 1341 3281 1617 3432 
Q 1894 3584 2278 3584 
Q 2916 3584 3314 3078 
Q 3713 2572 3713 1747 
Q 3713 922 3314 415 
Q 2916 -91 2278 -91 
Q 1894 -91 1617 61 
Q 1341 213 1159 525 
z
M 3116 1747 
Q 3116 2381 2855 2742 
Q 2594 3103 2138 3103 
Q 1681 3103 1420 2742 
Q 1159 2381 1159 1747 
Q 1159 1113 1420 752 
Q 1681 391 2138 391 
Q 2594 391 2855 752 
Q 3116 1113 3116 1747 
z
" transform="scale(0.015625)"/>
      <path id="DejaVuSans-75" d="M 544 1381 
L 544 3500 
L 1119 3500 
L 1119 1403 
Q 1119 906 1312 657 
Q 1506 409 1894 409 
Q 2359 409 2629 706 
Q 2900 1003 2900 1516 
L 2900 3500 
L 3475 3500 
L 3475 0 
L 2900 0 
L 2900 538 
Q 2691 219 2414 64 
Q 2138 -91 1772 -91 
Q 1169 -91 856 284 
Q 544 659 544 1381 
z
M 1991 3584 
L 1991 3584 
z
" transform="scale(0.015625)"/>
      <path id="DejaVuSans-2192" d="M 5050 2147 
L 5050 1866 
L 3822 638 
L 3447 1013 
L 4175 1741 
L 366 1741 
L 366 2272 
L 4175 2272 
L 3447 3000 
L 3822 3375 
L 5050 2147 
z
" transform="scale(0.015625)"/>
      <path id="DejaVuSans-66" d="M 2375 4863 
L 2375 4384 
L 1825 4384 
Q 1516 4384 1395 4259 
Q 1275 4134 1275 3809 
L 1275 3500 
L 2222 3500 
L 2222 3053 
L 1275 3053 
L 1275 0 
L 697 0 
L 697 3053 
L 147 3053 
L 147 3500 
L 697 3500 
L 697 3744 
Q 697 4328 969 4595 
Q 1241 4863 1831 4863 
L 2375 4863 
z
" transform="scale(0.015625)"/>
      <path id="DejaVuSans-63" d="M 3122 3366 
L 3122 2828 
Q 2878 2963 2633 3030 
Q 2388 3097 2138 3097 
Q 1578 3097 1268 2742 
Q 959 2388 959 1747 
Q 959 1106 1268 751 
Q 1578 397 2138 397 
Q 2388 397 2633 464 
Q 2878 531 3122 666 
L 3122 134 
Q 2881 22 2623 -34 
Q 2366 -91 2075 -91 
Q 1284 -91 818 406 
Q 353 903 353 1747 
Q 353 2603 823 3093 
Q 1294 3584 2113 3584 
Q 2378 3584 2631 3529 
Q 2884 3475 3122 3366 
z
" transform="scale(0.015625)"/>
      <path id="DejaVuSans-6b" d="M 581 4863 
L 1159 4863 
L 1159 1991 
L 2875 3500 
L 3609 3500 
L 1753 1863 
L 3688 0 
L 2938 0 
L 1159 1709 
L 1159 0 
L 581 0 
L 581 4863 
z
" transform="scale(0.015625)"/>
     </defs>
     <use xlink:href="#DejaVuSans-48"/>
     <use xlink:href="#DejaVuSans-69" transform="translate(75.195312 0)"/>
     <use xlink:href="#DejaVuSans-67" transform="translate(102.978516 0)"/>
     <use xlink:href="#DejaVuSans-68" transform="translate(166.455078 0)"/>
     <use xlink:href="#DejaVuSans-65" transform="translate(229.833984 0)"/>
     <use xlink:href="#DejaVuSans-72" transform="translate(291.357422 0)"/>
     <use xlink:href="#DejaVuSans-20" transform="translate(332.470703 0)"/>
     <use xlink:href="#DejaVuSans-74" transform="translate(364.257812 0)"/>
     <use xlink:href="#DejaVuSans-65" transform="translate(403.466797 0)"/>
     <use xlink:href="#DejaVuSans-6d" transform="translate(464.990234 0)"/>
     <use xlink:href="#DejaVuSans-70" transform="translate(562.402344 0)"/>
     <use xlink:href="#DejaVuSans-65" transform="translate(625.878906 0)"/>
     <use xlink:href="#DejaVuSans-72" transform="translate(687.402344 0)"/>
     <use xlink:href="#DejaVuSans-61" transform="translate(728.515625 0)"/>
     <use xlink:href="#DejaVuSans-74" transform="translate(789.794922 0)"/>
     <use xlink:href="#DejaVuSans-75" transform="translate(829.003906 0)"/>
     <use xlink:href="#DejaVuSans-72" transform="translate(892.382812 0)"/>
     <use xlink:href="#DejaVuSans-65" transform="translate(931.246094 0)"/>
     <use xlink:href="#DejaVuSans-73" transform="translate(992.769531 0)"/>
     <use xlink:href="#DejaVuSans-20" transform="translate(1044.869141 0)"/>
     <use xlink:href="#DejaVuSans-2192" transform="translate(1076.65625 0)"/>
     <use xlink:href="#DejaVuSans-20" transform="translate(1160.445312 0)"/>
     <use xlink:href="#DejaVuSans-66" transform="translate(1192.232422 0)"/>
     <use xlink:href="#DejaVuSans-61" transform="translate(1227.4375 0)"/>
     <use xlink:href="#DejaVuSans-73" transform="translate(1288.716797 0)"/>
     <use xlink:href="#DejaVuSans-74" transform="translate(1340.816406 0)"/>
     <use xlink:href="#DejaVuSans-65" transform="translate(1380.025391 0)"/>
     <use xlink:href="#DejaVuSans-72" transform="translate(1441.548828 0)"/>
     <use xlink:href="#DejaVuSans-20" transform="translate(1482.662109 0)"/>
     <use xlink:href="#DejaVuSans-69" transform="translate(1514.449219 0)"/>
     <use xlink:href="#DejaVuSans-6f" transform="translate(1542.232422 0)"/>
     <use xlink:href="#DejaVuSans-6e" transform="translate(1603.414062 0)"/>
     <use xlink:href="#DejaVuSans-20" transform="translate(1666.792969 0)"/>
     <use xlink:href="#DejaVuSans-63" transform="translate(1698.580078 0)"/>
     <use xlink:href="#DejaVuSans-68" transform="translate(1753.560547 0)"/>
     <use xlink:href="#DejaVuSans-61" transform="translate(1816.939453 0)"/>
     <use xlink:href="#DejaVuSans-6e" transform="translate(1878.21875 0)"/>
     <use xlink:href="#DejaVuSans-6e" transform="translate(1941.597656 0)"/>
     <use xlink:href="#DejaVuSans-65" transform="translate(2004.976562 0)"/>
     <use xlink:href="#DejaVuSans-6c" transform="translate(2066.5 0)"/>
     <use xlink:href="#DejaVuSans-20" transform="translate(2094.283203 0)"/>
     <use xlink:href="#DejaVuSans-6b" transform="translate(2126.070312 0)"/>
     <use xlink:href="#DejaVuSans-69" transform="translate(2183.980469 0)"/>
     <use xlink:href="#DejaVuSans-6e" transform="translate(2211.763672 0)"/>
     <use xlink:href="#DejaVuSans-65" transform="translate(2275.142578 0)"/>
     <use xlink:href="#DejaVuSans-74" transform="translate(2336.666016 0)"/>
     <use xlink:href="#DejaVuSans-69" transform="translate(2375.875 0)"/>
     <use xlink:href="#DejaVuSans-63" transform="translate(2403.658203 0)"/>
     <use xlink:href="#DejaVuSans-73" transform="translate(2458.638672 0)"/>
     <use xlink:href="#DejaVuSans-20" transform="translate(2510.738281 0)"/>
     <use xlink:href="#DejaVuSans-2192" transform="translate(2542.525391 0)"/>
     <use xlink:href="#DejaVuSans-20" transform="translate(2626.314453 0)"/>
     <use xlink:href="#DejaVuSans-73" transform="translate(2658.101562 0)"/>
     <use xlink:href="#DejaVuSans-68" transform="translate(2710.201172 0)"/>
     <use xlink:href="#DejaVuSans-6f" transform="translate(2773.580078 0)"/>
     <use xlink:href="#DejaVuSans-72" transform="translate(2834.761719 0)"/>
     <use xlink:href="#DejaVuSans-74" transform="translate(2875.875 0)"/>
     <use xlink:href="#DejaVuSans-65" transform="translate(2915.083984 0)"/>
     <use xlink:href="#DejaVuSans-72" transform="translate(2976.607422 0)"/>
     <use xlink:href="#DejaVuSans-20" transform="translate(3017.720703 0)"/>
     <use xlink:href="#DejaVuSans-61" transform="translate(3049.507812 0)"/>
     <use xlink:href="#DejaVuSans-63" transform="translate(3110.787109 0)"/>
     <use xlink:href="#DejaVuSans-74" transform="translate(3165.767578 0)"/>
     <use xlink:href="#DejaVuSans-69" transform="translate(3204.976562 0)"/>
     <use xlink:href="#DejaVuSans-6f" transform="translate(3232.759766 0)"/>
     <use xlink:href="#DejaVuSans-6e" transform="translate(3293.941406 0)"/>
     <use xlink:href="#DejaVuSans-20" transform="translate(3357.320312 0)"/>
     <use xlink:href="#DejaVuSans-70" transform="translate(3389.107422 0)"/>
     <use xlink:href="#DejaVuSans-6f" transform="translate(3452.583984 0)"/>
     <use xlink:href="#DejaVuSans-74" transform="translate(3513.765625 0)"/>
     <use xlink:href="#DejaVuSans-65" transform="translate(3552.974609 0)"/>
     <use xlink:href="#DejaVuSans-6e" transform="translate(3614.498047 0)"/>
     <use xlink:href="#DejaVuSans-74" transform="translate(3677.876953 0)"/>
     <use xlink:href="#DejaVuSans-69" transform="translate(3717.085938 0)"/>
     <use xlink:href="#DejaVuSans-61" transform="translate(3744.869141 0)"/>
     <use xlink:href="#DejaVuSans-6c" transform="translate(3806.148438 0)"/>
     <use xlink:href="#DejaVuSans-73" transform="translate(3833.931641 0)"/>
    </g>
    <!-- Lower temperatures → slower channel kinetics → longer action potentials -->
    <g transform="translate(202.697031 417.7824) scale(0.1 -0.1)">
     <defs>
      <path id="DejaVuSans-4c" d="M 628 4666 
L 1259 4666 
L 1259 531 
L 3531 531 
L 3531 0 
L 628 0 
L 628 4666 
z
" transform="scale(0.015625)"/>
      <path id="DejaVuSans-77" d="M 269 3500 
L 844 3500 
L 1563 769 
L 2278 3500 
L 2956 3500 
L 3675 769 
L 4391 3500 
L 4966 3500 
L 4050 0 
L 3372 0 
L 2619 2869 
L 1863 0 
L 1184 0 
L 269 3500 
z
" transform="scale(0.015625)"/>
     </defs>
     <use xlink:href="#DejaVuSans-4c"/>
     <use xlink:href="#DejaVuSans-6f" transform="translate(53.962891 0)"/>
     <use xlink:href="#DejaVuSans-77" transform="translate(115.144531 0)"/>
     <use xlink:href="#DejaVuSans-65" transform="translate(196.931641 0)"/>
     <use xlink:href="#DejaVuSans-72" transform="translate(258.455078 0)"/>
     <use xlink:href="#DejaVuSans-20" transform="translate(299.568359 0)"/>
     <use xlink:href="#DejaVuSans-74" transform="translate(331.355469 0)"/>
     <use xlink:href="#DejaVuSans-65" transform="translate(370.564453 0)"/>
     <use xlink:href="#DejaVuSans-6d" transform="translate(432.087891 0)"/>
     <use xlink:href="#DejaVuSans-70" transform="translate(529.5 0)"/>
     <use xlink:href="#DejaVuSans-65" transform="translate(592.976562 0)"/>
     <use xlink:href="#DejaVuSans-72" transform="translate(654.5 0)"/>
     <use xlink:href="#DejaVuSans-61" transform="translate(695.613281 0)"/>
     <use xlink:href="#DejaVuSans-74" transform="translate(756.892578 0)"/>
     <use xlink:href="#DejaVuSans-75" transform="translate(796.101562 0)"/>
     <use xlink:href="#DejaVuSans-72" transform="translate(859.480469 0)"/>
     <use xlink:href="#DejaVuSans-65" transform="translate(898.34375 0)"/>
     <use xlink:href="#DejaVuSans-73" transform="translate(959.867188 0)"/>
     <use xlink:href="#DejaVuSans-20" transform="translate(1011.966797 0)"/>
     <use xlink:href="#DejaVuSans-2192" transform="translate(1043.753906 0)"/>
     <use xlink:href="#DejaVuSans-20" transform="translate(1127.542969 0)"/>
     <use xlink:href="#DejaVuSans-73" transform="translate(1159.330078 0)"/>
     <use xlink:href="#DejaVuSans-6c" transform="translate(1211.429688 0)"/>
     <use xlink:href="#DejaVuSans-6f" transform="translate(1239.212891 0)"/>
     <use xlink:href="#DejaVuSans-77" transform="translate(1300.394531 0)"/>
     <use xlink:href="#DejaVuSans-65" transform="translate(1382.181641 0)"/>
     <use xlink:href="#DejaVuSans-72" transform="translate(1443.705078 0)"/>
     <use xlink:href="#DejaVuSans-20" transform="translate(1484.818359 0)"/>
     <use xlink:href="#DejaVuSans-63" transform="translate(1516.605469 0)"/>
     <use xlink:href="#DejaVuSans-68" transform="translate(1571.585938 0)"/>
     <use xlink:href="#DejaVuSans-61" transform="translate(1634.964844 0)"/>
     <use xlink:href="#DejaVuSans-6e" transform="translate(1696.244141 0)"/>
     <use xlink:href="#DejaVuSans-6e" transform="translate(1759.623047 0)"/>
     <use xlink:href="#DejaVuSans-65" transform="translate(1823.001953 0)"/>
     <use xlink:href="#DejaVuSans-6c" transform="translate(1884.525391 0)"/>
     <use xlink:href="#DejaVuSans-20" transform="translate(1912.308594 0)"/>
     <use xlink:href="#DejaVuSans-6b" transform="translate(1944.095703 0)"/>
     <use xlink:href="#DejaVuSans-69" transform="translate(2002.005859 0)"/>
     <use xlink:href="#DejaVuSans-6e" transform="translate(2029.789062 0)"/>
     <use xlink:href="#DejaVuSans-65" transform="translate(2093.167969 0)"/>
     <use xlink:href="#DejaVuSans-74" transform="translate(2154.691406 0)"/>
     <use xlink:href="#DejaVuSans-69" transform="translate(2193.900391 0)"/>
     <use xlink:href="#DejaVuSans-63" transform="translate(2221.683594 0)"/>
     <use xlink:href="#DejaVuSans-73" transform="translate(2276.664062 0)"/>
     <use xlink:href="#DejaVuSans-20" transform="translate(2328.763672 0)"/>
     <use xlink:href="#DejaVuSans-2192" transform="translate(2360.550781 0)"/>
     <use xlink:href="#DejaVuSans-20" transform="translate(2444.339844 0)"/>
     <use xlink:href="#DejaVuSans-6c" transform="translate(2476.126953 0)"/>
     <use xlink:href="#DejaVuSans-6f" transform="translate(2503.910156 0)"/>
     <use xlink:href="#DejaVuSans-6e" transform="translate(2565.091797 0)"/>
     <use xlink:href="#DejaVuSans-67" transform="translate(2628.470703 0)"/>
     <use xlink:href="#DejaVuSans-65" transform="translate(2691.947266 0)"/>
     <use xlink:href="#DejaVuSans-72" transform="translate(2753.470703 0)"/>
     <use xlink:href="#DejaVuSans-20" transform="translate(2794.583984 0)"/>
     <use xlink:href="#DejaVuSans-61" transform="translate(2826.371094 0)"/>
     <use xlink:href="#DejaVuSans-63" transform="translate(2887.650391 0)"/>
     <use xlink:href="#DejaVuSans-74" transform="translate(2942.630859 0)"/>
     <use xlink:href="#DejaVuSans-69" transform="translate(2981.839844 0)"/>
     <use xlink:href="#DejaVuSans-6f" transform="translate(3009.623047 0)"/>
     <use xlink:href="#DejaVuSans-6e" transform="translate(3070.804688 0)"/>
     <use xlink:href="#DejaVuSans-20" transform="translate(3134.183594 0)"/>
     <use xlink:href="#DejaVuSans-70" transform="translate(3165.970703 0)"/>
     <use xlink:href="#DejaVuSans-6f" transform="translate(3229.447266 0)"/>
     <use xlink:href="#DejaVuSans-74" transform="translate(3290.628906 0)"/>
     <use xlink:href="#DejaVuSans-65" transform="translate(3329.837891 0)"/>
     <use xlink:href="#DejaVuSans-6e" transform="translate(3391.361328 0)"/>
     <use xlink:href="#DejaVuSans-74" transform="translate(3454.740234 0)"/>
     <use xlink:href="#DejaVuSans-69" transform="translate(3493.949219 0)"/>
     <use xlink:href="#DejaVuSans-61" transform="translate(3521.732422 0)"/>
     <use xlink:href="#DejaVuSans-6c" transform="translate(3583.011719 0)"/>
     <use xlink:href="#DejaVuSans-73" transform="translate(3610.794922 0)"/>
    </g>
   </g>
   <g id="text_21">
    <!-- Effect of Temperature on Action Potential Duration -->
    <g transform="translate(234.648437 20.16) scale(0.12 -0.12)">
     <defs>
      <path id="DejaVuSans-45" d="M 628 4666 
L 3578 4666 
L 3578 4134 
L 1259 4134 
L 1259 2753 
L 3481 2753 
L 3481 2222 
L 1259 2222 
L 1259 531 
L 3634 531 
L 3634 0 
L 628 0 
L 628 4666 
z
" transform="scale(0.015625)"/>
      <path id="DejaVuSans-41" d="M 2188 4044 
L 1331 1722 
L 3047 1722 
L 2188 4044 
z
M 1831 4666 
L 2547 4666 
L 4325 0 
L 3669 0 
L 3244 1197 
L 1141 1197 
L 716 0 
L 50 0 
L 1831 4666 
z
" transform="scale(0.015625)"/>
      <path id="DejaVuSans-44" d="M 1259 4147 
L 1259 519 
L 2022 519 
Q 2988 519 3436 956 
Q 3884 1394 3884 2338 
Q 3884 3275 3436 3711 
Q 2988 4147 2022 4147 
L 1259 4147 
z
M 628 4666 
L 1925 4666 
Q 3281 4666 3915 4102 
Q 4550 3538 4550 2338 
Q 4550 1131 3912 565 
Q 3275 0 1925 0 
L 628 0 
L 628 4666 
z
" transform="scale(0.015625)"/>
     </defs>
     <use xlink:href="#DejaVuSans-45"/>
     <use xlink:href="#DejaVuSans-66" transform="translate(63.183594 0)"/>
     <use xlink:href="#DejaVuSans-66" transform="translate(98.388672 0)"/>
     <use xlink:href="#DejaVuSans-65" transform="translate(133.59375 0)"/>
     <use xlink:href="#DejaVuSans-63" transform="translate(195.117188 0)"/>
     <use xlink:href="#DejaVuSans-74" transform="translate(250.097656 0)"/>
     <use xlink:href="#DejaVuSans-20" transform="translate(289.306641 0)"/>
     <use xlink:href="#DejaVuSans-6f" transform="translate(321.09375 0)"/>
     <use xlink:href="#DejaVuSans-66" transform="translate(382.275391 0)"/>
     <use xlink:href="#DejaVuSans-20" transform="translate(417.480469 0)"/>
     <use xlink:href="#DejaVuSans-54" transform="translate(449.267578 0)"/>
     <use xlink:href="#DejaVuSans-65" transform="translate(493.351562 0)"/>
     <use xlink:href="#DejaVuSans-6d" transform="translate(554.875 0)"/>
     <use xlink:href="#DejaVuSans-70" transform="translate(652.287109 0)"/>
     <use xlink:href="#DejaVuSans-65" transform="translate(715.763672 0)"/>
     <use xlink:href="#DejaVuSans-72" transform="translate(777.287109 0)"/>
     <use xlink:href="#DejaVuSans-61" transform="translate(818.400391 0)"/>
     <use xlink:href="#DejaVuSans-74" transform="translate(879.679688 0)"/>
     <use xlink:href="#DejaVuSans-75" transform="translate(918.888672 0)"/>
     <use xlink:href="#DejaVuSans-72" transform="translate(982.267578 0)"/>
     <use xlink:href="#DejaVuSans-65" transform="translate(1021.130859 0)"/>
     <use xlink:href="#DejaVuSans-20" transform="translate(1082.654297 0)"/>
     <use xlink:href="#DejaVuSans-6f" transform="translate(1114.441406 0)"/>
     <use xlink:href="#DejaVuSans-6e" transform="translate(1175.623047 0)"/>
     <use xlink:href="#DejaVuSans-20" transform="translate(1239.001953 0)"/>
     <use xlink:href="#DejaVuSans-41" transform="translate(1270.789062 0)"/>
     <use xlink:href="#DejaVuSans-63" transform="translate(1337.447266 0)"/>
     <use xlink:href="#DejaVuSans-74" transform="translate(1392.427734 0)"/>
     <use xlink:href="#DejaVuSans-69" transform="translate(1431.636719 0)"/>
     <use xlink:href="#DejaVuSans-6f" transform="translate(1459.419922 0)"/>
     <use xlink:href="#DejaVuSans-6e" transform="translate(1520.601562 0)"/>
     <use xlink:href="#DejaVuSans-20" transform="translate(1583.980469 0)"/>
     <use xlink:href="#DejaVuSans-50" transform="translate(1615.767578 0)"/>
     <use xlink:href="#DejaVuSans-6f" transform="translate(1672.445312 0)"/>
     <use xlink:href="#DejaVuSans-74" transform="translate(1733.626953 0)"/>
     <use xlink:href="#DejaVuSans-65" transform="translate(1772.835938 0)"/>
     <use xlink:href="#DejaVuSans-6e" transform="translate(1834.359375 0)"/>
     <use xlink:href="#DejaVuSans-74" transform="translate(1897.738281 0)"/>
     <use xlink:href="#DejaVuSans-69" transform="translate(1936.947266 0)"/>
     <use xlink:href="#DejaVuSans-61" transform="translate(1964.730469 0)"/>
     <use xlink:href="#DejaVuSans-6c" transform="translate(2026.009766 0)"/>
     <use xlink:href="#DejaVuSans-20" transform="translate(2053.792969 0)"/>
     <use xlink:href="#DejaVuSans-44" transform="translate(2085.580078 0)"/>
     <use xlink:href="#DejaVuSans-75" transform="translate(2162.582031 0)"/>
     <use xlink:href="#DejaVuSans-72" transform="translate(2225.960938 0)"/>
     <use xlink:href="#DejaVuSans-61" transform="translate(2267.074219 0)"/>
     <use xlink:href="#DejaVuSans-74" transform="translate(2328.353516 0)"/>
     <use xlink:href="#DejaVuSans-69" transform="translate(2367.5625 0)"/>
     <use xlink:href="#DejaVuSans-6f" transform="translate(2395.345703 0)"/>
     <use xlink:href="#DejaVuSans-6e" transform="translate(2456.527344 0)"/>
    </g>
   </g>
   <g id="legend_1">
    <g id="patch_8">
     <path d="M 604.10625 92.8725 
L 702.2 92.8725 
Q 704.2 92.8725 704.2 90.8725 
L 704.2 33.16 
Q 704.2 31.16 702.2 31.16 
L 604.10625 31.16 
Q 602.10625 31.16 602.10625 33.16 
L 602.10625 90.8725 
Q 602.10625 92.8725 604.10625 92.8725 
z
" style="fill: #ffffff; opacity: 0.8; stroke: #cccccc; stroke-linejoin: miter"/>
    </g>
    <g id="line2d_39">
     <path d="M 606.10625 39.258438 
L 616.10625 39.258438 
L 626.10625 39.258438 
" style="fill: none; stroke: #0000ff; stroke-width: 2; stroke-linecap: square"/>
    </g>
    <g id="text_22">
     <!-- Temp = 10°C -->
     <g transform="translate(634.10625 42.758438) scale(0.1 -0.1)">
      <defs>
       <path id="DejaVuSans-3d" d="M 678 2906 
L 4684 2906 
L 4684 2381 
L 678 2381 
L 678 2906 
z
M 678 1631 
L 4684 1631 
L 4684 1100 
L 678 1100 
L 678 1631 
z
" transform="scale(0.015625)"/>
       <path id="DejaVuSans-b0" d="M 1600 4347 
Q 1350 4347 1178 4173 
Q 1006 4000 1006 3750 
Q 1006 3503 1178 3333 
Q 1350 3163 1600 3163 
Q 1850 3163 2022 3333 
Q 2194 3503 2194 3750 
Q 2194 3997 2020 4172 
Q 1847 4347 1600 4347 
z
M 1600 4750 
Q 1800 4750 1984 4673 
Q 2169 4597 2303 4453 
Q 2447 4313 2519 4134 
Q 2591 3956 2591 3750 
Q 2591 3338 2302 3052 
Q 2013 2766 1594 2766 
Q 1172 2766 890 3047 
Q 609 3328 609 3750 
Q 609 4169 896 4459 
Q 1184 4750 1600 4750 
z
" transform="scale(0.015625)"/>
       <path id="DejaVuSans-43" d="M 4122 4306 
L 4122 3641 
Q 3803 3938 3442 4084 
Q 3081 4231 2675 4231 
Q 1875 4231 1450 3742 
Q 1025 3253 1025 2328 
Q 1025 1406 1450 917 
Q 1875 428 2675 428 
Q 3081 428 3442 575 
Q 3803 722 4122 1019 
L 4122 359 
Q 3791 134 3420 21 
Q 3050 -91 2638 -91 
Q 1578 -91 968 557 
Q 359 1206 359 2328 
Q 359 3453 968 4101 
Q 1578 4750 2638 4750 
Q 3056 4750 3426 4639 
Q 3797 4528 4122 4306 
z
" transform="scale(0.015625)"/>
      </defs>
      <use xlink:href="#DejaVuSans-54"/>
      <use xlink:href="#DejaVuSans-65" transform="translate(44.083984 0)"/>
      <use xlink:href="#DejaVuSans-6d" transform="translate(105.607422 0)"/>
      <use xlink:href="#DejaVuSans-70" transform="translate(203.019531 0)"/>
      <use xlink:href="#DejaVuSans-20" transform="translate(266.496094 0)"/>
      <use xlink:href="#DejaVuSans-3d" transform="translate(298.283203 0)"/>
      <use xlink:href="#DejaVuSans-20" transform="translate(382.072266 0)"/>
      <use xlink:href="#DejaVuSans-31" transform="translate(413.859375 0)"/>
      <use xlink:href="#DejaVuSans-30" transform="translate(477.482422 0)"/>
      <use xlink:href="#DejaVuSans-b0" transform="translate(541.105469 0)"/>
      <use xlink:href="#DejaVuSans-43" transform="translate(591.105469 0)"/>
     </g>
    </g>
    <g id="line2d_40">
     <path d="M 606.10625 53.936563 
L 616.10625 53.936563 
L 626.10625 53.936563 
" style="fill: none; stroke: #008000; stroke-width: 2; stroke-linecap: square"/>
    </g>
    <g id="text_23">
     <!-- Temp = 20°C -->
     <g transform="translate(634.10625 57.436563) scale(0.1 -0.1)">
      <use xlink:href="#DejaVuSans-54"/>
      <use xlink:href="#DejaVuSans-65" transform="translate(44.083984 0)"/>
      <use xlink:href="#DejaVuSans-6d" transform="translate(105.607422 0)"/>
      <use xlink:href="#DejaVuSans-70" transform="translate(203.019531 0)"/>
      <use xlink:href="#DejaVuSans-20" transform="translate(266.496094 0)"/>
      <use xlink:href="#DejaVuSans-3d" transform="translate(298.283203 0)"/>
      <use xlink:href="#DejaVuSans-20" transform="translate(382.072266 0)"/>
      <use xlink:href="#DejaVuSans-32" transform="translate(413.859375 0)"/>
      <use xlink:href="#DejaVuSans-30" transform="translate(477.482422 0)"/>
      <use xlink:href="#DejaVuSans-b0" transform="translate(541.105469 0)"/>
      <use xlink:href="#DejaVuSans-43" transform="translate(591.105469 0)"/>
     </g>
    </g>
    <g id="line2d_41">
     <path d="M 606.10625 68.614688 
L 616.10625 68.614688 
L 626.10625 68.614688 
" style="fill: none; stroke: #ffa500; stroke-width: 2; stroke-linecap: square"/>
    </g>
    <g id="text_24">
     <!-- Temp = 30°C -->
     <g transform="translate(634.10625 72.114688) scale(0.1 -0.1)">
      <use xlink:href="#DejaVuSans-54"/>
      <use xlink:href="#DejaVuSans-65" transform="translate(44.083984 0)"/>
      <use xlink:href="#DejaVuSans-6d" transform="translate(105.607422 0)"/>
      <use xlink:href="#DejaVuSans-70" transform="translate(203.019531 0)"/>
      <use xlink:href="#DejaVuSans-20" transform="translate(266.496094 0)"/>
      <use xlink:href="#DejaVuSans-3d" transform="translate(298.283203 0)"/>
      <use xlink:href="#DejaVuSans-20" transform="translate(382.072266 0)"/>
      <use xlink:href="#DejaVuSans-33" transform="translate(413.859375 0)"/>
      <use xlink:href="#DejaVuSans-30" transform="translate(477.482422 0)"/>
      <use xlink:href="#DejaVuSans-b0" transform="translate(541.105469 0)"/>
      <use xlink:href="#DejaVuSans-43" transform="translate(591.105469 0)"/>
     </g>
    </g>
    <g id="line2d_42">
     <path d="M 606.10625 83.292813 
L 616.10625 83.292813 
L 626.10625 83.292813 
" style="fill: none; stroke: #ff0000; stroke-width: 2; stroke-linecap: square"/>
    </g>
    <g id="text_25">
     <!-- Temp = 40°C -->
     <g transform="translate(634.10625 86.792813) scale(0.1 -0.1)">
      <use xlink:href="#DejaVuSans-54"/>
      <use xlink:href="#DejaVuSans-65" transform="translate(44.083984 0)"/>
      <use xlink:href="#DejaVuSans-6d" transform="translate(105.607422 0)"/>
      <use xlink:href="#DejaVuSans-70" transform="translate(203.019531 0)"/>
      <use xlink:href="#DejaVuSans-20" transform="translate(266.496094 0)"/>
      <use xlink:href="#DejaVuSans-3d" transform="translate(298.283203 0)"/>
      <use xlink:href="#DejaVuSans-20" transform="translate(382.072266 0)"/>
      <use xlink:href="#DejaVuSans-34" transform="translate(413.859375 0)"/>
      <use xlink:href="#DejaVuSans-30" transform="translate(477.482422 0)"/>
      <use xlink:href="#DejaVuSans-b0" transform="translate(541.105469 0)"/>
      <use xlink:href="#DejaVuSans-43" transform="translate(591.105469 0)"/>
     </g>
    </g>
   </g>
  </g>
 </g>
 <defs>
  <clipPath id="pe551882b14">
   <rect x="62.48" y="26.16" width="646.72" height="326.352"/>
  </clipPath>
 </defs>
</svg>
