<?xml version="1.0" encoding="utf-8" standalone="no"?>
<!DOCTYPE svg PUBLIC "-//W3C//DTD SVG 1.1//EN"
  "http://www.w3.org/Graphics/SVG/1.1/DTD/svg11.dtd">
<svg xmlns:xlink="http://www.w3.org/1999/xlink" width="720pt" height="432pt" viewBox="0 0 720 432" xmlns="http://www.w3.org/2000/svg" version="1.1">
 <metadata>
  <rdf:RDF xmlns:dc="http://purl.org/dc/elements/1.1/" xmlns:cc="http://creativecommons.org/ns#" xmlns:rdf="http://www.w3.org/1999/02/22-rdf-syntax-ns#">
   <cc:Work>
    <dc:type rdf:resource="http://purl.org/dc/dcmitype/StillImage"/>
    <dc:date>1980-01-01T00:00:00+00:00</dc:date>
    <dc:format>image/svg+xml</dc:format>
    <dc:creator>
     <cc:Agent>
      <dc:title>Matplotlib v3.10.1, https://matplotlib.org/</dc:title>
     </cc:Agent>
    </dc:creator>
   </cc:Work>
  </rdf:RDF>
 </metadata>
 <defs>
  <style type="text/css">*{stroke-linejoin: round; stroke-linecap: butt}</style>
 </defs>
 <g id="figure_1">
  <g id="patch_1">
   <path d="M 0 432 
L 720 432 
L 720 0 
L 0 0 
z
" style="fill: #ffffff"/>
  </g>
  <g id="axes_1">
   <g id="patch_2">
    <path d="M 52.94 226.152 
L 709.2 226.152 
L 709.2 47.76 
L 52.94 47.76 
z
" style="fill: #ffffff"/>
   </g>
   <g id="matplotlib.axis_1">
    <g id="xtick_1">
     <g id="line2d_1">
      <path d="M 82.77 226.152 
L 82.77 47.76 
" clip-path="url(#pfe5eb6f58b)" style="fill: none; stroke-dasharray: 2.96,1.28; stroke-dashoffset: 0; stroke: #b0b0b0; stroke-opacity: 0.7; stroke-width: 0.8"/>
     </g>
     <g id="line2d_2">
      <defs>
       <path id="mdd88a4ef11" d="M 0 0 
L 0 3.5 
" style="stroke: #000000; stroke-width: 0.8"/>
      </defs>
      <g>
       <use xlink:href="#mdd88a4ef11" x="82.77" y="226.152" style="stroke: #000000; stroke-width: 0.8"/>
      </g>
     </g>
     <g id="text_1">
      <!-- 0.0 -->
      <g transform="translate(74.818438 240.750437) scale(0.1 -0.1)">
       <defs>
        <path id="DejaVuSans-30" d="M 2034 4250 
Q 1547 4250 1301 3770 
Q 1056 3291 1056 2328 
Q 1056 1369 1301 889 
Q 1547 409 2034 409 
Q 2525 409 2770 889 
Q 3016 1369 3016 2328 
Q 3016 3291 2770 3770 
Q 2525 4250 2034 4250 
z
M 2034 4750 
Q 2819 4750 3233 4129 
Q 3647 3509 3647 2328 
Q 3647 1150 3233 529 
Q 2819 -91 2034 -91 
Q 1250 -91 836 529 
Q 422 1150 422 2328 
Q 422 3509 836 4129 
Q 1250 4750 2034 4750 
z
" transform="scale(0.015625)"/>
        <path id="DejaVuSans-2e" d="M 684 794 
L 1344 794 
L 1344 0 
L 684 0 
L 684 794 
z
" transform="scale(0.015625)"/>
       </defs>
       <use xlink:href="#DejaVuSans-30"/>
       <use xlink:href="#DejaVuSans-2e" transform="translate(63.623047 0)"/>
       <use xlink:href="#DejaVuSans-30" transform="translate(95.410156 0)"/>
      </g>
     </g>
    </g>
    <g id="xtick_2">
     <g id="line2d_3">
      <path d="M 157.345 226.152 
L 157.345 47.76 
" clip-path="url(#pfe5eb6f58b)" style="fill: none; stroke-dasharray: 2.96,1.28; stroke-dashoffset: 0; stroke: #b0b0b0; stroke-opacity: 0.7; stroke-width: 0.8"/>
     </g>
     <g id="line2d_4">
      <g>
       <use xlink:href="#mdd88a4ef11" x="157.345" y="226.152" style="stroke: #000000; stroke-width: 0.8"/>
      </g>
     </g>
     <g id="text_2">
      <!-- 2.5 -->
      <g transform="translate(149.393438 240.750437) scale(0.1 -0.1)">
       <defs>
        <path id="DejaVuSans-32" d="M 1228 531 
L 3431 531 
L 3431 0 
L 469 0 
L 469 531 
Q 828 903 1448 1529 
Q 2069 2156 2228 2338 
Q 2531 2678 2651 2914 
Q 2772 3150 2772 3378 
Q 2772 3750 2511 3984 
Q 2250 4219 1831 4219 
Q 1534 4219 1204 4116 
Q 875 4013 500 3803 
L 500 4441 
Q 881 4594 1212 4672 
Q 1544 4750 1819 4750 
Q 2544 4750 2975 4387 
Q 3406 4025 3406 3419 
Q 3406 3131 3298 2873 
Q 3191 2616 2906 2266 
Q 2828 2175 2409 1742 
Q 1991 1309 1228 531 
z
" transform="scale(0.015625)"/>
        <path id="DejaVuSans-35" d="M 691 4666 
L 3169 4666 
L 3169 4134 
L 1269 4134 
L 1269 2991 
Q 1406 3038 1543 3061 
Q 1681 3084 1819 3084 
Q 2600 3084 3056 2656 
Q 3513 2228 3513 1497 
Q 3513 744 3044 326 
Q 2575 -91 1722 -91 
Q 1428 -91 1123 -41 
Q 819 9 494 109 
L 494 744 
Q 775 591 1075 516 
Q 1375 441 1709 441 
Q 2250 441 2565 725 
Q 2881 1009 2881 1497 
Q 2881 1984 2565 2268 
Q 2250 2553 1709 2553 
Q 1456 2553 1204 2497 
Q 953 2441 691 2322 
L 691 4666 
z
" transform="scale(0.015625)"/>
       </defs>
       <use xlink:href="#DejaVuSans-32"/>
       <use xlink:href="#DejaVuSans-2e" transform="translate(63.623047 0)"/>
       <use xlink:href="#DejaVuSans-35" transform="translate(95.410156 0)"/>
      </g>
     </g>
    </g>
    <g id="xtick_3">
     <g id="line2d_5">
      <path d="M 231.92 226.152 
L 231.92 47.76 
" clip-path="url(#pfe5eb6f58b)" style="fill: none; stroke-dasharray: 2.96,1.28; stroke-dashoffset: 0; stroke: #b0b0b0; stroke-opacity: 0.7; stroke-width: 0.8"/>
     </g>
     <g id="line2d_6">
      <g>
       <use xlink:href="#mdd88a4ef11" x="231.92" y="226.152" style="stroke: #000000; stroke-width: 0.8"/>
      </g>
     </g>
     <g id="text_3">
      <!-- 5.0 -->
      <g transform="translate(223.968438 240.750437) scale(0.1 -0.1)">
       <use xlink:href="#DejaVuSans-35"/>
       <use xlink:href="#DejaVuSans-2e" transform="translate(63.623047 0)"/>
       <use xlink:href="#DejaVuSans-30" transform="translate(95.410156 0)"/>
      </g>
     </g>
    </g>
    <g id="xtick_4">
     <g id="line2d_7">
      <path d="M 306.495 226.152 
L 306.495 47.76 
" clip-path="url(#pfe5eb6f58b)" style="fill: none; stroke-dasharray: 2.96,1.28; stroke-dashoffset: 0; stroke: #b0b0b0; stroke-opacity: 0.7; stroke-width: 0.8"/>
     </g>
     <g id="line2d_8">
      <g>
       <use xlink:href="#mdd88a4ef11" x="306.495" y="226.152" style="stroke: #000000; stroke-width: 0.8"/>
      </g>
     </g>
     <g id="text_4">
      <!-- 7.5 -->
      <g transform="translate(298.543438 240.750437) scale(0.1 -0.1)">
       <defs>
        <path id="DejaVuSans-37" d="M 525 4666 
L 3525 4666 
L 3525 4397 
L 1831 0 
L 1172 0 
L 2766 4134 
L 525 4134 
L 525 4666 
z
" transform="scale(0.015625)"/>
       </defs>
       <use xlink:href="#DejaVuSans-37"/>
       <use xlink:href="#DejaVuSans-2e" transform="translate(63.623047 0)"/>
       <use xlink:href="#DejaVuSans-35" transform="translate(95.410156 0)"/>
      </g>
     </g>
    </g>
    <g id="xtick_5">
     <g id="line2d_9">
      <path d="M 381.07 226.152 
L 381.07 47.76 
" clip-path="url(#pfe5eb6f58b)" style="fill: none; stroke-dasharray: 2.96,1.28; stroke-dashoffset: 0; stroke: #b0b0b0; stroke-opacity: 0.7; stroke-width: 0.8"/>
     </g>
     <g id="line2d_10">
      <g>
       <use xlink:href="#mdd88a4ef11" x="381.07" y="226.152" style="stroke: #000000; stroke-width: 0.8"/>
      </g>
     </g>
     <g id="text_5">
      <!-- 10.0 -->
      <g transform="translate(369.937188 240.750437) scale(0.1 -0.1)">
       <defs>
        <path id="DejaVuSans-31" d="M 794 531 
L 1825 531 
L 1825 4091 
L 703 3866 
L 703 4441 
L 1819 4666 
L 2450 4666 
L 2450 531 
L 3481 531 
L 3481 0 
L 794 0 
L 794 531 
z
" transform="scale(0.015625)"/>
       </defs>
       <use xlink:href="#DejaVuSans-31"/>
       <use xlink:href="#DejaVuSans-30" transform="translate(63.623047 0)"/>
       <use xlink:href="#DejaVuSans-2e" transform="translate(127.246094 0)"/>
       <use xlink:href="#DejaVuSans-30" transform="translate(159.033203 0)"/>
      </g>
     </g>
    </g>
    <g id="xtick_6">
     <g id="line2d_11">
      <path d="M 455.645 226.152 
L 455.645 47.76 
" clip-path="url(#pfe5eb6f58b)" style="fill: none; stroke-dasharray: 2.96,1.28; stroke-dashoffset: 0; stroke: #b0b0b0; stroke-opacity: 0.7; stroke-width: 0.8"/>
     </g>
     <g id="line2d_12">
      <g>
       <use xlink:href="#mdd88a4ef11" x="455.645" y="226.152" style="stroke: #000000; stroke-width: 0.8"/>
      </g>
     </g>
     <g id="text_6">
      <!-- 12.5 -->
      <g transform="translate(444.512188 240.750437) scale(0.1 -0.1)">
       <use xlink:href="#DejaVuSans-31"/>
       <use xlink:href="#DejaVuSans-32" transform="translate(63.623047 0)"/>
       <use xlink:href="#DejaVuSans-2e" transform="translate(127.246094 0)"/>
       <use xlink:href="#DejaVuSans-35" transform="translate(159.033203 0)"/>
      </g>
     </g>
    </g>
    <g id="xtick_7">
     <g id="line2d_13">
      <path d="M 530.22 226.152 
L 530.22 47.76 
" clip-path="url(#pfe5eb6f58b)" style="fill: none; stroke-dasharray: 2.96,1.28; stroke-dashoffset: 0; stroke: #b0b0b0; stroke-opacity: 0.7; stroke-width: 0.8"/>
     </g>
     <g id="line2d_14">
      <g>
       <use xlink:href="#mdd88a4ef11" x="530.22" y="226.152" style="stroke: #000000; stroke-width: 0.8"/>
      </g>
     </g>
     <g id="text_7">
      <!-- 15.0 -->
      <g transform="translate(519.087188 240.750437) scale(0.1 -0.1)">
       <use xlink:href="#DejaVuSans-31"/>
       <use xlink:href="#DejaVuSans-35" transform="translate(63.623047 0)"/>
       <use xlink:href="#DejaVuSans-2e" transform="translate(127.246094 0)"/>
       <use xlink:href="#DejaVuSans-30" transform="translate(159.033203 0)"/>
      </g>
     </g>
    </g>
    <g id="xtick_8">
     <g id="line2d_15">
      <path d="M 604.795 226.152 
L 604.795 47.76 
" clip-path="url(#pfe5eb6f58b)" style="fill: none; stroke-dasharray: 2.96,1.28; stroke-dashoffset: 0; stroke: #b0b0b0; stroke-opacity: 0.7; stroke-width: 0.8"/>
     </g>
     <g id="line2d_16">
      <g>
       <use xlink:href="#mdd88a4ef11" x="604.795" y="226.152" style="stroke: #000000; stroke-width: 0.8"/>
      </g>
     </g>
     <g id="text_8">
      <!-- 17.5 -->
      <g transform="translate(593.662188 240.750437) scale(0.1 -0.1)">
       <use xlink:href="#DejaVuSans-31"/>
       <use xlink:href="#DejaVuSans-37" transform="translate(63.623047 0)"/>
       <use xlink:href="#DejaVuSans-2e" transform="translate(127.246094 0)"/>
       <use xlink:href="#DejaVuSans-35" transform="translate(159.033203 0)"/>
      </g>
     </g>
    </g>
    <g id="xtick_9">
     <g id="line2d_17">
      <path d="M 679.37 226.152 
L 679.37 47.76 
" clip-path="url(#pfe5eb6f58b)" style="fill: none; stroke-dasharray: 2.96,1.28; stroke-dashoffset: 0; stroke: #b0b0b0; stroke-opacity: 0.7; stroke-width: 0.8"/>
     </g>
     <g id="line2d_18">
      <g>
       <use xlink:href="#mdd88a4ef11" x="679.37" y="226.152" style="stroke: #000000; stroke-width: 0.8"/>
      </g>
     </g>
     <g id="text_9">
      <!-- 20.0 -->
      <g transform="translate(668.237188 240.750437) scale(0.1 -0.1)">
       <use xlink:href="#DejaVuSans-32"/>
       <use xlink:href="#DejaVuSans-30" transform="translate(63.623047 0)"/>
       <use xlink:href="#DejaVuSans-2e" transform="translate(127.246094 0)"/>
       <use xlink:href="#DejaVuSans-30" transform="translate(159.033203 0)"/>
      </g>
     </g>
    </g>
    <g id="text_10">
     <!-- Time (ms) -->
     <g transform="translate(355.870781 254.428562) scale(0.1 -0.1)">
      <defs>
       <path id="DejaVuSans-54" d="M -19 4666 
L 3928 4666 
L 3928 4134 
L 2272 4134 
L 2272 0 
L 1638 0 
L 1638 4134 
L -19 4134 
L -19 4666 
z
" transform="scale(0.015625)"/>
       <path id="DejaVuSans-69" d="M 603 3500 
L 1178 3500 
L 1178 0 
L 603 0 
L 603 3500 
z
M 603 4863 
L 1178 4863 
L 1178 4134 
L 603 4134 
L 603 4863 
z
" transform="scale(0.015625)"/>
       <path id="DejaVuSans-6d" d="M 3328 2828 
Q 3544 3216 3844 3400 
Q 4144 3584 4550 3584 
Q 5097 3584 5394 3201 
Q 5691 2819 5691 2113 
L 5691 0 
L 5113 0 
L 5113 2094 
Q 5113 2597 4934 2840 
Q 4756 3084 4391 3084 
Q 3944 3084 3684 2787 
Q 3425 2491 3425 1978 
L 3425 0 
L 2847 0 
L 2847 2094 
Q 2847 2600 2669 2842 
Q 2491 3084 2119 3084 
Q 1678 3084 1418 2786 
Q 1159 2488 1159 1978 
L 1159 0 
L 581 0 
L 581 3500 
L 1159 3500 
L 1159 2956 
Q 1356 3278 1631 3431 
Q 1906 3584 2284 3584 
Q 2666 3584 2933 3390 
Q 3200 3197 3328 2828 
z
" transform="scale(0.015625)"/>
       <path id="DejaVuSans-65" d="M 3597 1894 
L 3597 1613 
L 953 1613 
Q 991 1019 1311 708 
Q 1631 397 2203 397 
Q 2534 397 2845 478 
Q 3156 559 3463 722 
L 3463 178 
Q 3153 47 2828 -22 
Q 2503 -91 2169 -91 
Q 1331 -91 842 396 
Q 353 884 353 1716 
Q 353 2575 817 3079 
Q 1281 3584 2069 3584 
Q 2775 3584 3186 3129 
Q 3597 2675 3597 1894 
z
M 3022 2063 
Q 3016 2534 2758 2815 
Q 2500 3097 2075 3097 
Q 1594 3097 1305 2825 
Q 1016 2553 972 2059 
L 3022 2063 
z
" transform="scale(0.015625)"/>
       <path id="DejaVuSans-20" transform="scale(0.015625)"/>
       <path id="DejaVuSans-28" d="M 1984 4856 
Q 1566 4138 1362 3434 
Q 1159 2731 1159 2009 
Q 1159 1288 1364 580 
Q 1569 -128 1984 -844 
L 1484 -844 
Q 1016 -109 783 600 
Q 550 1309 550 2009 
Q 550 2706 781 3412 
Q 1013 4119 1484 4856 
L 1984 4856 
z
" transform="scale(0.015625)"/>
       <path id="DejaVuSans-73" d="M 2834 3397 
L 2834 2853 
Q 2591 2978 2328 3040 
Q 2066 3103 1784 3103 
Q 1356 3103 1142 2972 
Q 928 2841 928 2578 
Q 928 2378 1081 2264 
Q 1234 2150 1697 2047 
L 1894 2003 
Q 2506 1872 2764 1633 
Q 3022 1394 3022 966 
Q 3022 478 2636 193 
Q 2250 -91 1575 -91 
Q 1294 -91 989 -36 
Q 684 19 347 128 
L 347 722 
Q 666 556 975 473 
Q 1284 391 1588 391 
Q 1994 391 2212 530 
Q 2431 669 2431 922 
Q 2431 1156 2273 1281 
Q 2116 1406 1581 1522 
L 1381 1569 
Q 847 1681 609 1914 
Q 372 2147 372 2553 
Q 372 3047 722 3315 
Q 1072 3584 1716 3584 
Q 2034 3584 2315 3537 
Q 2597 3491 2834 3397 
z
" transform="scale(0.015625)"/>
       <path id="DejaVuSans-29" d="M 513 4856 
L 1013 4856 
Q 1481 4119 1714 3412 
Q 1947 2706 1947 2009 
Q 1947 1309 1714 600 
Q 1481 -109 1013 -844 
L 513 -844 
Q 928 -128 1133 580 
Q 1338 1288 1338 2009 
Q 1338 2731 1133 3434 
Q 928 4138 513 4856 
z
" transform="scale(0.015625)"/>
      </defs>
      <use xlink:href="#DejaVuSans-54"/>
      <use xlink:href="#DejaVuSans-69" transform="translate(57.958984 0)"/>
      <use xlink:href="#DejaVuSans-6d" transform="translate(85.742188 0)"/>
      <use xlink:href="#DejaVuSans-65" transform="translate(183.154297 0)"/>
      <use xlink:href="#DejaVuSans-20" transform="translate(244.677734 0)"/>
      <use xlink:href="#DejaVuSans-28" transform="translate(276.464844 0)"/>
      <use xlink:href="#DejaVuSans-6d" transform="translate(315.478516 0)"/>
      <use xlink:href="#DejaVuSans-73" transform="translate(412.890625 0)"/>
      <use xlink:href="#DejaVuSans-29" transform="translate(464.990234 0)"/>
     </g>
    </g>
   </g>
   <g id="matplotlib.axis_2">
    <g id="ytick_1">
     <g id="line2d_19">
      <path d="M 52.94 214.162826 
L 709.2 214.162826 
" clip-path="url(#pfe5eb6f58b)" style="fill: none; stroke-dasharray: 2.96,1.28; stroke-dashoffset: 0; stroke: #b0b0b0; stroke-opacity: 0.7; stroke-width: 0.8"/>
     </g>
     <g id="line2d_20">
      <defs>
       <path id="mdb8352037f" d="M 0 0 
L -3.5 0 
" style="stroke: #000000; stroke-width: 0.8"/>
      </defs>
      <g>
       <use xlink:href="#mdb8352037f" x="52.94" y="214.162826" style="stroke: #000000; stroke-width: 0.8"/>
      </g>
     </g>
     <g id="text_11">
      <!-- −66 -->
      <g transform="translate(24.835313 217.962045) scale(0.1 -0.1)">
       <defs>
        <path id="DejaVuSans-2212" d="M 678 2272 
L 4684 2272 
L 4684 1741 
L 678 1741 
L 678 2272 
z
" transform="scale(0.015625)"/>
        <path id="DejaVuSans-36" d="M 2113 2584 
Q 1688 2584 1439 2293 
Q 1191 2003 1191 1497 
Q 1191 994 1439 701 
Q 1688 409 2113 409 
Q 2538 409 2786 701 
Q 3034 994 3034 1497 
Q 3034 2003 2786 2293 
Q 2538 2584 2113 2584 
z
M 3366 4563 
L 3366 3988 
Q 3128 4100 2886 4159 
Q 2644 4219 2406 4219 
Q 1781 4219 1451 3797 
Q 1122 3375 1075 2522 
Q 1259 2794 1537 2939 
Q 1816 3084 2150 3084 
Q 2853 3084 3261 2657 
Q 3669 2231 3669 1497 
Q 3669 778 3244 343 
Q 2819 -91 2113 -91 
Q 1303 -91 875 529 
Q 447 1150 447 2328 
Q 447 3434 972 4092 
Q 1497 4750 2381 4750 
Q 2619 4750 2861 4703 
Q 3103 4656 3366 4563 
z
" transform="scale(0.015625)"/>
       </defs>
       <use xlink:href="#DejaVuSans-2212"/>
       <use xlink:href="#DejaVuSans-36" transform="translate(83.789062 0)"/>
       <use xlink:href="#DejaVuSans-36" transform="translate(147.412109 0)"/>
      </g>
     </g>
    </g>
    <g id="ytick_2">
     <g id="line2d_21">
      <path d="M 52.94 187.075557 
L 709.2 187.075557 
" clip-path="url(#pfe5eb6f58b)" style="fill: none; stroke-dasharray: 2.96,1.28; stroke-dashoffset: 0; stroke: #b0b0b0; stroke-opacity: 0.7; stroke-width: 0.8"/>
     </g>
     <g id="line2d_22">
      <g>
       <use xlink:href="#mdb8352037f" x="52.94" y="187.075557" style="stroke: #000000; stroke-width: 0.8"/>
      </g>
     </g>
     <g id="text_12">
      <!-- −64 -->
      <g transform="translate(24.835313 190.874776) scale(0.1 -0.1)">
       <defs>
        <path id="DejaVuSans-34" d="M 2419 4116 
L 825 1625 
L 2419 1625 
L 2419 4116 
z
M 2253 4666 
L 3047 4666 
L 3047 1625 
L 3713 1625 
L 3713 1100 
L 3047 1100 
L 3047 0 
L 2419 0 
L 2419 1100 
L 313 1100 
L 313 1709 
L 2253 4666 
z
" transform="scale(0.015625)"/>
       </defs>
       <use xlink:href="#DejaVuSans-2212"/>
       <use xlink:href="#DejaVuSans-36" transform="translate(83.789062 0)"/>
       <use xlink:href="#DejaVuSans-34" transform="translate(147.412109 0)"/>
      </g>
     </g>
    </g>
    <g id="ytick_3">
     <g id="line2d_23">
      <path d="M 52.94 159.988288 
L 709.2 159.988288 
" clip-path="url(#pfe5eb6f58b)" style="fill: none; stroke-dasharray: 2.96,1.28; stroke-dashoffset: 0; stroke: #b0b0b0; stroke-opacity: 0.7; stroke-width: 0.8"/>
     </g>
     <g id="line2d_24">
      <g>
       <use xlink:href="#mdb8352037f" x="52.94" y="159.988288" style="stroke: #000000; stroke-width: 0.8"/>
      </g>
     </g>
     <g id="text_13">
      <!-- −62 -->
      <g transform="translate(24.835313 163.787507) scale(0.1 -0.1)">
       <use xlink:href="#DejaVuSans-2212"/>
       <use xlink:href="#DejaVuSans-36" transform="translate(83.789062 0)"/>
       <use xlink:href="#DejaVuSans-32" transform="translate(147.412109 0)"/>
      </g>
     </g>
    </g>
    <g id="ytick_4">
     <g id="line2d_25">
      <path d="M 52.94 132.90102 
L 709.2 132.90102 
" clip-path="url(#pfe5eb6f58b)" style="fill: none; stroke-dasharray: 2.96,1.28; stroke-dashoffset: 0; stroke: #b0b0b0; stroke-opacity: 0.7; stroke-width: 0.8"/>
     </g>
     <g id="line2d_26">
      <g>
       <use xlink:href="#mdb8352037f" x="52.94" y="132.90102" style="stroke: #000000; stroke-width: 0.8"/>
      </g>
     </g>
     <g id="text_14">
      <!-- −60 -->
      <g transform="translate(24.835313 136.700238) scale(0.1 -0.1)">
       <use xlink:href="#DejaVuSans-2212"/>
       <use xlink:href="#DejaVuSans-36" transform="translate(83.789062 0)"/>
       <use xlink:href="#DejaVuSans-30" transform="translate(147.412109 0)"/>
      </g>
     </g>
    </g>
    <g id="ytick_5">
     <g id="line2d_27">
      <path d="M 52.94 105.813751 
L 709.2 105.813751 
" clip-path="url(#pfe5eb6f58b)" style="fill: none; stroke-dasharray: 2.96,1.28; stroke-dashoffset: 0; stroke: #b0b0b0; stroke-opacity: 0.7; stroke-width: 0.8"/>
     </g>
     <g id="line2d_28">
      <g>
       <use xlink:href="#mdb8352037f" x="52.94" y="105.813751" style="stroke: #000000; stroke-width: 0.8"/>
      </g>
     </g>
     <g id="text_15">
      <!-- −58 -->
      <g transform="translate(24.835313 109.61297) scale(0.1 -0.1)">
       <defs>
        <path id="DejaVuSans-38" d="M 2034 2216 
Q 1584 2216 1326 1975 
Q 1069 1734 1069 1313 
Q 1069 891 1326 650 
Q 1584 409 2034 409 
Q 2484 409 2743 651 
Q 3003 894 3003 1313 
Q 3003 1734 2745 1975 
Q 2488 2216 2034 2216 
z
M 1403 2484 
Q 997 2584 770 2862 
Q 544 3141 544 3541 
Q 544 4100 942 4425 
Q 1341 4750 2034 4750 
Q 2731 4750 3128 4425 
Q 3525 4100 3525 3541 
Q 3525 3141 3298 2862 
Q 3072 2584 2669 2484 
Q 3125 2378 3379 2068 
Q 3634 1759 3634 1313 
Q 3634 634 3220 271 
Q 2806 -91 2034 -91 
Q 1263 -91 848 271 
Q 434 634 434 1313 
Q 434 1759 690 2068 
Q 947 2378 1403 2484 
z
M 1172 3481 
Q 1172 3119 1398 2916 
Q 1625 2713 2034 2713 
Q 2441 2713 2670 2916 
Q 2900 3119 2900 3481 
Q 2900 3844 2670 4047 
Q 2441 4250 2034 4250 
Q 1625 4250 1398 4047 
Q 1172 3844 1172 3481 
z
" transform="scale(0.015625)"/>
       </defs>
       <use xlink:href="#DejaVuSans-2212"/>
       <use xlink:href="#DejaVuSans-35" transform="translate(83.789062 0)"/>
       <use xlink:href="#DejaVuSans-38" transform="translate(147.412109 0)"/>
      </g>
     </g>
    </g>
    <g id="ytick_6">
     <g id="line2d_29">
      <path d="M 52.94 78.726482 
L 709.2 78.726482 
" clip-path="url(#pfe5eb6f58b)" style="fill: none; stroke-dasharray: 2.96,1.28; stroke-dashoffset: 0; stroke: #b0b0b0; stroke-opacity: 0.7; stroke-width: 0.8"/>
     </g>
     <g id="line2d_30">
      <g>
       <use xlink:href="#mdb8352037f" x="52.94" y="78.726482" style="stroke: #000000; stroke-width: 0.8"/>
      </g>
     </g>
     <g id="text_16">
      <!-- −56 -->
      <g transform="translate(24.835313 82.525701) scale(0.1 -0.1)">
       <use xlink:href="#DejaVuSans-2212"/>
       <use xlink:href="#DejaVuSans-35" transform="translate(83.789062 0)"/>
       <use xlink:href="#DejaVuSans-36" transform="translate(147.412109 0)"/>
      </g>
     </g>
    </g>
    <g id="ytick_7">
     <g id="line2d_31">
      <path d="M 52.94 51.639214 
L 709.2 51.639214 
" clip-path="url(#pfe5eb6f58b)" style="fill: none; stroke-dasharray: 2.96,1.28; stroke-dashoffset: 0; stroke: #b0b0b0; stroke-opacity: 0.7; stroke-width: 0.8"/>
     </g>
     <g id="line2d_32">
      <g>
       <use xlink:href="#mdb8352037f" x="52.94" y="51.639214" style="stroke: #000000; stroke-width: 0.8"/>
      </g>
     </g>
     <g id="text_17">
      <!-- −54 -->
      <g transform="translate(24.835313 55.438432) scale(0.1 -0.1)">
       <use xlink:href="#DejaVuSans-2212"/>
       <use xlink:href="#DejaVuSans-35" transform="translate(83.789062 0)"/>
       <use xlink:href="#DejaVuSans-34" transform="translate(147.412109 0)"/>
      </g>
     </g>
    </g>
    <g id="text_18">
     <!-- Membrane Potential (mV) -->
     <g transform="translate(18.755625 201.027094) rotate(-90) scale(0.1 -0.1)">
      <defs>
       <path id="DejaVuSans-4d" d="M 628 4666 
L 1569 4666 
L 2759 1491 
L 3956 4666 
L 4897 4666 
L 4897 0 
L 4281 0 
L 4281 4097 
L 3078 897 
L 2444 897 
L 1241 4097 
L 1241 0 
L 628 0 
L 628 4666 
z
" transform="scale(0.015625)"/>
       <path id="DejaVuSans-62" d="M 3116 1747 
Q 3116 2381 2855 2742 
Q 2594 3103 2138 3103 
Q 1681 3103 1420 2742 
Q 1159 2381 1159 1747 
Q 1159 1113 1420 752 
Q 1681 391 2138 391 
Q 2594 391 2855 752 
Q 3116 1113 3116 1747 
z
M 1159 2969 
Q 1341 3281 1617 3432 
Q 1894 3584 2278 3584 
Q 2916 3584 3314 3078 
Q 3713 2572 3713 1747 
Q 3713 922 3314 415 
Q 2916 -91 2278 -91 
Q 1894 -91 1617 61 
Q 1341 213 1159 525 
L 1159 0 
L 581 0 
L 581 4863 
L 1159 4863 
L 1159 2969 
z
" transform="scale(0.015625)"/>
       <path id="DejaVuSans-72" d="M 2631 2963 
Q 2534 3019 2420 3045 
Q 2306 3072 2169 3072 
Q 1681 3072 1420 2755 
Q 1159 2438 1159 1844 
L 1159 0 
L 581 0 
L 581 3500 
L 1159 3500 
L 1159 2956 
Q 1341 3275 1631 3429 
Q 1922 3584 2338 3584 
Q 2397 3584 2469 3576 
Q 2541 3569 2628 3553 
L 2631 2963 
z
" transform="scale(0.015625)"/>
       <path id="DejaVuSans-61" d="M 2194 1759 
Q 1497 1759 1228 1600 
Q 959 1441 959 1056 
Q 959 750 1161 570 
Q 1363 391 1709 391 
Q 2188 391 2477 730 
Q 2766 1069 2766 1631 
L 2766 1759 
L 2194 1759 
z
M 3341 1997 
L 3341 0 
L 2766 0 
L 2766 531 
Q 2569 213 2275 61 
Q 1981 -91 1556 -91 
Q 1019 -91 701 211 
Q 384 513 384 1019 
Q 384 1609 779 1909 
Q 1175 2209 1959 2209 
L 2766 2209 
L 2766 2266 
Q 2766 2663 2505 2880 
Q 2244 3097 1772 3097 
Q 1472 3097 1187 3025 
Q 903 2953 641 2809 
L 641 3341 
Q 956 3463 1253 3523 
Q 1550 3584 1831 3584 
Q 2591 3584 2966 3190 
Q 3341 2797 3341 1997 
z
" transform="scale(0.015625)"/>
       <path id="DejaVuSans-6e" d="M 3513 2113 
L 3513 0 
L 2938 0 
L 2938 2094 
Q 2938 2591 2744 2837 
Q 2550 3084 2163 3084 
Q 1697 3084 1428 2787 
Q 1159 2491 1159 1978 
L 1159 0 
L 581 0 
L 581 3500 
L 1159 3500 
L 1159 2956 
Q 1366 3272 1645 3428 
Q 1925 3584 2291 3584 
Q 2894 3584 3203 3211 
Q 3513 2838 3513 2113 
z
" transform="scale(0.015625)"/>
       <path id="DejaVuSans-50" d="M 1259 4147 
L 1259 2394 
L 2053 2394 
Q 2494 2394 2734 2622 
Q 2975 2850 2975 3272 
Q 2975 3691 2734 3919 
Q 2494 4147 2053 4147 
L 1259 4147 
z
M 628 4666 
L 2053 4666 
Q 2838 4666 3239 4311 
Q 3641 3956 3641 3272 
Q 3641 2581 3239 2228 
Q 2838 1875 2053 1875 
L 1259 1875 
L 1259 0 
L 628 0 
L 628 4666 
z
" transform="scale(0.015625)"/>
       <path id="DejaVuSans-6f" d="M 1959 3097 
Q 1497 3097 1228 2736 
Q 959 2375 959 1747 
Q 959 1119 1226 758 
Q 1494 397 1959 397 
Q 2419 397 2687 759 
Q 2956 1122 2956 1747 
Q 2956 2369 2687 2733 
Q 2419 3097 1959 3097 
z
M 1959 3584 
Q 2709 3584 3137 3096 
Q 3566 2609 3566 1747 
Q 3566 888 3137 398 
Q 2709 -91 1959 -91 
Q 1206 -91 779 398 
Q 353 888 353 1747 
Q 353 2609 779 3096 
Q 1206 3584 1959 3584 
z
" transform="scale(0.015625)"/>
       <path id="DejaVuSans-74" d="M 1172 4494 
L 1172 3500 
L 2356 3500 
L 2356 3053 
L 1172 3053 
L 1172 1153 
Q 1172 725 1289 603 
Q 1406 481 1766 481 
L 2356 481 
L 2356 0 
L 1766 0 
Q 1100 0 847 248 
Q 594 497 594 1153 
L 594 3053 
L 172 3053 
L 172 3500 
L 594 3500 
L 594 4494 
L 1172 4494 
z
" transform="scale(0.015625)"/>
       <path id="DejaVuSans-6c" d="M 603 4863 
L 1178 4863 
L 1178 0 
L 603 0 
L 603 4863 
z
" transform="scale(0.015625)"/>
       <path id="DejaVuSans-56" d="M 1831 0 
L 50 4666 
L 709 4666 
L 2188 738 
L 3669 4666 
L 4325 4666 
L 2547 0 
L 1831 0 
z
" transform="scale(0.015625)"/>
      </defs>
      <use xlink:href="#DejaVuSans-4d"/>
      <use xlink:href="#DejaVuSans-65" transform="translate(86.279297 0)"/>
      <use xlink:href="#DejaVuSans-6d" transform="translate(147.802734 0)"/>
      <use xlink:href="#DejaVuSans-62" transform="translate(245.214844 0)"/>
      <use xlink:href="#DejaVuSans-72" transform="translate(308.691406 0)"/>
      <use xlink:href="#DejaVuSans-61" transform="translate(349.804688 0)"/>
      <use xlink:href="#DejaVuSans-6e" transform="translate(411.083984 0)"/>
      <use xlink:href="#DejaVuSans-65" transform="translate(474.462891 0)"/>
      <use xlink:href="#DejaVuSans-20" transform="translate(535.986328 0)"/>
      <use xlink:href="#DejaVuSans-50" transform="translate(567.773438 0)"/>
      <use xlink:href="#DejaVuSans-6f" transform="translate(624.451172 0)"/>
      <use xlink:href="#DejaVuSans-74" transform="translate(685.632812 0)"/>
      <use xlink:href="#DejaVuSans-65" transform="translate(724.841797 0)"/>
      <use xlink:href="#DejaVuSans-6e" transform="translate(786.365234 0)"/>
      <use xlink:href="#DejaVuSans-74" transform="translate(849.744141 0)"/>
      <use xlink:href="#DejaVuSans-69" transform="translate(888.953125 0)"/>
      <use xlink:href="#DejaVuSans-61" transform="translate(916.736328 0)"/>
      <use xlink:href="#DejaVuSans-6c" transform="translate(978.015625 0)"/>
      <use xlink:href="#DejaVuSans-20" transform="translate(1005.798828 0)"/>
      <use xlink:href="#DejaVuSans-28" transform="translate(1037.585938 0)"/>
      <use xlink:href="#DejaVuSans-6d" transform="translate(1076.599609 0)"/>
      <use xlink:href="#DejaVuSans-56" transform="translate(1174.011719 0)"/>
      <use xlink:href="#DejaVuSans-29" transform="translate(1242.419922 0)"/>
     </g>
    </g>
   </g>
   <g id="line2d_33">
    <path d="M 82.77 200.619191 
L 120.0575 200.222223 
L 142.43 200.06333 
L 145.413 158.604742 
L 147.65025 160.235933 
L 149.8875 161.505886 
L 152.12475 162.499134 
L 155.10775 163.520035 
L 158.8365 164.49678 
L 164.8025 165.766412 
L 174.49725 167.833789 
L 181.209 169.513449 
L 187.92075 171.446166 
L 194.6325 173.622972 
L 202.09 176.286588 
L 211.039 179.721815 
L 225.954 185.724966 
L 240.12325 191.352355 
L 249.07225 194.667136 
L 257.2755 197.467302 
L 264.733 199.786218 
L 272.1905 201.8729 
L 279.648 203.71211 
L 287.1055 205.298808 
L 294.563 206.639111 
L 302.0205 207.744627 
L 309.478 208.629995 
L 317.68125 209.369195 
L 325.8845 209.884824 
L 334.8335 210.219772 
L 344.52825 210.348317 
L 354.96875 210.254818 
L 366.155 209.934739 
L 379.5785 209.315673 
L 395.23925 208.360668 
L 416.866 206.800752 
L 472.0515 202.728163 
L 493.67825 201.413175 
L 513.8135 200.416023 
L 533.94875 199.644786 
L 554.084 199.091258 
L 574.965 198.736829 
L 597.3375 198.578876 
L 622.693 198.626034 
L 654.76025 198.923691 
L 679.37 199.249545 
L 679.37 199.249545 
" clip-path="url(#pfe5eb6f58b)" style="fill: none; stroke: #008000; stroke-width: 2; stroke-linecap: square"/>
   </g>
   <g id="line2d_34">
    <path d="M 82.77 200.619191 
L 87.2445 202.899992 
L 91.719 204.958298 
L 96.93925 207.098415 
L 102.1595 208.979164 
L 107.37975 210.622685 
L 112.6 212.050011 
L 118.566 213.441902 
L 124.532 214.604897 
L 131.24375 215.671342 
L 137.9555 216.513479 
L 142.43 216.965175 
L 145.413 175.816075 
L 149.8875 180.069903 
L 154.362 184.014613 
L 158.8365 187.659082 
L 163.311 191.014128 
L 167.7855 194.092082 
L 172.26 196.906266 
L 176.7345 199.470625 
L 181.209 201.799438 
L 185.6835 203.907117 
L 190.90375 206.105697 
L 196.124 208.04503 
L 201.34425 209.746571 
L 206.5645 211.230813 
L 212.5305 212.685865 
L 218.4965 213.909572 
L 225.20825 215.040956 
L 231.92 215.94419 
L 239.3775 216.716285 
L 247.58075 217.326036 
L 256.52975 217.753379 
L 266.2245 217.989881 
L 277.41075 218.035069 
L 290.83425 217.853707 
L 307.9865 217.378333 
L 334.08775 216.400797 
L 384.79875 214.489602 
L 413.883 213.640399 
L 442.96725 213.01287 
L 475.0345 212.548606 
L 512.322 212.238068 
L 561.5415 212.067074 
L 643.574 212.039974 
L 679.37 212.056189 
L 679.37 212.056189 
" clip-path="url(#pfe5eb6f58b)" style="fill: none; stroke: #0000ff; stroke-width: 2; stroke-linecap: square"/>
   </g>
   <g id="line2d_35">
    <path d="M 82.77 200.619191 
L 87.99025 193.234258 
L 93.2105 186.22566 
L 98.43075 179.574218 
L 103.651 173.261732 
L 108.87125 167.270929 
L 114.0915 161.585416 
L 119.31175 156.189635 
L 125.27775 150.358898 
L 131.24375 144.866487 
L 137.20975 139.692771 
L 142.43 135.412635 
L 145.413 90.75113 
L 153.61625 87.9856 
L 162.56525 85.216925 
L 171.51425 82.685697 
L 181.209 80.187909 
L 190.90375 77.921336 
L 201.34425 75.714482 
L 212.5305 73.592642 
L 223.71675 71.695775 
L 235.64875 69.893593 
L 248.3265 68.200747 
L 261.75 66.627895 
L 276.665 65.111312 
L 292.32575 63.744926 
L 309.478 62.474997 
L 328.12175 61.320994 
L 349.00275 60.260295 
L 372.121 59.317874 
L 398.22225 58.485859 
L 428.05225 57.766722 
L 463.1025 57.155352 
L 504.8645 56.658522 
L 557.067 56.269069 
L 627.1675 55.983085 
L 679.37 55.868727 
L 679.37 55.868727 
" clip-path="url(#pfe5eb6f58b)" style="fill: none; stroke: #ff0000; stroke-width: 2; stroke-linecap: square"/>
   </g>
   <g id="patch_3">
    <path d="M 52.94 226.152 
L 52.94 47.76 
" style="fill: none; stroke: #000000; stroke-width: 0.8; stroke-linejoin: miter; stroke-linecap: square"/>
   </g>
   <g id="patch_4">
    <path d="M 709.2 226.152 
L 709.2 47.76 
" style="fill: none; stroke: #000000; stroke-width: 0.8; stroke-linejoin: miter; stroke-linecap: square"/>
   </g>
   <g id="patch_5">
    <path d="M 52.94 226.152 
L 709.2 226.152 
" style="fill: none; stroke: #000000; stroke-width: 0.8; stroke-linejoin: miter; stroke-linecap: square"/>
   </g>
   <g id="patch_6">
    <path d="M 52.94 47.76 
L 709.2 47.76 
" style="fill: none; stroke: #000000; stroke-width: 0.8; stroke-linejoin: miter; stroke-linecap: square"/>
   </g>
   <g id="text_19">
    <g id="patch_7">
     <path d="M 178.397344 311.508087 
L 583.742656 311.508087 
Q 586.742656 311.508087 586.742656 308.508087 
L 586.742656 265.236525 
Q 586.742656 262.236525 583.742656 262.236525 
L 178.397344 262.236525 
Q 175.397344 262.236525 175.397344 265.236525 
L 175.397344 308.508087 
Q 175.397344 311.508087 178.397344 311.508087 
z
" style="fill: #ffffff; opacity: 0.8; stroke: #000000; stroke-linejoin: miter"/>
    </g>
    <!-- By selectively eliminating this essential component while preserving -->
    <g transform="translate(209.410625 272.834962) scale(0.1 -0.1)">
     <defs>
      <path id="DejaVuSans-42" d="M 1259 2228 
L 1259 519 
L 2272 519 
Q 2781 519 3026 730 
Q 3272 941 3272 1375 
Q 3272 1813 3026 2020 
Q 2781 2228 2272 2228 
L 1259 2228 
z
M 1259 4147 
L 1259 2741 
L 2194 2741 
Q 2656 2741 2882 2914 
Q 3109 3088 3109 3444 
Q 3109 3797 2882 3972 
Q 2656 4147 2194 4147 
L 1259 4147 
z
M 628 4666 
L 2241 4666 
Q 2963 4666 3353 4366 
Q 3744 4066 3744 3513 
Q 3744 3084 3544 2831 
Q 3344 2578 2956 2516 
Q 3422 2416 3680 2098 
Q 3938 1781 3938 1306 
Q 3938 681 3513 340 
Q 3088 0 2303 0 
L 628 0 
L 628 4666 
z
" transform="scale(0.015625)"/>
      <path id="DejaVuSans-79" d="M 2059 -325 
Q 1816 -950 1584 -1140 
Q 1353 -1331 966 -1331 
L 506 -1331 
L 506 -850 
L 844 -850 
Q 1081 -850 1212 -737 
Q 1344 -625 1503 -206 
L 1606 56 
L 191 3500 
L 800 3500 
L 1894 763 
L 2988 3500 
L 3597 3500 
L 2059 -325 
z
" transform="scale(0.015625)"/>
      <path id="DejaVuSans-63" d="M 3122 3366 
L 3122 2828 
Q 2878 2963 2633 3030 
Q 2388 3097 2138 3097 
Q 1578 3097 1268 2742 
Q 959 2388 959 1747 
Q 959 1106 1268 751 
Q 1578 397 2138 397 
Q 2388 397 2633 464 
Q 2878 531 3122 666 
L 3122 134 
Q 2881 22 2623 -34 
Q 2366 -91 2075 -91 
Q 1284 -91 818 406 
Q 353 903 353 1747 
Q 353 2603 823 3093 
Q 1294 3584 2113 3584 
Q 2378 3584 2631 3529 
Q 2884 3475 3122 3366 
z
" transform="scale(0.015625)"/>
      <path id="DejaVuSans-76" d="M 191 3500 
L 800 3500 
L 1894 563 
L 2988 3500 
L 3597 3500 
L 2284 0 
L 1503 0 
L 191 3500 
z
" transform="scale(0.015625)"/>
      <path id="DejaVuSans-67" d="M 2906 1791 
Q 2906 2416 2648 2759 
Q 2391 3103 1925 3103 
Q 1463 3103 1205 2759 
Q 947 2416 947 1791 
Q 947 1169 1205 825 
Q 1463 481 1925 481 
Q 2391 481 2648 825 
Q 2906 1169 2906 1791 
z
M 3481 434 
Q 3481 -459 3084 -895 
Q 2688 -1331 1869 -1331 
Q 1566 -1331 1297 -1286 
Q 1028 -1241 775 -1147 
L 775 -588 
Q 1028 -725 1275 -790 
Q 1522 -856 1778 -856 
Q 2344 -856 2625 -561 
Q 2906 -266 2906 331 
L 2906 616 
Q 2728 306 2450 153 
Q 2172 0 1784 0 
Q 1141 0 747 490 
Q 353 981 353 1791 
Q 353 2603 747 3093 
Q 1141 3584 1784 3584 
Q 2172 3584 2450 3431 
Q 2728 3278 2906 2969 
L 2906 3500 
L 3481 3500 
L 3481 434 
z
" transform="scale(0.015625)"/>
      <path id="DejaVuSans-68" d="M 3513 2113 
L 3513 0 
L 2938 0 
L 2938 2094 
Q 2938 2591 2744 2837 
Q 2550 3084 2163 3084 
Q 1697 3084 1428 2787 
Q 1159 2491 1159 1978 
L 1159 0 
L 581 0 
L 581 4863 
L 1159 4863 
L 1159 2956 
Q 1366 3272 1645 3428 
Q 1925 3584 2291 3584 
Q 2894 3584 3203 3211 
Q 3513 2838 3513 2113 
z
" transform="scale(0.015625)"/>
      <path id="DejaVuSans-70" d="M 1159 525 
L 1159 -1331 
L 581 -1331 
L 581 3500 
L 1159 3500 
L 1159 2969 
Q 1341 3281 1617 3432 
Q 1894 3584 2278 3584 
Q 2916 3584 3314 3078 
Q 3713 2572 3713 1747 
Q 3713 922 3314 415 
Q 2916 -91 2278 -91 
Q 1894 -91 1617 61 
Q 1341 213 1159 525 
z
M 3116 1747 
Q 3116 2381 2855 2742 
Q 2594 3103 2138 3103 
Q 1681 3103 1420 2742 
Q 1159 2381 1159 1747 
Q 1159 1113 1420 752 
Q 1681 391 2138 391 
Q 2594 391 2855 752 
Q 3116 1113 3116 1747 
z
" transform="scale(0.015625)"/>
      <path id="DejaVuSans-77" d="M 269 3500 
L 844 3500 
L 1563 769 
L 2278 3500 
L 2956 3500 
L 3675 769 
L 4391 3500 
L 4966 3500 
L 4050 0 
L 3372 0 
L 2619 2869 
L 1863 0 
L 1184 0 
L 269 3500 
z
" transform="scale(0.015625)"/>
     </defs>
     <use xlink:href="#DejaVuSans-42"/>
     <use xlink:href="#DejaVuSans-79" transform="translate(68.603516 0)"/>
     <use xlink:href="#DejaVuSans-20" transform="translate(127.783203 0)"/>
     <use xlink:href="#DejaVuSans-73" transform="translate(159.570312 0)"/>
     <use xlink:href="#DejaVuSans-65" transform="translate(211.669922 0)"/>
     <use xlink:href="#DejaVuSans-6c" transform="translate(273.193359 0)"/>
     <use xlink:href="#DejaVuSans-65" transform="translate(300.976562 0)"/>
     <use xlink:href="#DejaVuSans-63" transform="translate(362.5 0)"/>
     <use xlink:href="#DejaVuSans-74" transform="translate(417.480469 0)"/>
     <use xlink:href="#DejaVuSans-69" transform="translate(456.689453 0)"/>
     <use xlink:href="#DejaVuSans-76" transform="translate(484.472656 0)"/>
     <use xlink:href="#DejaVuSans-65" transform="translate(543.652344 0)"/>
     <use xlink:href="#DejaVuSans-6c" transform="translate(605.175781 0)"/>
     <use xlink:href="#DejaVuSans-79" transform="translate(632.958984 0)"/>
     <use xlink:href="#DejaVuSans-20" transform="translate(692.138672 0)"/>
     <use xlink:href="#DejaVuSans-65" transform="translate(723.925781 0)"/>
     <use xlink:href="#DejaVuSans-6c" transform="translate(785.449219 0)"/>
     <use xlink:href="#DejaVuSans-69" transform="translate(813.232422 0)"/>
     <use xlink:href="#DejaVuSans-6d" transform="translate(841.015625 0)"/>
     <use xlink:href="#DejaVuSans-69" transform="translate(938.427734 0)"/>
     <use xlink:href="#DejaVuSans-6e" transform="translate(966.210938 0)"/>
     <use xlink:href="#DejaVuSans-61" transform="translate(1029.589844 0)"/>
     <use xlink:href="#DejaVuSans-74" transform="translate(1090.869141 0)"/>
     <use xlink:href="#DejaVuSans-69" transform="translate(1130.078125 0)"/>
     <use xlink:href="#DejaVuSans-6e" transform="translate(1157.861328 0)"/>
     <use xlink:href="#DejaVuSans-67" transform="translate(1221.240234 0)"/>
     <use xlink:href="#DejaVuSans-20" transform="translate(1284.716797 0)"/>
     <use xlink:href="#DejaVuSans-74" transform="translate(1316.503906 0)"/>
     <use xlink:href="#DejaVuSans-68" transform="translate(1355.712891 0)"/>
     <use xlink:href="#DejaVuSans-69" transform="translate(1419.091797 0)"/>
     <use xlink:href="#DejaVuSans-73" transform="translate(1446.875 0)"/>
     <use xlink:href="#DejaVuSans-20" transform="translate(1498.974609 0)"/>
     <use xlink:href="#DejaVuSans-65" transform="translate(1530.761719 0)"/>
     <use xlink:href="#DejaVuSans-73" transform="translate(1592.285156 0)"/>
     <use xlink:href="#DejaVuSans-73" transform="translate(1644.384766 0)"/>
     <use xlink:href="#DejaVuSans-65" transform="translate(1696.484375 0)"/>
     <use xlink:href="#DejaVuSans-6e" transform="translate(1758.007812 0)"/>
     <use xlink:href="#DejaVuSans-74" transform="translate(1821.386719 0)"/>
     <use xlink:href="#DejaVuSans-69" transform="translate(1860.595703 0)"/>
     <use xlink:href="#DejaVuSans-61" transform="translate(1888.378906 0)"/>
     <use xlink:href="#DejaVuSans-6c" transform="translate(1949.658203 0)"/>
     <use xlink:href="#DejaVuSans-20" transform="translate(1977.441406 0)"/>
     <use xlink:href="#DejaVuSans-63" transform="translate(2009.228516 0)"/>
     <use xlink:href="#DejaVuSans-6f" transform="translate(2064.208984 0)"/>
     <use xlink:href="#DejaVuSans-6d" transform="translate(2125.390625 0)"/>
     <use xlink:href="#DejaVuSans-70" transform="translate(2222.802734 0)"/>
     <use xlink:href="#DejaVuSans-6f" transform="translate(2286.279297 0)"/>
     <use xlink:href="#DejaVuSans-6e" transform="translate(2347.460938 0)"/>
     <use xlink:href="#DejaVuSans-65" transform="translate(2410.839844 0)"/>
     <use xlink:href="#DejaVuSans-6e" transform="translate(2472.363281 0)"/>
     <use xlink:href="#DejaVuSans-74" transform="translate(2535.742188 0)"/>
     <use xlink:href="#DejaVuSans-20" transform="translate(2574.951172 0)"/>
     <use xlink:href="#DejaVuSans-77" transform="translate(2606.738281 0)"/>
     <use xlink:href="#DejaVuSans-68" transform="translate(2688.525391 0)"/>
     <use xlink:href="#DejaVuSans-69" transform="translate(2751.904297 0)"/>
     <use xlink:href="#DejaVuSans-6c" transform="translate(2779.6875 0)"/>
     <use xlink:href="#DejaVuSans-65" transform="translate(2807.470703 0)"/>
     <use xlink:href="#DejaVuSans-20" transform="translate(2868.994141 0)"/>
     <use xlink:href="#DejaVuSans-70" transform="translate(2900.78125 0)"/>
     <use xlink:href="#DejaVuSans-72" transform="translate(2964.257812 0)"/>
     <use xlink:href="#DejaVuSans-65" transform="translate(3003.121094 0)"/>
     <use xlink:href="#DejaVuSans-73" transform="translate(3064.644531 0)"/>
     <use xlink:href="#DejaVuSans-65" transform="translate(3116.744141 0)"/>
     <use xlink:href="#DejaVuSans-72" transform="translate(3178.267578 0)"/>
     <use xlink:href="#DejaVuSans-76" transform="translate(3219.380859 0)"/>
     <use xlink:href="#DejaVuSans-69" transform="translate(3278.560547 0)"/>
     <use xlink:href="#DejaVuSans-6e" transform="translate(3306.34375 0)"/>
     <use xlink:href="#DejaVuSans-67" transform="translate(3369.722656 0)"/>
    </g>
    <!-- repolarisation mechanisms, TTX achieves action potential blockade with minimal -->
    <g transform="translate(178.397344 284.032775) scale(0.1 -0.1)">
     <defs>
      <path id="DejaVuSans-2c" d="M 750 794 
L 1409 794 
L 1409 256 
L 897 -744 
L 494 -744 
L 750 256 
L 750 794 
z
" transform="scale(0.015625)"/>
      <path id="DejaVuSans-58" d="M 403 4666 
L 1081 4666 
L 2241 2931 
L 3406 4666 
L 4084 4666 
L 2584 2425 
L 4184 0 
L 3506 0 
L 2194 1984 
L 872 0 
L 191 0 
L 1856 2491 
L 403 4666 
z
" transform="scale(0.015625)"/>
      <path id="DejaVuSans-6b" d="M 581 4863 
L 1159 4863 
L 1159 1991 
L 2875 3500 
L 3609 3500 
L 1753 1863 
L 3688 0 
L 2938 0 
L 1159 1709 
L 1159 0 
L 581 0 
L 581 4863 
z
" transform="scale(0.015625)"/>
      <path id="DejaVuSans-64" d="M 2906 2969 
L 2906 4863 
L 3481 4863 
L 3481 0 
L 2906 0 
L 2906 525 
Q 2725 213 2448 61 
Q 2172 -91 1784 -91 
Q 1150 -91 751 415 
Q 353 922 353 1747 
Q 353 2572 751 3078 
Q 1150 3584 1784 3584 
Q 2172 3584 2448 3432 
Q 2725 3281 2906 2969 
z
M 947 1747 
Q 947 1113 1208 752 
Q 1469 391 1925 391 
Q 2381 391 2643 752 
Q 2906 1113 2906 1747 
Q 2906 2381 2643 2742 
Q 2381 3103 1925 3103 
Q 1469 3103 1208 2742 
Q 947 2381 947 1747 
z
" transform="scale(0.015625)"/>
     </defs>
     <use xlink:href="#DejaVuSans-72"/>
     <use xlink:href="#DejaVuSans-65" transform="translate(38.863281 0)"/>
     <use xlink:href="#DejaVuSans-70" transform="translate(100.386719 0)"/>
     <use xlink:href="#DejaVuSans-6f" transform="translate(163.863281 0)"/>
     <use xlink:href="#DejaVuSans-6c" transform="translate(225.044922 0)"/>
     <use xlink:href="#DejaVuSans-61" transform="translate(252.828125 0)"/>
     <use xlink:href="#DejaVuSans-72" transform="translate(314.107422 0)"/>
     <use xlink:href="#DejaVuSans-69" transform="translate(355.220703 0)"/>
     <use xlink:href="#DejaVuSans-73" transform="translate(383.003906 0)"/>
     <use xlink:href="#DejaVuSans-61" transform="translate(435.103516 0)"/>
     <use xlink:href="#DejaVuSans-74" transform="translate(496.382812 0)"/>
     <use xlink:href="#DejaVuSans-69" transform="translate(535.591797 0)"/>
     <use xlink:href="#DejaVuSans-6f" transform="translate(563.375 0)"/>
     <use xlink:href="#DejaVuSans-6e" transform="translate(624.556641 0)"/>
     <use xlink:href="#DejaVuSans-20" transform="translate(687.935547 0)"/>
     <use xlink:href="#DejaVuSans-6d" transform="translate(719.722656 0)"/>
     <use xlink:href="#DejaVuSans-65" transform="translate(817.134766 0)"/>
     <use xlink:href="#DejaVuSans-63" transform="translate(878.658203 0)"/>
     <use xlink:href="#DejaVuSans-68" transform="translate(933.638672 0)"/>
     <use xlink:href="#DejaVuSans-61" transform="translate(997.017578 0)"/>
     <use xlink:href="#DejaVuSans-6e" transform="translate(1058.296875 0)"/>
     <use xlink:href="#DejaVuSans-69" transform="translate(1121.675781 0)"/>
     <use xlink:href="#DejaVuSans-73" transform="translate(1149.458984 0)"/>
     <use xlink:href="#DejaVuSans-6d" transform="translate(1201.558594 0)"/>
     <use xlink:href="#DejaVuSans-73" transform="translate(1298.970703 0)"/>
     <use xlink:href="#DejaVuSans-2c" transform="translate(1351.070312 0)"/>
     <use xlink:href="#DejaVuSans-20" transform="translate(1382.857422 0)"/>
     <use xlink:href="#DejaVuSans-54" transform="translate(1414.644531 0)"/>
     <use xlink:href="#DejaVuSans-54" transform="translate(1473.978516 0)"/>
     <use xlink:href="#DejaVuSans-58" transform="translate(1535.0625 0)"/>
     <use xlink:href="#DejaVuSans-20" transform="translate(1603.568359 0)"/>
     <use xlink:href="#DejaVuSans-61" transform="translate(1635.355469 0)"/>
     <use xlink:href="#DejaVuSans-63" transform="translate(1696.634766 0)"/>
     <use xlink:href="#DejaVuSans-68" transform="translate(1751.615234 0)"/>
     <use xlink:href="#DejaVuSans-69" transform="translate(1814.994141 0)"/>
     <use xlink:href="#DejaVuSans-65" transform="translate(1842.777344 0)"/>
     <use xlink:href="#DejaVuSans-76" transform="translate(1904.300781 0)"/>
     <use xlink:href="#DejaVuSans-65" transform="translate(1963.480469 0)"/>
     <use xlink:href="#DejaVuSans-73" transform="translate(2025.003906 0)"/>
     <use xlink:href="#DejaVuSans-20" transform="translate(2077.103516 0)"/>
     <use xlink:href="#DejaVuSans-61" transform="translate(2108.890625 0)"/>
     <use xlink:href="#DejaVuSans-63" transform="translate(2170.169922 0)"/>
     <use xlink:href="#DejaVuSans-74" transform="translate(2225.150391 0)"/>
     <use xlink:href="#DejaVuSans-69" transform="translate(2264.359375 0)"/>
     <use xlink:href="#DejaVuSans-6f" transform="translate(2292.142578 0)"/>
     <use xlink:href="#DejaVuSans-6e" transform="translate(2353.324219 0)"/>
     <use xlink:href="#DejaVuSans-20" transform="translate(2416.703125 0)"/>
     <use xlink:href="#DejaVuSans-70" transform="translate(2448.490234 0)"/>
     <use xlink:href="#DejaVuSans-6f" transform="translate(2511.966797 0)"/>
     <use xlink:href="#DejaVuSans-74" transform="translate(2573.148438 0)"/>
     <use xlink:href="#DejaVuSans-65" transform="translate(2612.357422 0)"/>
     <use xlink:href="#DejaVuSans-6e" transform="translate(2673.880859 0)"/>
     <use xlink:href="#DejaVuSans-74" transform="translate(2737.259766 0)"/>
     <use xlink:href="#DejaVuSans-69" transform="translate(2776.46875 0)"/>
     <use xlink:href="#DejaVuSans-61" transform="translate(2804.251953 0)"/>
     <use xlink:href="#DejaVuSans-6c" transform="translate(2865.53125 0)"/>
     <use xlink:href="#DejaVuSans-20" transform="translate(2893.314453 0)"/>
     <use xlink:href="#DejaVuSans-62" transform="translate(2925.101562 0)"/>
     <use xlink:href="#DejaVuSans-6c" transform="translate(2988.578125 0)"/>
     <use xlink:href="#DejaVuSans-6f" transform="translate(3016.361328 0)"/>
     <use xlink:href="#DejaVuSans-63" transform="translate(3077.542969 0)"/>
     <use xlink:href="#DejaVuSans-6b" transform="translate(3132.523438 0)"/>
     <use xlink:href="#DejaVuSans-61" transform="translate(3188.683594 0)"/>
     <use xlink:href="#DejaVuSans-64" transform="translate(3249.962891 0)"/>
     <use xlink:href="#DejaVuSans-65" transform="translate(3313.439453 0)"/>
     <use xlink:href="#DejaVuSans-20" transform="translate(3374.962891 0)"/>
     <use xlink:href="#DejaVuSans-77" transform="translate(3406.75 0)"/>
     <use xlink:href="#DejaVuSans-69" transform="translate(3488.537109 0)"/>
     <use xlink:href="#DejaVuSans-74" transform="translate(3516.320312 0)"/>
     <use xlink:href="#DejaVuSans-68" transform="translate(3555.529297 0)"/>
     <use xlink:href="#DejaVuSans-20" transform="translate(3618.908203 0)"/>
     <use xlink:href="#DejaVuSans-6d" transform="translate(3650.695312 0)"/>
     <use xlink:href="#DejaVuSans-69" transform="translate(3748.107422 0)"/>
     <use xlink:href="#DejaVuSans-6e" transform="translate(3775.890625 0)"/>
     <use xlink:href="#DejaVuSans-69" transform="translate(3839.269531 0)"/>
     <use xlink:href="#DejaVuSans-6d" transform="translate(3867.052734 0)"/>
     <use xlink:href="#DejaVuSans-61" transform="translate(3964.464844 0)"/>
     <use xlink:href="#DejaVuSans-6c" transform="translate(4025.744141 0)"/>
    </g>
    <!-- collateral effects on membrane function, making it the more effective and -->
    <g transform="translate(195.117656 295.230587) scale(0.1 -0.1)">
     <defs>
      <path id="DejaVuSans-66" d="M 2375 4863 
L 2375 4384 
L 1825 4384 
Q 1516 4384 1395 4259 
Q 1275 4134 1275 3809 
L 1275 3500 
L 2222 3500 
L 2222 3053 
L 1275 3053 
L 1275 0 
L 697 0 
L 697 3053 
L 147 3053 
L 147 3500 
L 697 3500 
L 697 3744 
Q 697 4328 969 4595 
Q 1241 4863 1831 4863 
L 2375 4863 
z
" transform="scale(0.015625)"/>
      <path id="DejaVuSans-75" d="M 544 1381 
L 544 3500 
L 1119 3500 
L 1119 1403 
Q 1119 906 1312 657 
Q 1506 409 1894 409 
Q 2359 409 2629 706 
Q 2900 1003 2900 1516 
L 2900 3500 
L 3475 3500 
L 3475 0 
L 2900 0 
L 2900 538 
Q 2691 219 2414 64 
Q 2138 -91 1772 -91 
Q 1169 -91 856 284 
Q 544 659 544 1381 
z
M 1991 3584 
L 1991 3584 
z
" transform="scale(0.015625)"/>
     </defs>
     <use xlink:href="#DejaVuSans-63"/>
     <use xlink:href="#DejaVuSans-6f" transform="translate(54.980469 0)"/>
     <use xlink:href="#DejaVuSans-6c" transform="translate(116.162109 0)"/>
     <use xlink:href="#DejaVuSans-6c" transform="translate(143.945312 0)"/>
     <use xlink:href="#DejaVuSans-61" transform="translate(171.728516 0)"/>
     <use xlink:href="#DejaVuSans-74" transform="translate(233.007812 0)"/>
     <use xlink:href="#DejaVuSans-65" transform="translate(272.216797 0)"/>
     <use xlink:href="#DejaVuSans-72" transform="translate(333.740234 0)"/>
     <use xlink:href="#DejaVuSans-61" transform="translate(374.853516 0)"/>
     <use xlink:href="#DejaVuSans-6c" transform="translate(436.132812 0)"/>
     <use xlink:href="#DejaVuSans-20" transform="translate(463.916016 0)"/>
     <use xlink:href="#DejaVuSans-65" transform="translate(495.703125 0)"/>
     <use xlink:href="#DejaVuSans-66" transform="translate(557.226562 0)"/>
     <use xlink:href="#DejaVuSans-66" transform="translate(592.431641 0)"/>
     <use xlink:href="#DejaVuSans-65" transform="translate(627.636719 0)"/>
     <use xlink:href="#DejaVuSans-63" transform="translate(689.160156 0)"/>
     <use xlink:href="#DejaVuSans-74" transform="translate(744.140625 0)"/>
     <use xlink:href="#DejaVuSans-73" transform="translate(783.349609 0)"/>
     <use xlink:href="#DejaVuSans-20" transform="translate(835.449219 0)"/>
     <use xlink:href="#DejaVuSans-6f" transform="translate(867.236328 0)"/>
     <use xlink:href="#DejaVuSans-6e" transform="translate(928.417969 0)"/>
     <use xlink:href="#DejaVuSans-20" transform="translate(991.796875 0)"/>
     <use xlink:href="#DejaVuSans-6d" transform="translate(1023.583984 0)"/>
     <use xlink:href="#DejaVuSans-65" transform="translate(1120.996094 0)"/>
     <use xlink:href="#DejaVuSans-6d" transform="translate(1182.519531 0)"/>
     <use xlink:href="#DejaVuSans-62" transform="translate(1279.931641 0)"/>
     <use xlink:href="#DejaVuSans-72" transform="translate(1343.408203 0)"/>
     <use xlink:href="#DejaVuSans-61" transform="translate(1384.521484 0)"/>
     <use xlink:href="#DejaVuSans-6e" transform="translate(1445.800781 0)"/>
     <use xlink:href="#DejaVuSans-65" transform="translate(1509.179688 0)"/>
     <use xlink:href="#DejaVuSans-20" transform="translate(1570.703125 0)"/>
     <use xlink:href="#DejaVuSans-66" transform="translate(1602.490234 0)"/>
     <use xlink:href="#DejaVuSans-75" transform="translate(1637.695312 0)"/>
     <use xlink:href="#DejaVuSans-6e" transform="translate(1701.074219 0)"/>
     <use xlink:href="#DejaVuSans-63" transform="translate(1764.453125 0)"/>
     <use xlink:href="#DejaVuSans-74" transform="translate(1819.433594 0)"/>
     <use xlink:href="#DejaVuSans-69" transform="translate(1858.642578 0)"/>
     <use xlink:href="#DejaVuSans-6f" transform="translate(1886.425781 0)"/>
     <use xlink:href="#DejaVuSans-6e" transform="translate(1947.607422 0)"/>
     <use xlink:href="#DejaVuSans-2c" transform="translate(2010.986328 0)"/>
     <use xlink:href="#DejaVuSans-20" transform="translate(2042.773438 0)"/>
     <use xlink:href="#DejaVuSans-6d" transform="translate(2074.560547 0)"/>
     <use xlink:href="#DejaVuSans-61" transform="translate(2171.972656 0)"/>
     <use xlink:href="#DejaVuSans-6b" transform="translate(2233.251953 0)"/>
     <use xlink:href="#DejaVuSans-69" transform="translate(2291.162109 0)"/>
     <use xlink:href="#DejaVuSans-6e" transform="translate(2318.945312 0)"/>
     <use xlink:href="#DejaVuSans-67" transform="translate(2382.324219 0)"/>
     <use xlink:href="#DejaVuSans-20" transform="translate(2445.800781 0)"/>
     <use xlink:href="#DejaVuSans-69" transform="translate(2477.587891 0)"/>
     <use xlink:href="#DejaVuSans-74" transform="translate(2505.371094 0)"/>
     <use xlink:href="#DejaVuSans-20" transform="translate(2544.580078 0)"/>
     <use xlink:href="#DejaVuSans-74" transform="translate(2576.367188 0)"/>
     <use xlink:href="#DejaVuSans-68" transform="translate(2615.576172 0)"/>
     <use xlink:href="#DejaVuSans-65" transform="translate(2678.955078 0)"/>
     <use xlink:href="#DejaVuSans-20" transform="translate(2740.478516 0)"/>
     <use xlink:href="#DejaVuSans-6d" transform="translate(2772.265625 0)"/>
     <use xlink:href="#DejaVuSans-6f" transform="translate(2869.677734 0)"/>
     <use xlink:href="#DejaVuSans-72" transform="translate(2930.859375 0)"/>
     <use xlink:href="#DejaVuSans-65" transform="translate(2969.722656 0)"/>
     <use xlink:href="#DejaVuSans-20" transform="translate(3031.246094 0)"/>
     <use xlink:href="#DejaVuSans-65" transform="translate(3063.033203 0)"/>
     <use xlink:href="#DejaVuSans-66" transform="translate(3124.556641 0)"/>
     <use xlink:href="#DejaVuSans-66" transform="translate(3159.761719 0)"/>
     <use xlink:href="#DejaVuSans-65" transform="translate(3194.966797 0)"/>
     <use xlink:href="#DejaVuSans-63" transform="translate(3256.490234 0)"/>
     <use xlink:href="#DejaVuSans-74" transform="translate(3311.470703 0)"/>
     <use xlink:href="#DejaVuSans-69" transform="translate(3350.679688 0)"/>
     <use xlink:href="#DejaVuSans-76" transform="translate(3378.462891 0)"/>
     <use xlink:href="#DejaVuSans-65" transform="translate(3437.642578 0)"/>
     <use xlink:href="#DejaVuSans-20" transform="translate(3499.166016 0)"/>
     <use xlink:href="#DejaVuSans-61" transform="translate(3530.953125 0)"/>
     <use xlink:href="#DejaVuSans-6e" transform="translate(3592.232422 0)"/>
     <use xlink:href="#DejaVuSans-64" transform="translate(3655.611328 0)"/>
    </g>
    <!-- specific blocking agent. -->
    <g transform="translate(321.967656 306.4284) scale(0.1 -0.1)">
     <use xlink:href="#DejaVuSans-73"/>
     <use xlink:href="#DejaVuSans-70" transform="translate(52.099609 0)"/>
     <use xlink:href="#DejaVuSans-65" transform="translate(115.576172 0)"/>
     <use xlink:href="#DejaVuSans-63" transform="translate(177.099609 0)"/>
     <use xlink:href="#DejaVuSans-69" transform="translate(232.080078 0)"/>
     <use xlink:href="#DejaVuSans-66" transform="translate(259.863281 0)"/>
     <use xlink:href="#DejaVuSans-69" transform="translate(295.068359 0)"/>
     <use xlink:href="#DejaVuSans-63" transform="translate(322.851562 0)"/>
     <use xlink:href="#DejaVuSans-20" transform="translate(377.832031 0)"/>
     <use xlink:href="#DejaVuSans-62" transform="translate(409.619141 0)"/>
     <use xlink:href="#DejaVuSans-6c" transform="translate(473.095703 0)"/>
     <use xlink:href="#DejaVuSans-6f" transform="translate(500.878906 0)"/>
     <use xlink:href="#DejaVuSans-63" transform="translate(562.060547 0)"/>
     <use xlink:href="#DejaVuSans-6b" transform="translate(617.041016 0)"/>
     <use xlink:href="#DejaVuSans-69" transform="translate(674.951172 0)"/>
     <use xlink:href="#DejaVuSans-6e" transform="translate(702.734375 0)"/>
     <use xlink:href="#DejaVuSans-67" transform="translate(766.113281 0)"/>
     <use xlink:href="#DejaVuSans-20" transform="translate(829.589844 0)"/>
     <use xlink:href="#DejaVuSans-61" transform="translate(861.376953 0)"/>
     <use xlink:href="#DejaVuSans-67" transform="translate(922.65625 0)"/>
     <use xlink:href="#DejaVuSans-65" transform="translate(986.132812 0)"/>
     <use xlink:href="#DejaVuSans-6e" transform="translate(1047.65625 0)"/>
     <use xlink:href="#DejaVuSans-74" transform="translate(1111.035156 0)"/>
     <use xlink:href="#DejaVuSans-2e" transform="translate(1150.244141 0)"/>
    </g>
   </g>
   <g id="text_20">
    <!-- effectiveness of ttx vs anesthetics in blocking action potentials -->
    <g transform="translate(191.644375 41.76) scale(0.12 -0.12)">
     <defs>
      <path id="DejaVuSans-78" d="M 3513 3500 
L 2247 1797 
L 3578 0 
L 2900 0 
L 1881 1375 
L 863 0 
L 184 0 
L 1544 1831 
L 300 3500 
L 978 3500 
L 1906 2253 
L 2834 3500 
L 3513 3500 
z
" transform="scale(0.015625)"/>
     </defs>
     <use xlink:href="#DejaVuSans-65"/>
     <use xlink:href="#DejaVuSans-66" transform="translate(61.523438 0)"/>
     <use xlink:href="#DejaVuSans-66" transform="translate(96.728516 0)"/>
     <use xlink:href="#DejaVuSans-65" transform="translate(131.933594 0)"/>
     <use xlink:href="#DejaVuSans-63" transform="translate(193.457031 0)"/>
     <use xlink:href="#DejaVuSans-74" transform="translate(248.4375 0)"/>
     <use xlink:href="#DejaVuSans-69" transform="translate(287.646484 0)"/>
     <use xlink:href="#DejaVuSans-76" transform="translate(315.429688 0)"/>
     <use xlink:href="#DejaVuSans-65" transform="translate(374.609375 0)"/>
     <use xlink:href="#DejaVuSans-6e" transform="translate(436.132812 0)"/>
     <use xlink:href="#DejaVuSans-65" transform="translate(499.511719 0)"/>
     <use xlink:href="#DejaVuSans-73" transform="translate(561.035156 0)"/>
     <use xlink:href="#DejaVuSans-73" transform="translate(613.134766 0)"/>
     <use xlink:href="#DejaVuSans-20" transform="translate(665.234375 0)"/>
     <use xlink:href="#DejaVuSans-6f" transform="translate(697.021484 0)"/>
     <use xlink:href="#DejaVuSans-66" transform="translate(758.203125 0)"/>
     <use xlink:href="#DejaVuSans-20" transform="translate(793.408203 0)"/>
     <use xlink:href="#DejaVuSans-74" transform="translate(825.195312 0)"/>
     <use xlink:href="#DejaVuSans-74" transform="translate(864.404297 0)"/>
     <use xlink:href="#DejaVuSans-78" transform="translate(903.613281 0)"/>
     <use xlink:href="#DejaVuSans-20" transform="translate(962.792969 0)"/>
     <use xlink:href="#DejaVuSans-76" transform="translate(994.580078 0)"/>
     <use xlink:href="#DejaVuSans-73" transform="translate(1053.759766 0)"/>
     <use xlink:href="#DejaVuSans-20" transform="translate(1105.859375 0)"/>
     <use xlink:href="#DejaVuSans-61" transform="translate(1137.646484 0)"/>
     <use xlink:href="#DejaVuSans-6e" transform="translate(1198.925781 0)"/>
     <use xlink:href="#DejaVuSans-65" transform="translate(1262.304688 0)"/>
     <use xlink:href="#DejaVuSans-73" transform="translate(1323.828125 0)"/>
     <use xlink:href="#DejaVuSans-74" transform="translate(1375.927734 0)"/>
     <use xlink:href="#DejaVuSans-68" transform="translate(1415.136719 0)"/>
     <use xlink:href="#DejaVuSans-65" transform="translate(1478.515625 0)"/>
     <use xlink:href="#DejaVuSans-74" transform="translate(1540.039062 0)"/>
     <use xlink:href="#DejaVuSans-69" transform="translate(1579.248047 0)"/>
     <use xlink:href="#DejaVuSans-63" transform="translate(1607.03125 0)"/>
     <use xlink:href="#DejaVuSans-73" transform="translate(1662.011719 0)"/>
     <use xlink:href="#DejaVuSans-20" transform="translate(1714.111328 0)"/>
     <use xlink:href="#DejaVuSans-69" transform="translate(1745.898438 0)"/>
     <use xlink:href="#DejaVuSans-6e" transform="translate(1773.681641 0)"/>
     <use xlink:href="#DejaVuSans-20" transform="translate(1837.060547 0)"/>
     <use xlink:href="#DejaVuSans-62" transform="translate(1868.847656 0)"/>
     <use xlink:href="#DejaVuSans-6c" transform="translate(1932.324219 0)"/>
     <use xlink:href="#DejaVuSans-6f" transform="translate(1960.107422 0)"/>
     <use xlink:href="#DejaVuSans-63" transform="translate(2021.289062 0)"/>
     <use xlink:href="#DejaVuSans-6b" transform="translate(2076.269531 0)"/>
     <use xlink:href="#DejaVuSans-69" transform="translate(2134.179688 0)"/>
     <use xlink:href="#DejaVuSans-6e" transform="translate(2161.962891 0)"/>
     <use xlink:href="#DejaVuSans-67" transform="translate(2225.341797 0)"/>
     <use xlink:href="#DejaVuSans-20" transform="translate(2288.818359 0)"/>
     <use xlink:href="#DejaVuSans-61" transform="translate(2320.605469 0)"/>
     <use xlink:href="#DejaVuSans-63" transform="translate(2381.884766 0)"/>
     <use xlink:href="#DejaVuSans-74" transform="translate(2436.865234 0)"/>
     <use xlink:href="#DejaVuSans-69" transform="translate(2476.074219 0)"/>
     <use xlink:href="#DejaVuSans-6f" transform="translate(2503.857422 0)"/>
     <use xlink:href="#DejaVuSans-6e" transform="translate(2565.039062 0)"/>
     <use xlink:href="#DejaVuSans-20" transform="translate(2628.417969 0)"/>
     <use xlink:href="#DejaVuSans-70" transform="translate(2660.205078 0)"/>
     <use xlink:href="#DejaVuSans-6f" transform="translate(2723.681641 0)"/>
     <use xlink:href="#DejaVuSans-74" transform="translate(2784.863281 0)"/>
     <use xlink:href="#DejaVuSans-65" transform="translate(2824.072266 0)"/>
     <use xlink:href="#DejaVuSans-6e" transform="translate(2885.595703 0)"/>
     <use xlink:href="#DejaVuSans-74" transform="translate(2948.974609 0)"/>
     <use xlink:href="#DejaVuSans-69" transform="translate(2988.183594 0)"/>
     <use xlink:href="#DejaVuSans-61" transform="translate(3015.966797 0)"/>
     <use xlink:href="#DejaVuSans-6c" transform="translate(3077.246094 0)"/>
     <use xlink:href="#DejaVuSans-73" transform="translate(3105.029297 0)"/>
    </g>
   </g>
   <g id="legend_1">
    <g id="patch_8">
     <path d="M 611.842187 160.473187 
L 702.2 160.473187 
Q 704.2 160.473187 704.2 158.473187 
L 704.2 115.438812 
Q 704.2 113.438812 702.2 113.438812 
L 611.842187 113.438812 
Q 609.842187 113.438812 609.842187 115.438812 
L 609.842187 158.473187 
Q 609.842187 160.473187 611.842187 160.473187 
z
" style="fill: #ffffff; opacity: 0.8; stroke: #cccccc; stroke-linejoin: miter"/>
    </g>
    <g id="line2d_36">
     <path d="M 613.842187 121.53725 
L 623.842187 121.53725 
L 633.842187 121.53725 
" style="fill: none; stroke: #008000; stroke-width: 2; stroke-linecap: square"/>
    </g>
    <g id="text_21">
     <!-- Control -->
     <g transform="translate(641.842187 125.03725) scale(0.1 -0.1)">
      <defs>
       <path id="DejaVuSans-43" d="M 4122 4306 
L 4122 3641 
Q 3803 3938 3442 4084 
Q 3081 4231 2675 4231 
Q 1875 4231 1450 3742 
Q 1025 3253 1025 2328 
Q 1025 1406 1450 917 
Q 1875 428 2675 428 
Q 3081 428 3442 575 
Q 3803 722 4122 1019 
L 4122 359 
Q 3791 134 3420 21 
Q 3050 -91 2638 -91 
Q 1578 -91 968 557 
Q 359 1206 359 2328 
Q 359 3453 968 4101 
Q 1578 4750 2638 4750 
Q 3056 4750 3426 4639 
Q 3797 4528 4122 4306 
z
" transform="scale(0.015625)"/>
      </defs>
      <use xlink:href="#DejaVuSans-43"/>
      <use xlink:href="#DejaVuSans-6f" transform="translate(69.824219 0)"/>
      <use xlink:href="#DejaVuSans-6e" transform="translate(131.005859 0)"/>
      <use xlink:href="#DejaVuSans-74" transform="translate(194.384766 0)"/>
      <use xlink:href="#DejaVuSans-72" transform="translate(233.59375 0)"/>
      <use xlink:href="#DejaVuSans-6f" transform="translate(272.457031 0)"/>
      <use xlink:href="#DejaVuSans-6c" transform="translate(333.638672 0)"/>
     </g>
    </g>
    <g id="line2d_37">
     <path d="M 613.842187 136.215375 
L 623.842187 136.215375 
L 633.842187 136.215375 
" style="fill: none; stroke: #0000ff; stroke-width: 2; stroke-linecap: square"/>
    </g>
    <g id="text_22">
     <!-- TTX -->
     <g transform="translate(641.842187 139.715375) scale(0.1 -0.1)">
      <use xlink:href="#DejaVuSans-54"/>
      <use xlink:href="#DejaVuSans-54" transform="translate(59.333984 0)"/>
      <use xlink:href="#DejaVuSans-58" transform="translate(120.417969 0)"/>
     </g>
    </g>
    <g id="line2d_38">
     <path d="M 613.842187 150.8935 
L 623.842187 150.8935 
L 633.842187 150.8935 
" style="fill: none; stroke: #ff0000; stroke-width: 2; stroke-linecap: square"/>
    </g>
    <g id="text_23">
     <!-- Anesthetics -->
     <g transform="translate(641.842187 154.3935) scale(0.1 -0.1)">
      <defs>
       <path id="DejaVuSans-41" d="M 2188 4044 
L 1331 1722 
L 3047 1722 
L 2188 4044 
z
M 1831 4666 
L 2547 4666 
L 4325 0 
L 3669 0 
L 3244 1197 
L 1141 1197 
L 716 0 
L 50 0 
L 1831 4666 
z
" transform="scale(0.015625)"/>
      </defs>
      <use xlink:href="#DejaVuSans-41"/>
      <use xlink:href="#DejaVuSans-6e" transform="translate(68.408203 0)"/>
      <use xlink:href="#DejaVuSans-65" transform="translate(131.787109 0)"/>
      <use xlink:href="#DejaVuSans-73" transform="translate(193.310547 0)"/>
      <use xlink:href="#DejaVuSans-74" transform="translate(245.410156 0)"/>
      <use xlink:href="#DejaVuSans-68" transform="translate(284.619141 0)"/>
      <use xlink:href="#DejaVuSans-65" transform="translate(347.998047 0)"/>
      <use xlink:href="#DejaVuSans-74" transform="translate(409.521484 0)"/>
      <use xlink:href="#DejaVuSans-69" transform="translate(448.730469 0)"/>
      <use xlink:href="#DejaVuSans-63" transform="translate(476.513672 0)"/>
      <use xlink:href="#DejaVuSans-73" transform="translate(531.494141 0)"/>
     </g>
    </g>
   </g>
  </g>
 </g>
 <defs>
  <clipPath id="pfe5eb6f58b">
   <rect x="52.94" y="47.76" width="656.26" height="178.392"/>
  </clipPath>
 </defs>
</svg>
